M48
; DRILL file {KiCad 6.0.0-d3dd2cf0fa~116~ubuntu20.04.1} date trešdiena, 2022. gada 19. janvāris, 11:27:05
; FORMAT={-:-/ absolute / inch / decimal}
; #@! TF.CreationDate,2022-01-19T11:27:05+02:00
; #@! TF.GenerationSoftware,Kicad,Pcbnew,6.0.0-d3dd2cf0fa~116~ubuntu20.04.1
; #@! TF.FileFunction,Plated,1,2,PTH
FMAT,2
INCH
; #@! TA.AperFunction,Plated,PTH,ComponentDrill
T1C0.0118
; #@! TA.AperFunction,Plated,PTH,ViaDrill
T2C0.0157
%
G90
G05
T1
X2.6378Y-4.2165
X2.6772Y-4.2165
X2.7992Y-4.2205
X2.8386Y-4.2205
T2
X1.813Y-4.6949
X1.872Y-4.9429
X1.8898Y-3.8819
X1.8976Y-4.2126
X1.9075Y-5.1831
X1.9203Y-4.4173
X1.9449Y-4.4685
X1.9606Y-4.4134
X2.0157Y-4.9406
X2.0173Y-4.589
X2.0197Y-4.5433
X2.0453Y-5.0295
X2.0571Y-4.7047
X2.0984Y-4.5374
X2.1004Y-4.4311
X2.1043Y-4.6516
X2.122Y-4.311
X2.126Y-4.685
X2.1299Y-5.0768
X2.1339Y-4.8504
X2.1437Y-5.2165
X2.1565Y-4.7418
X2.1693Y-4.3898
X2.1693Y-4.4252
X2.1988Y-4.563
X2.2126Y-4.3898
X2.2126Y-4.4252
X2.2244Y-4.2323
X2.2485Y-4.4476
X2.2579Y-4.8976
X2.2638Y-5.1909
X2.2712Y-4.2077
X2.2913Y-4.4094
X2.2913Y-4.5866
X2.3307Y-3.8976
X2.3307Y-5.0433
X2.3346Y-4.2402
X2.3622Y-4.6654
X2.3701Y-3.9528
X2.374Y-5.3307
X2.3976Y-4.3661
X2.4291Y-4.7756
X2.4494Y-4.9084
X2.4528Y-3.7953
X2.4705Y-5.315
X2.4724Y-4.376
X2.4764Y-4.9075
X2.4803Y-4.7756
X2.4843Y-3.7717
X2.4843Y-4.4547
X2.4843Y-4.7126
X2.4882Y-4.1102
X2.4923Y-5.1758
X2.5Y-4.5433
X2.5157Y-3.7992
X2.5197Y-4.3386
X2.5315Y-5.3169
X2.5394Y-4.8976
X2.546Y-3.774
X2.5551Y-4.1969
X2.563Y-4.1142
X2.563Y-4.2402
X2.563Y-4.4843
X2.563Y-4.7323
X2.5846Y-5.2598
X2.5866Y-4.5197
X2.5866Y-5.3799
X2.5974Y-4.8543
X2.6063Y-3.7913
X2.6073Y-4.1181
X2.6083Y-5.0453
X2.6358Y-4.0876
X2.6362Y-3.7657
X2.6496Y-5.0492
X2.6545Y-4.8543
X2.6654Y-4.4803
X2.6693Y-3.7953
X2.6693Y-4.6181
X2.6739Y-4.0975
X2.689Y-4.1339
X2.6929Y-5.0453
X2.6995Y-3.7701
X2.7106Y-4.8819
X2.7165Y-4.5787
X2.7323Y-4.1811
X2.7402Y-4.248
X2.7402Y-4.7047
X2.7461Y-5.3091
X2.748Y-4.3661
X2.752Y-3.7913
X2.7559Y-4.1024
X2.7635Y-5.1786
X2.7874Y-3.7638
X2.7874Y-4.1024
X2.7898Y-5.1776
X2.8051Y-4.7067
X2.8091Y-5.311
X2.811Y-4.5276
X2.8159Y-3.7916
X2.8504Y-3.7717
X2.8543Y-4.3622
X2.8622Y-3.9567
X2.8898Y-4.9902
X2.8996Y-5.189
X2.9055Y-3.8937
X2.9134Y-4.189
X2.9173Y-4.2402
X2.9508Y-4.9469
X2.9705Y-5.3563
X3.0Y-4.0669
X3.1339Y-3.7638
X3.2717Y-3.813
T0
M30
