%TF.GenerationSoftware,KiCad,Pcbnew,6.0.0-d3dd2cf0fa~116~ubuntu20.04.1*%
%TF.CreationDate,2022-01-19T11:27:02+02:00*%
%TF.ProjectId,isc0901b0-breakout,69736330-3930-4316-9230-2d627265616b,rev2*%
%TF.SameCoordinates,Original*%
%TF.FileFunction,Paste,Bot*%
%TF.FilePolarity,Positive*%
%FSLAX46Y46*%
G04 Gerber Fmt 4.6, Leading zero omitted, Abs format (unit mm)*
G04 Created by KiCad (PCBNEW 6.0.0-d3dd2cf0fa~116~ubuntu20.04.1) date 2022-01-19 11:27:02*
%MOMM*%
%LPD*%
G01*
G04 APERTURE LIST*
G04 Aperture macros list*
%AMRoundRect*
0 Rectangle with rounded corners*
0 $1 Rounding radius*
0 $2 $3 $4 $5 $6 $7 $8 $9 X,Y pos of 4 corners*
0 Add a 4 corners polygon primitive as box body*
4,1,4,$2,$3,$4,$5,$6,$7,$8,$9,$2,$3,0*
0 Add four circle primitives for the rounded corners*
1,1,$1+$1,$2,$3*
1,1,$1+$1,$4,$5*
1,1,$1+$1,$6,$7*
1,1,$1+$1,$8,$9*
0 Add four rect primitives between the rounded corners*
20,1,$1+$1,$2,$3,$4,$5,0*
20,1,$1+$1,$4,$5,$6,$7,0*
20,1,$1+$1,$6,$7,$8,$9,0*
20,1,$1+$1,$8,$9,$2,$3,0*%
G04 Aperture macros list end*
%ADD10RoundRect,0.008202X0.291798X0.116798X-0.291798X0.116798X-0.291798X-0.116798X0.291798X-0.116798X0*%
%ADD11RoundRect,0.008202X0.116798X-0.291798X0.116798X0.291798X-0.116798X0.291798X-0.116798X-0.291798X0*%
%ADD12RoundRect,0.032808X0.717192X-0.467192X0.717192X0.467192X-0.717192X0.467192X-0.717192X-0.467192X0*%
%ADD13RoundRect,0.200000X-0.200000X-0.275000X0.200000X-0.275000X0.200000X0.275000X-0.200000X0.275000X0*%
%ADD14RoundRect,0.200000X0.275000X-0.200000X0.275000X0.200000X-0.275000X0.200000X-0.275000X-0.200000X0*%
%ADD15R,0.700000X0.450000*%
%ADD16RoundRect,0.218750X-0.218750X-0.256250X0.218750X-0.256250X0.218750X0.256250X-0.218750X0.256250X0*%
%ADD17RoundRect,0.225000X-0.250000X0.225000X-0.250000X-0.225000X0.250000X-0.225000X0.250000X0.225000X0*%
%ADD18RoundRect,0.225000X0.250000X-0.225000X0.250000X0.225000X-0.250000X0.225000X-0.250000X-0.225000X0*%
%ADD19RoundRect,0.225000X-0.225000X-0.250000X0.225000X-0.250000X0.225000X0.250000X-0.225000X0.250000X0*%
%ADD20R,1.200000X0.900000*%
%ADD21RoundRect,0.218750X0.256250X-0.218750X0.256250X0.218750X-0.256250X0.218750X-0.256250X-0.218750X0*%
%ADD22RoundRect,0.218750X0.381250X-0.218750X0.381250X0.218750X-0.381250X0.218750X-0.381250X-0.218750X0*%
%ADD23RoundRect,0.200000X-0.275000X0.200000X-0.275000X-0.200000X0.275000X-0.200000X0.275000X0.200000X0*%
%ADD24RoundRect,0.150000X-0.512500X-0.150000X0.512500X-0.150000X0.512500X0.150000X-0.512500X0.150000X0*%
%ADD25RoundRect,0.218750X0.218750X0.256250X-0.218750X0.256250X-0.218750X-0.256250X0.218750X-0.256250X0*%
%ADD26RoundRect,0.200000X0.200000X0.275000X-0.200000X0.275000X-0.200000X-0.275000X0.200000X-0.275000X0*%
%ADD27RoundRect,0.150000X-0.150000X0.512500X-0.150000X-0.512500X0.150000X-0.512500X0.150000X0.512500X0*%
%ADD28RoundRect,0.075000X-0.075000X0.650000X-0.075000X-0.650000X0.075000X-0.650000X0.075000X0.650000X0*%
%ADD29RoundRect,0.170000X-0.210000X0.170000X-0.210000X-0.170000X0.210000X-0.170000X0.210000X0.170000X0*%
%ADD30R,0.450000X0.700000*%
%ADD31R,0.900000X1.200000*%
%ADD32RoundRect,0.218750X-0.256250X0.218750X-0.256250X-0.218750X0.256250X-0.218750X0.256250X0.218750X0*%
%ADD33RoundRect,0.150000X0.150000X0.625000X-0.150000X0.625000X-0.150000X-0.625000X0.150000X-0.625000X0*%
%ADD34RoundRect,0.250000X0.350000X0.650000X-0.350000X0.650000X-0.350000X-0.650000X0.350000X-0.650000X0*%
%ADD35R,0.400000X0.900000*%
%ADD36R,0.400000X1.150000*%
%ADD37R,2.000000X2.400000*%
G04 APERTURE END LIST*
D10*
%TO.C,U5*%
X66100000Y-106850000D03*
D11*
X66500000Y-105950000D03*
X67000000Y-105950000D03*
X67500000Y-105950000D03*
X68000000Y-105950000D03*
X68500000Y-105950000D03*
D10*
X68900000Y-106850000D03*
D12*
X67500000Y-107100000D03*
D10*
X68900000Y-107350000D03*
D11*
X68500000Y-108250000D03*
X68000000Y-108250000D03*
X67500000Y-108250000D03*
X67000000Y-108250000D03*
X66500000Y-108250000D03*
D10*
X66100000Y-107350000D03*
%TD*%
D13*
%TO.C,R13*%
X82912500Y-101250000D03*
X84562500Y-101250000D03*
%TD*%
D14*
%TO.C,R1*%
X77537500Y-102975000D03*
X77537500Y-101325000D03*
%TD*%
D15*
%TO.C,Q3*%
X79237500Y-102800000D03*
X79237500Y-101500000D03*
X81237500Y-102150000D03*
%TD*%
D16*
%TO.C,D1*%
X82950000Y-102850000D03*
X84525000Y-102850000D03*
%TD*%
D17*
%TO.C,C1*%
X71300000Y-132375000D03*
X71300000Y-133925000D03*
%TD*%
%TO.C,C2*%
X62800000Y-132575000D03*
X62800000Y-134125000D03*
%TD*%
%TO.C,C3*%
X69800000Y-132375000D03*
X69800000Y-133925000D03*
%TD*%
%TO.C,C4*%
X64300000Y-132575000D03*
X64300000Y-134125000D03*
%TD*%
D18*
%TO.C,C5*%
X63300000Y-123925000D03*
X63300000Y-122375000D03*
%TD*%
%TO.C,C6*%
X61800000Y-123925000D03*
X61800000Y-122375000D03*
%TD*%
D19*
%TO.C,C7*%
X48425000Y-118300000D03*
X49975000Y-118300000D03*
%TD*%
D17*
%TO.C,C8*%
X52800000Y-109675000D03*
X52800000Y-111225000D03*
%TD*%
%TO.C,C9*%
X48300000Y-109675000D03*
X48300000Y-111225000D03*
%TD*%
D18*
%TO.C,C10*%
X53900000Y-127925000D03*
X53900000Y-126375000D03*
%TD*%
%TO.C,C11*%
X54000000Y-121525000D03*
X54000000Y-119975000D03*
%TD*%
D17*
%TO.C,C12*%
X49800000Y-109675000D03*
X49800000Y-111225000D03*
%TD*%
D18*
%TO.C,C13*%
X59900000Y-127525000D03*
X59900000Y-125975000D03*
%TD*%
%TO.C,C14*%
X60000000Y-120925000D03*
X60000000Y-119375000D03*
%TD*%
D20*
%TO.C,D2*%
X46300000Y-109600000D03*
X46300000Y-112900000D03*
%TD*%
D21*
%TO.C,FB1*%
X59900000Y-130587500D03*
X59900000Y-129012500D03*
%TD*%
D22*
%TO.C,L1*%
X46400000Y-116512500D03*
X46400000Y-114387500D03*
%TD*%
D23*
%TO.C,R2*%
X52100000Y-116525000D03*
X52100000Y-118175000D03*
%TD*%
%TO.C,R3*%
X51300000Y-109625000D03*
X51300000Y-111275000D03*
%TD*%
%TO.C,R4*%
X52100000Y-113425000D03*
X52100000Y-115075000D03*
%TD*%
D13*
%TO.C,R5*%
X55475000Y-129550000D03*
X57125000Y-129550000D03*
%TD*%
%TO.C,R6*%
X55675000Y-123150000D03*
X57325000Y-123150000D03*
%TD*%
D24*
%TO.C,U2*%
X55762500Y-127700000D03*
X55762500Y-126750000D03*
X55762500Y-125800000D03*
X58037500Y-125800000D03*
X58037500Y-127700000D03*
%TD*%
%TO.C,U3*%
X55862500Y-121500000D03*
X55862500Y-120550000D03*
X55862500Y-119600000D03*
X58137500Y-119600000D03*
X58137500Y-121500000D03*
%TD*%
D25*
%TO.C,D3*%
X48487500Y-123000000D03*
X46912500Y-123000000D03*
%TD*%
D26*
%TO.C,R11*%
X48525000Y-121000000D03*
X46875000Y-121000000D03*
%TD*%
D27*
%TO.C,U1*%
X48420000Y-114322500D03*
X49370000Y-114322500D03*
X50320000Y-114322500D03*
X50320000Y-116597500D03*
X48420000Y-116597500D03*
%TD*%
D28*
%TO.C,U4*%
X54600000Y-109800000D03*
X55100000Y-109800000D03*
X55600000Y-109800000D03*
X56100000Y-109800000D03*
X56600000Y-109800000D03*
X56600000Y-114100000D03*
X56100000Y-114100000D03*
X55600000Y-114100000D03*
X55100000Y-114100000D03*
X54600000Y-114100000D03*
D29*
X55130000Y-111530000D03*
X56070000Y-111530000D03*
X55130000Y-112370000D03*
X56070000Y-112370000D03*
%TD*%
D23*
%TO.C,R8*%
X59800000Y-114125000D03*
X59800000Y-115775000D03*
%TD*%
D30*
%TO.C,Q1*%
X61250000Y-113750000D03*
X62550000Y-113750000D03*
X61900000Y-115750000D03*
%TD*%
D13*
%TO.C,R7*%
X60975000Y-112150000D03*
X62625000Y-112150000D03*
%TD*%
D23*
%TO.C,R10*%
X58200000Y-114125000D03*
X58200000Y-115775000D03*
%TD*%
%TO.C,R9*%
X58200000Y-109625000D03*
X58200000Y-111275000D03*
%TD*%
D21*
%TO.C,FB3*%
X54700000Y-117525000D03*
X54700000Y-115950000D03*
%TD*%
D18*
%TO.C,C15*%
X56600000Y-117500000D03*
X56600000Y-115950000D03*
%TD*%
D21*
%TO.C,FB2*%
X60000000Y-123937500D03*
X60000000Y-122362500D03*
%TD*%
D31*
%TO.C,D4*%
X54450000Y-102300000D03*
X51150000Y-102300000D03*
%TD*%
D32*
%TO.C,FB4*%
X56200000Y-102212500D03*
X56200000Y-103787500D03*
%TD*%
D30*
%TO.C,Q2*%
X47950000Y-100350000D03*
X49250000Y-100350000D03*
X48600000Y-102350000D03*
%TD*%
D14*
%TO.C,R12*%
X49200000Y-98825000D03*
X49200000Y-97175000D03*
%TD*%
D33*
%TO.C,J5*%
X53500000Y-99625000D03*
X52500000Y-99625000D03*
D34*
X54800000Y-97100000D03*
X51200000Y-97100000D03*
%TD*%
D35*
%TO.C,RN1*%
X66900000Y-110450000D03*
X67700000Y-110450000D03*
X66100000Y-110450000D03*
X68500000Y-110450000D03*
X66100000Y-112150000D03*
X66900000Y-112150000D03*
X67700000Y-112150000D03*
X68500000Y-112150000D03*
%TD*%
D36*
%TO.C,J1*%
X61700000Y-98725000D03*
X62200000Y-100675000D03*
X62700000Y-98725000D03*
X63200000Y-100675000D03*
X63700000Y-98725000D03*
X64200000Y-100675000D03*
X64700000Y-98725000D03*
X65200000Y-100675000D03*
X65700000Y-98725000D03*
X66200000Y-100675000D03*
X66700000Y-98725000D03*
X67200000Y-100675000D03*
X67700000Y-98725000D03*
X68200000Y-100675000D03*
X68700000Y-98725000D03*
X69200000Y-100675000D03*
X69700000Y-98725000D03*
X70200000Y-100675000D03*
X70700000Y-98725000D03*
X71200000Y-100675000D03*
D37*
X59700000Y-99700000D03*
X73200000Y-99700000D03*
%TD*%
M02*
