%TF.GenerationSoftware,KiCad,Pcbnew,6.0.0-d3dd2cf0fa~116~ubuntu20.04.1*%
%TF.CreationDate,2022-01-19T11:27:02+02:00*%
%TF.ProjectId,isc0901b0-breakout,69736330-3930-4316-9230-2d627265616b,rev2*%
%TF.SameCoordinates,Original*%
%TF.FileFunction,Soldermask,Top*%
%TF.FilePolarity,Negative*%
%FSLAX46Y46*%
G04 Gerber Fmt 4.6, Leading zero omitted, Abs format (unit mm)*
G04 Created by KiCad (PCBNEW 6.0.0-d3dd2cf0fa~116~ubuntu20.04.1) date 2022-01-19 11:27:02*
%MOMM*%
%LPD*%
G01*
G04 APERTURE LIST*
G04 Aperture macros list*
%AMRoundRect*
0 Rectangle with rounded corners*
0 $1 Rounding radius*
0 $2 $3 $4 $5 $6 $7 $8 $9 X,Y pos of 4 corners*
0 Add a 4 corners polygon primitive as box body*
4,1,4,$2,$3,$4,$5,$6,$7,$8,$9,$2,$3,0*
0 Add four circle primitives for the rounded corners*
1,1,$1+$1,$2,$3*
1,1,$1+$1,$4,$5*
1,1,$1+$1,$6,$7*
1,1,$1+$1,$8,$9*
0 Add four rect primitives between the rounded corners*
20,1,$1+$1,$2,$3,$4,$5,0*
20,1,$1+$1,$4,$5,$6,$7,0*
20,1,$1+$1,$6,$7,$8,$9,0*
20,1,$1+$1,$8,$9,$2,$3,0*%
G04 Aperture macros list end*
%ADD10RoundRect,0.008202X0.291798X0.116798X-0.291798X0.116798X-0.291798X-0.116798X0.291798X-0.116798X0*%
%ADD11RoundRect,0.008202X-0.116798X0.291798X-0.116798X-0.291798X0.116798X-0.291798X0.116798X0.291798X0*%
%ADD12C,0.600000*%
%ADD13RoundRect,0.032808X-0.717192X0.467192X-0.717192X-0.467192X0.717192X-0.467192X0.717192X0.467192X0*%
%ADD14R,0.400000X0.900000*%
%ADD15R,0.250000X1.800000*%
G04 APERTURE END LIST*
D10*
%TO.C,U6*%
X70200000Y-107450000D03*
D11*
X70600000Y-108350000D03*
X71100000Y-108350000D03*
X71600000Y-108350000D03*
X72100000Y-108350000D03*
X72600000Y-108350000D03*
D12*
X72100000Y-107200000D03*
D10*
X73000000Y-107450000D03*
D13*
X71600000Y-107200000D03*
D12*
X71100000Y-107200000D03*
D10*
X73000000Y-106950000D03*
D11*
X72600000Y-106050000D03*
X72100000Y-106050000D03*
X71600000Y-106050000D03*
X71100000Y-106050000D03*
X70600000Y-106050000D03*
D10*
X70200000Y-106950000D03*
%TD*%
D12*
%TO.C,U5*%
X68000000Y-107100000D03*
X67000000Y-107100000D03*
%TD*%
D14*
%TO.C,RN3*%
X67000000Y-99150000D03*
X67800000Y-99150000D03*
X66200000Y-99150000D03*
X68600000Y-99150000D03*
X66200000Y-97450000D03*
X67000000Y-97450000D03*
X67800000Y-97450000D03*
X68600000Y-97450000D03*
%TD*%
%TO.C,RN2*%
X63100000Y-99150000D03*
X63900000Y-99150000D03*
X62300000Y-99150000D03*
X64700000Y-99150000D03*
X62300000Y-97450000D03*
X63100000Y-97450000D03*
X63900000Y-97450000D03*
X64700000Y-97450000D03*
%TD*%
%TO.C,RN4*%
X70800000Y-99150000D03*
X71600000Y-99150000D03*
X70000000Y-99150000D03*
X72400000Y-99150000D03*
X70000000Y-97450000D03*
X70800000Y-97450000D03*
X71600000Y-97450000D03*
X72400000Y-97450000D03*
%TD*%
D15*
%TO.C,J2*%
X71300000Y-130100000D03*
X70800000Y-130100000D03*
X70300000Y-130100000D03*
X69800000Y-130100000D03*
X69300000Y-130100000D03*
X68800000Y-130100000D03*
X68300000Y-130100000D03*
X67800000Y-130100000D03*
X67300000Y-130100000D03*
X66800000Y-130100000D03*
X66300000Y-130100000D03*
X65800000Y-130100000D03*
X65300000Y-130100000D03*
X64800000Y-130100000D03*
X64300000Y-130100000D03*
X63800000Y-130100000D03*
X63300000Y-130100000D03*
X62800000Y-130100000D03*
X62300000Y-130100000D03*
X61800000Y-130100000D03*
X61800000Y-126100000D03*
X62300000Y-126100000D03*
X62800000Y-126100000D03*
X63300000Y-126100000D03*
X63800000Y-126100000D03*
X64300000Y-126100000D03*
X64800000Y-126100000D03*
X65300000Y-126100000D03*
X65800000Y-126100000D03*
X66300000Y-126100000D03*
X66800000Y-126100000D03*
X67300000Y-126100000D03*
X67800000Y-126100000D03*
X68300000Y-126100000D03*
X68800000Y-126100000D03*
X69300000Y-126100000D03*
X69800000Y-126100000D03*
X70300000Y-126100000D03*
X70800000Y-126100000D03*
X71300000Y-126100000D03*
%TD*%
M02*
