%TF.GenerationSoftware,KiCad,Pcbnew,6.0.0-d3dd2cf0fa~116~ubuntu20.04.1*%
%TF.CreationDate,2022-01-19T11:27:02+02:00*%
%TF.ProjectId,isc0901b0-breakout,69736330-3930-4316-9230-2d627265616b,rev2*%
%TF.SameCoordinates,Original*%
%TF.FileFunction,Legend,Top*%
%TF.FilePolarity,Positive*%
%FSLAX46Y46*%
G04 Gerber Fmt 4.6, Leading zero omitted, Abs format (unit mm)*
G04 Created by KiCad (PCBNEW 6.0.0-d3dd2cf0fa~116~ubuntu20.04.1) date 2022-01-19 11:27:02*
%MOMM*%
%LPD*%
G01*
G04 APERTURE LIST*
%ADD10C,0.150000*%
%ADD11C,0.120000*%
%ADD12C,0.050000*%
G04 APERTURE END LIST*
D10*
%TO.C,U6*%
X71066666Y-109216666D02*
X71066666Y-109783333D01*
X71100000Y-109850000D01*
X71133333Y-109883333D01*
X71200000Y-109916666D01*
X71333333Y-109916666D01*
X71400000Y-109883333D01*
X71433333Y-109850000D01*
X71466666Y-109783333D01*
X71466666Y-109216666D01*
X72100000Y-109216666D02*
X71966666Y-109216666D01*
X71900000Y-109250000D01*
X71866666Y-109283333D01*
X71800000Y-109383333D01*
X71766666Y-109516666D01*
X71766666Y-109783333D01*
X71800000Y-109850000D01*
X71833333Y-109883333D01*
X71900000Y-109916666D01*
X72033333Y-109916666D01*
X72100000Y-109883333D01*
X72133333Y-109850000D01*
X72166666Y-109783333D01*
X72166666Y-109616666D01*
X72133333Y-109550000D01*
X72100000Y-109516666D01*
X72033333Y-109483333D01*
X71900000Y-109483333D01*
X71833333Y-109516666D01*
X71800000Y-109550000D01*
X71766666Y-109616666D01*
%TO.C,RN3*%
X66716666Y-101216666D02*
X66483333Y-100883333D01*
X66316666Y-101216666D02*
X66316666Y-100516666D01*
X66583333Y-100516666D01*
X66650000Y-100550000D01*
X66683333Y-100583333D01*
X66716666Y-100650000D01*
X66716666Y-100750000D01*
X66683333Y-100816666D01*
X66650000Y-100850000D01*
X66583333Y-100883333D01*
X66316666Y-100883333D01*
X67016666Y-101216666D02*
X67016666Y-100516666D01*
X67416666Y-101216666D01*
X67416666Y-100516666D01*
X67683333Y-100516666D02*
X68116666Y-100516666D01*
X67883333Y-100783333D01*
X67983333Y-100783333D01*
X68050000Y-100816666D01*
X68083333Y-100850000D01*
X68116666Y-100916666D01*
X68116666Y-101083333D01*
X68083333Y-101150000D01*
X68050000Y-101183333D01*
X67983333Y-101216666D01*
X67783333Y-101216666D01*
X67716666Y-101183333D01*
X67683333Y-101150000D01*
%TO.C,RN2*%
X62916666Y-101016666D02*
X62683333Y-100683333D01*
X62516666Y-101016666D02*
X62516666Y-100316666D01*
X62783333Y-100316666D01*
X62850000Y-100350000D01*
X62883333Y-100383333D01*
X62916666Y-100450000D01*
X62916666Y-100550000D01*
X62883333Y-100616666D01*
X62850000Y-100650000D01*
X62783333Y-100683333D01*
X62516666Y-100683333D01*
X63216666Y-101016666D02*
X63216666Y-100316666D01*
X63616666Y-101016666D01*
X63616666Y-100316666D01*
X63916666Y-100383333D02*
X63950000Y-100350000D01*
X64016666Y-100316666D01*
X64183333Y-100316666D01*
X64250000Y-100350000D01*
X64283333Y-100383333D01*
X64316666Y-100450000D01*
X64316666Y-100516666D01*
X64283333Y-100616666D01*
X63883333Y-101016666D01*
X64316666Y-101016666D01*
%TO.C,RN4*%
X70216666Y-101216666D02*
X69983333Y-100883333D01*
X69816666Y-101216666D02*
X69816666Y-100516666D01*
X70083333Y-100516666D01*
X70150000Y-100550000D01*
X70183333Y-100583333D01*
X70216666Y-100650000D01*
X70216666Y-100750000D01*
X70183333Y-100816666D01*
X70150000Y-100850000D01*
X70083333Y-100883333D01*
X69816666Y-100883333D01*
X70516666Y-101216666D02*
X70516666Y-100516666D01*
X70916666Y-101216666D01*
X70916666Y-100516666D01*
X71550000Y-100750000D02*
X71550000Y-101216666D01*
X71383333Y-100483333D02*
X71216666Y-100983333D01*
X71650000Y-100983333D01*
%TO.C,J2*%
X66241666Y-132316666D02*
X66241666Y-132816666D01*
X66208333Y-132916666D01*
X66141666Y-132983333D01*
X66041666Y-133016666D01*
X65975000Y-133016666D01*
X66541666Y-132383333D02*
X66575000Y-132350000D01*
X66641666Y-132316666D01*
X66808333Y-132316666D01*
X66875000Y-132350000D01*
X66908333Y-132383333D01*
X66941666Y-132450000D01*
X66941666Y-132516666D01*
X66908333Y-132616666D01*
X66508333Y-133016666D01*
X66941666Y-133016666D01*
D11*
%TO.C,U6*%
X70350000Y-108450000D02*
X70100000Y-108450000D01*
X70100000Y-108450000D02*
X70100000Y-107700000D01*
X72850000Y-105950000D02*
X73100000Y-105950000D01*
X73100000Y-108450000D02*
X72850000Y-108450000D01*
X73100000Y-105950000D02*
X73100000Y-106700000D01*
X70100000Y-106700000D02*
X70100000Y-105950000D01*
X73100000Y-107700000D02*
X73100000Y-108450000D01*
X70100000Y-105950000D02*
X70350000Y-105950000D01*
X69832956Y-107880000D02*
G75*
G03*
X69832956Y-107880000I-102956J0D01*
G01*
%TO.C,RN3*%
X69120000Y-97900000D02*
X69120000Y-98700000D01*
X65680000Y-97900000D02*
X65680000Y-98700000D01*
%TO.C,RN2*%
X65220000Y-97900000D02*
X65220000Y-98700000D01*
X61780000Y-97900000D02*
X61780000Y-98700000D01*
%TO.C,RN4*%
X72920000Y-97900000D02*
X72920000Y-98700000D01*
X69480000Y-97900000D02*
X69480000Y-98700000D01*
D12*
%TO.C,J2*%
X59650000Y-125400000D02*
X61450000Y-125400000D01*
X59650000Y-130800000D02*
X59650000Y-125400000D01*
X61450000Y-130800000D02*
X59650000Y-130800000D01*
X73450000Y-125400000D02*
X71650000Y-125400000D01*
X73450000Y-130800000D02*
X71650000Y-130800000D01*
X73450000Y-125400000D02*
X73450000Y-130800000D01*
X71840139Y-131200000D02*
G75*
G03*
X71840139Y-131200000I-90139J0D01*
G01*
%TD*%
M02*
