%TF.GenerationSoftware,KiCad,Pcbnew,6.0.0-d3dd2cf0fa~116~ubuntu20.04.1*%
%TF.CreationDate,2022-01-19T11:27:02+02:00*%
%TF.ProjectId,isc0901b0-breakout,69736330-3930-4316-9230-2d627265616b,rev2*%
%TF.SameCoordinates,Original*%
%TF.FileFunction,Legend,Bot*%
%TF.FilePolarity,Positive*%
%FSLAX46Y46*%
G04 Gerber Fmt 4.6, Leading zero omitted, Abs format (unit mm)*
G04 Created by KiCad (PCBNEW 6.0.0-d3dd2cf0fa~116~ubuntu20.04.1) date 2022-01-19 11:27:02*
%MOMM*%
%LPD*%
G01*
G04 APERTURE LIST*
%ADD10C,0.150000*%
%ADD11C,0.200000*%
%ADD12C,0.120000*%
G04 APERTURE END LIST*
D10*
X87950000Y-117511666D02*
X87473809Y-117511666D01*
X88045238Y-117797380D02*
X87711904Y-116797380D01*
X87378571Y-117797380D01*
X86616666Y-117130714D02*
X86616666Y-117797380D01*
X87045238Y-117130714D02*
X87045238Y-117654523D01*
X86997619Y-117749761D01*
X86902380Y-117797380D01*
X86759523Y-117797380D01*
X86664285Y-117749761D01*
X86616666Y-117702142D01*
X86283333Y-117130714D02*
X85902380Y-117130714D01*
X86140476Y-116797380D02*
X86140476Y-117654523D01*
X86092857Y-117749761D01*
X85997619Y-117797380D01*
X85902380Y-117797380D01*
X85426190Y-117797380D02*
X85521428Y-117749761D01*
X85569047Y-117702142D01*
X85616666Y-117606904D01*
X85616666Y-117321190D01*
X85569047Y-117225952D01*
X85521428Y-117178333D01*
X85426190Y-117130714D01*
X85283333Y-117130714D01*
X85188095Y-117178333D01*
X85140476Y-117225952D01*
X85092857Y-117321190D01*
X85092857Y-117606904D01*
X85140476Y-117702142D01*
X85188095Y-117749761D01*
X85283333Y-117797380D01*
X85426190Y-117797380D01*
X84521428Y-117797380D02*
X84616666Y-117749761D01*
X84664285Y-117654523D01*
X84664285Y-116797380D01*
X84140476Y-117797380D02*
X84140476Y-117130714D01*
X84140476Y-116797380D02*
X84188095Y-116845000D01*
X84140476Y-116892619D01*
X84092857Y-116845000D01*
X84140476Y-116797380D01*
X84140476Y-116892619D01*
X83759523Y-117130714D02*
X83521428Y-117797380D01*
X83283333Y-117130714D01*
X82140476Y-117797380D02*
X82140476Y-116797380D01*
X81569047Y-117797380D01*
X81569047Y-116797380D01*
X81235714Y-116797380D02*
X80902380Y-117797380D01*
X80569047Y-116797380D01*
X80330952Y-116797380D02*
X79711904Y-116797380D01*
X80045238Y-117178333D01*
X79902380Y-117178333D01*
X79807142Y-117225952D01*
X79759523Y-117273571D01*
X79711904Y-117368809D01*
X79711904Y-117606904D01*
X79759523Y-117702142D01*
X79807142Y-117749761D01*
X79902380Y-117797380D01*
X80188095Y-117797380D01*
X80283333Y-117749761D01*
X80330952Y-117702142D01*
X77807142Y-116749761D02*
X78664285Y-118035476D01*
X76711904Y-117797380D02*
X76711904Y-116797380D01*
X76283333Y-117749761D02*
X76140476Y-117797380D01*
X75902380Y-117797380D01*
X75807142Y-117749761D01*
X75759523Y-117702142D01*
X75711904Y-117606904D01*
X75711904Y-117511666D01*
X75759523Y-117416428D01*
X75807142Y-117368809D01*
X75902380Y-117321190D01*
X76092857Y-117273571D01*
X76188095Y-117225952D01*
X76235714Y-117178333D01*
X76283333Y-117083095D01*
X76283333Y-116987857D01*
X76235714Y-116892619D01*
X76188095Y-116845000D01*
X76092857Y-116797380D01*
X75854761Y-116797380D01*
X75711904Y-116845000D01*
X74711904Y-117702142D02*
X74759523Y-117749761D01*
X74902380Y-117797380D01*
X74997619Y-117797380D01*
X75140476Y-117749761D01*
X75235714Y-117654523D01*
X75283333Y-117559285D01*
X75330952Y-117368809D01*
X75330952Y-117225952D01*
X75283333Y-117035476D01*
X75235714Y-116940238D01*
X75140476Y-116845000D01*
X74997619Y-116797380D01*
X74902380Y-116797380D01*
X74759523Y-116845000D01*
X74711904Y-116892619D01*
X74092857Y-116797380D02*
X73997619Y-116797380D01*
X73902380Y-116845000D01*
X73854761Y-116892619D01*
X73807142Y-116987857D01*
X73759523Y-117178333D01*
X73759523Y-117416428D01*
X73807142Y-117606904D01*
X73854761Y-117702142D01*
X73902380Y-117749761D01*
X73997619Y-117797380D01*
X74092857Y-117797380D01*
X74188095Y-117749761D01*
X74235714Y-117702142D01*
X74283333Y-117606904D01*
X74330952Y-117416428D01*
X74330952Y-117178333D01*
X74283333Y-116987857D01*
X74235714Y-116892619D01*
X74188095Y-116845000D01*
X74092857Y-116797380D01*
X73283333Y-117797380D02*
X73092857Y-117797380D01*
X72997619Y-117749761D01*
X72950000Y-117702142D01*
X72854761Y-117559285D01*
X72807142Y-117368809D01*
X72807142Y-116987857D01*
X72854761Y-116892619D01*
X72902380Y-116845000D01*
X72997619Y-116797380D01*
X73188095Y-116797380D01*
X73283333Y-116845000D01*
X73330952Y-116892619D01*
X73378571Y-116987857D01*
X73378571Y-117225952D01*
X73330952Y-117321190D01*
X73283333Y-117368809D01*
X73188095Y-117416428D01*
X72997619Y-117416428D01*
X72902380Y-117368809D01*
X72854761Y-117321190D01*
X72807142Y-117225952D01*
X72188095Y-116797380D02*
X72092857Y-116797380D01*
X71997619Y-116845000D01*
X71950000Y-116892619D01*
X71902380Y-116987857D01*
X71854761Y-117178333D01*
X71854761Y-117416428D01*
X71902380Y-117606904D01*
X71950000Y-117702142D01*
X71997619Y-117749761D01*
X72092857Y-117797380D01*
X72188095Y-117797380D01*
X72283333Y-117749761D01*
X72330952Y-117702142D01*
X72378571Y-117606904D01*
X72426190Y-117416428D01*
X72426190Y-117178333D01*
X72378571Y-116987857D01*
X72330952Y-116892619D01*
X72283333Y-116845000D01*
X72188095Y-116797380D01*
X70902380Y-117797380D02*
X71473809Y-117797380D01*
X71188095Y-117797380D02*
X71188095Y-116797380D01*
X71283333Y-116940238D01*
X71378571Y-117035476D01*
X71473809Y-117083095D01*
X70140476Y-117273571D02*
X69997619Y-117321190D01*
X69950000Y-117368809D01*
X69902380Y-117464047D01*
X69902380Y-117606904D01*
X69950000Y-117702142D01*
X69997619Y-117749761D01*
X70092857Y-117797380D01*
X70473809Y-117797380D01*
X70473809Y-116797380D01*
X70140476Y-116797380D01*
X70045238Y-116845000D01*
X69997619Y-116892619D01*
X69950000Y-116987857D01*
X69950000Y-117083095D01*
X69997619Y-117178333D01*
X70045238Y-117225952D01*
X70140476Y-117273571D01*
X70473809Y-117273571D01*
X69283333Y-116797380D02*
X69188095Y-116797380D01*
X69092857Y-116845000D01*
X69045238Y-116892619D01*
X68997619Y-116987857D01*
X68950000Y-117178333D01*
X68950000Y-117416428D01*
X68997619Y-117606904D01*
X69045238Y-117702142D01*
X69092857Y-117749761D01*
X69188095Y-117797380D01*
X69283333Y-117797380D01*
X69378571Y-117749761D01*
X69426190Y-117702142D01*
X69473809Y-117606904D01*
X69521428Y-117416428D01*
X69521428Y-117178333D01*
X69473809Y-116987857D01*
X69426190Y-116892619D01*
X69378571Y-116845000D01*
X69283333Y-116797380D01*
X83807142Y-119407380D02*
X83807142Y-118407380D01*
X83807142Y-118788333D02*
X83711904Y-118740714D01*
X83521428Y-118740714D01*
X83426190Y-118788333D01*
X83378571Y-118835952D01*
X83330952Y-118931190D01*
X83330952Y-119216904D01*
X83378571Y-119312142D01*
X83426190Y-119359761D01*
X83521428Y-119407380D01*
X83711904Y-119407380D01*
X83807142Y-119359761D01*
X82902380Y-119407380D02*
X82902380Y-118740714D01*
X82902380Y-118931190D02*
X82854761Y-118835952D01*
X82807142Y-118788333D01*
X82711904Y-118740714D01*
X82616666Y-118740714D01*
X81902380Y-119359761D02*
X81997619Y-119407380D01*
X82188095Y-119407380D01*
X82283333Y-119359761D01*
X82330952Y-119264523D01*
X82330952Y-118883571D01*
X82283333Y-118788333D01*
X82188095Y-118740714D01*
X81997619Y-118740714D01*
X81902380Y-118788333D01*
X81854761Y-118883571D01*
X81854761Y-118978809D01*
X82330952Y-119074047D01*
X80997619Y-119407380D02*
X80997619Y-118883571D01*
X81045238Y-118788333D01*
X81140476Y-118740714D01*
X81330952Y-118740714D01*
X81426190Y-118788333D01*
X80997619Y-119359761D02*
X81092857Y-119407380D01*
X81330952Y-119407380D01*
X81426190Y-119359761D01*
X81473809Y-119264523D01*
X81473809Y-119169285D01*
X81426190Y-119074047D01*
X81330952Y-119026428D01*
X81092857Y-119026428D01*
X80997619Y-118978809D01*
X80521428Y-119407380D02*
X80521428Y-118407380D01*
X80426190Y-119026428D02*
X80140476Y-119407380D01*
X80140476Y-118740714D02*
X80521428Y-119121666D01*
X79569047Y-119407380D02*
X79664285Y-119359761D01*
X79711904Y-119312142D01*
X79759523Y-119216904D01*
X79759523Y-118931190D01*
X79711904Y-118835952D01*
X79664285Y-118788333D01*
X79569047Y-118740714D01*
X79426190Y-118740714D01*
X79330952Y-118788333D01*
X79283333Y-118835952D01*
X79235714Y-118931190D01*
X79235714Y-119216904D01*
X79283333Y-119312142D01*
X79330952Y-119359761D01*
X79426190Y-119407380D01*
X79569047Y-119407380D01*
X78378571Y-118740714D02*
X78378571Y-119407380D01*
X78807142Y-118740714D02*
X78807142Y-119264523D01*
X78759523Y-119359761D01*
X78664285Y-119407380D01*
X78521428Y-119407380D01*
X78426190Y-119359761D01*
X78378571Y-119312142D01*
X78045238Y-118740714D02*
X77664285Y-118740714D01*
X77902380Y-118407380D02*
X77902380Y-119264523D01*
X77854761Y-119359761D01*
X77759523Y-119407380D01*
X77664285Y-119407380D01*
X76569047Y-119407380D02*
X76569047Y-118740714D01*
X76569047Y-118931190D02*
X76521428Y-118835952D01*
X76473809Y-118788333D01*
X76378571Y-118740714D01*
X76283333Y-118740714D01*
X75569047Y-119359761D02*
X75664285Y-119407380D01*
X75854761Y-119407380D01*
X75950000Y-119359761D01*
X75997619Y-119264523D01*
X75997619Y-118883571D01*
X75950000Y-118788333D01*
X75854761Y-118740714D01*
X75664285Y-118740714D01*
X75569047Y-118788333D01*
X75521428Y-118883571D01*
X75521428Y-118978809D01*
X75997619Y-119074047D01*
X75188095Y-118740714D02*
X74950000Y-119407380D01*
X74711904Y-118740714D01*
X73664285Y-118407380D02*
X73045238Y-118407380D01*
X73378571Y-118788333D01*
X73235714Y-118788333D01*
X73140476Y-118835952D01*
X73092857Y-118883571D01*
X73045238Y-118978809D01*
X73045238Y-119216904D01*
X73092857Y-119312142D01*
X73140476Y-119359761D01*
X73235714Y-119407380D01*
X73521428Y-119407380D01*
X73616666Y-119359761D01*
X73664285Y-119312142D01*
D11*
X55028571Y-123213142D02*
X54419047Y-123213142D01*
X54723809Y-123517904D02*
X54723809Y-122908380D01*
X53657142Y-122717904D02*
X54038095Y-122717904D01*
X54076190Y-123098857D01*
X54038095Y-123060761D01*
X53961904Y-123022666D01*
X53771428Y-123022666D01*
X53695238Y-123060761D01*
X53657142Y-123098857D01*
X53619047Y-123175047D01*
X53619047Y-123365523D01*
X53657142Y-123441714D01*
X53695238Y-123479809D01*
X53771428Y-123517904D01*
X53961904Y-123517904D01*
X54038095Y-123479809D01*
X54076190Y-123441714D01*
X53390476Y-122717904D02*
X53123809Y-123517904D01*
X52857142Y-122717904D01*
X54609523Y-124044000D02*
X54685714Y-124005904D01*
X54800000Y-124005904D01*
X54914285Y-124044000D01*
X54990476Y-124120190D01*
X55028571Y-124196380D01*
X55066666Y-124348761D01*
X55066666Y-124463047D01*
X55028571Y-124615428D01*
X54990476Y-124691619D01*
X54914285Y-124767809D01*
X54800000Y-124805904D01*
X54723809Y-124805904D01*
X54609523Y-124767809D01*
X54571428Y-124729714D01*
X54571428Y-124463047D01*
X54723809Y-124463047D01*
X54228571Y-124805904D02*
X54228571Y-124005904D01*
X53771428Y-124805904D01*
X53771428Y-124005904D01*
X53390476Y-124805904D02*
X53390476Y-124005904D01*
X53200000Y-124005904D01*
X53085714Y-124044000D01*
X53009523Y-124120190D01*
X52971428Y-124196380D01*
X52933333Y-124348761D01*
X52933333Y-124463047D01*
X52971428Y-124615428D01*
X53009523Y-124691619D01*
X53085714Y-124767809D01*
X53200000Y-124805904D01*
X53390476Y-124805904D01*
D10*
%TO.C,U5*%
X64866666Y-107566666D02*
X65433333Y-107566666D01*
X65500000Y-107600000D01*
X65533333Y-107633333D01*
X65566666Y-107700000D01*
X65566666Y-107833333D01*
X65533333Y-107900000D01*
X65500000Y-107933333D01*
X65433333Y-107966666D01*
X64866666Y-107966666D01*
X64866666Y-108633333D02*
X64866666Y-108300000D01*
X65200000Y-108266666D01*
X65166666Y-108300000D01*
X65133333Y-108366666D01*
X65133333Y-108533333D01*
X65166666Y-108600000D01*
X65200000Y-108633333D01*
X65266666Y-108666666D01*
X65433333Y-108666666D01*
X65500000Y-108633333D01*
X65533333Y-108600000D01*
X65566666Y-108533333D01*
X65566666Y-108366666D01*
X65533333Y-108300000D01*
X65500000Y-108266666D01*
%TO.C,R13*%
X84380357Y-99902380D02*
X84713690Y-99426190D01*
X84951785Y-99902380D02*
X84951785Y-98902380D01*
X84570833Y-98902380D01*
X84475595Y-98950000D01*
X84427976Y-98997619D01*
X84380357Y-99092857D01*
X84380357Y-99235714D01*
X84427976Y-99330952D01*
X84475595Y-99378571D01*
X84570833Y-99426190D01*
X84951785Y-99426190D01*
X83427976Y-99902380D02*
X83999404Y-99902380D01*
X83713690Y-99902380D02*
X83713690Y-98902380D01*
X83808928Y-99045238D01*
X83904166Y-99140476D01*
X83999404Y-99188095D01*
X83094642Y-98902380D02*
X82475595Y-98902380D01*
X82808928Y-99283333D01*
X82666071Y-99283333D01*
X82570833Y-99330952D01*
X82523214Y-99378571D01*
X82475595Y-99473809D01*
X82475595Y-99711904D01*
X82523214Y-99807142D01*
X82570833Y-99854761D01*
X82666071Y-99902380D01*
X82951785Y-99902380D01*
X83047023Y-99854761D01*
X83094642Y-99807142D01*
%TO.C,R1*%
X76589880Y-101883333D02*
X76113690Y-101550000D01*
X76589880Y-101311904D02*
X75589880Y-101311904D01*
X75589880Y-101692857D01*
X75637500Y-101788095D01*
X75685119Y-101835714D01*
X75780357Y-101883333D01*
X75923214Y-101883333D01*
X76018452Y-101835714D01*
X76066071Y-101788095D01*
X76113690Y-101692857D01*
X76113690Y-101311904D01*
X76589880Y-102835714D02*
X76589880Y-102264285D01*
X76589880Y-102550000D02*
X75589880Y-102550000D01*
X75732738Y-102454761D01*
X75827976Y-102359523D01*
X75875595Y-102264285D01*
%TO.C,Q3*%
X80282738Y-104647619D02*
X80377976Y-104600000D01*
X80473214Y-104504761D01*
X80616071Y-104361904D01*
X80711309Y-104314285D01*
X80806547Y-104314285D01*
X80758928Y-104552380D02*
X80854166Y-104504761D01*
X80949404Y-104409523D01*
X80997023Y-104219047D01*
X80997023Y-103885714D01*
X80949404Y-103695238D01*
X80854166Y-103600000D01*
X80758928Y-103552380D01*
X80568452Y-103552380D01*
X80473214Y-103600000D01*
X80377976Y-103695238D01*
X80330357Y-103885714D01*
X80330357Y-104219047D01*
X80377976Y-104409523D01*
X80473214Y-104504761D01*
X80568452Y-104552380D01*
X80758928Y-104552380D01*
X79997023Y-103552380D02*
X79377976Y-103552380D01*
X79711309Y-103933333D01*
X79568452Y-103933333D01*
X79473214Y-103980952D01*
X79425595Y-104028571D01*
X79377976Y-104123809D01*
X79377976Y-104361904D01*
X79425595Y-104457142D01*
X79473214Y-104504761D01*
X79568452Y-104552380D01*
X79854166Y-104552380D01*
X79949404Y-104504761D01*
X79997023Y-104457142D01*
%TO.C,D1*%
X84475595Y-104732380D02*
X84475595Y-103732380D01*
X84237500Y-103732380D01*
X84094642Y-103780000D01*
X83999404Y-103875238D01*
X83951785Y-103970476D01*
X83904166Y-104160952D01*
X83904166Y-104303809D01*
X83951785Y-104494285D01*
X83999404Y-104589523D01*
X84094642Y-104684761D01*
X84237500Y-104732380D01*
X84475595Y-104732380D01*
X82951785Y-104732380D02*
X83523214Y-104732380D01*
X83237500Y-104732380D02*
X83237500Y-103732380D01*
X83332738Y-103875238D01*
X83427976Y-103970476D01*
X83523214Y-104018095D01*
%TO.C,C1*%
X72750000Y-133033333D02*
X72783333Y-133000000D01*
X72816666Y-132900000D01*
X72816666Y-132833333D01*
X72783333Y-132733333D01*
X72716666Y-132666666D01*
X72650000Y-132633333D01*
X72516666Y-132600000D01*
X72416666Y-132600000D01*
X72283333Y-132633333D01*
X72216666Y-132666666D01*
X72150000Y-132733333D01*
X72116666Y-132833333D01*
X72116666Y-132900000D01*
X72150000Y-133000000D01*
X72183333Y-133033333D01*
X72816666Y-133700000D02*
X72816666Y-133300000D01*
X72816666Y-133500000D02*
X72116666Y-133500000D01*
X72216666Y-133433333D01*
X72283333Y-133366666D01*
X72316666Y-133300000D01*
%TO.C,C2*%
X63100000Y-135483333D02*
X63133333Y-135450000D01*
X63166666Y-135350000D01*
X63166666Y-135283333D01*
X63133333Y-135183333D01*
X63066666Y-135116666D01*
X63000000Y-135083333D01*
X62866666Y-135050000D01*
X62766666Y-135050000D01*
X62633333Y-135083333D01*
X62566666Y-135116666D01*
X62500000Y-135183333D01*
X62466666Y-135283333D01*
X62466666Y-135350000D01*
X62500000Y-135450000D01*
X62533333Y-135483333D01*
X62533333Y-135750000D02*
X62500000Y-135783333D01*
X62466666Y-135850000D01*
X62466666Y-136016666D01*
X62500000Y-136083333D01*
X62533333Y-136116666D01*
X62600000Y-136150000D01*
X62666666Y-136150000D01*
X62766666Y-136116666D01*
X63166666Y-135716666D01*
X63166666Y-136150000D01*
%TO.C,C3*%
X68750000Y-133033333D02*
X68783333Y-133000000D01*
X68816666Y-132900000D01*
X68816666Y-132833333D01*
X68783333Y-132733333D01*
X68716666Y-132666666D01*
X68650000Y-132633333D01*
X68516666Y-132600000D01*
X68416666Y-132600000D01*
X68283333Y-132633333D01*
X68216666Y-132666666D01*
X68150000Y-132733333D01*
X68116666Y-132833333D01*
X68116666Y-132900000D01*
X68150000Y-133000000D01*
X68183333Y-133033333D01*
X68116666Y-133266666D02*
X68116666Y-133700000D01*
X68383333Y-133466666D01*
X68383333Y-133566666D01*
X68416666Y-133633333D01*
X68450000Y-133666666D01*
X68516666Y-133700000D01*
X68683333Y-133700000D01*
X68750000Y-133666666D01*
X68783333Y-133633333D01*
X68816666Y-133566666D01*
X68816666Y-133366666D01*
X68783333Y-133300000D01*
X68750000Y-133266666D01*
%TO.C,C4*%
X64600000Y-135483333D02*
X64633333Y-135450000D01*
X64666666Y-135350000D01*
X64666666Y-135283333D01*
X64633333Y-135183333D01*
X64566666Y-135116666D01*
X64500000Y-135083333D01*
X64366666Y-135050000D01*
X64266666Y-135050000D01*
X64133333Y-135083333D01*
X64066666Y-135116666D01*
X64000000Y-135183333D01*
X63966666Y-135283333D01*
X63966666Y-135350000D01*
X64000000Y-135450000D01*
X64033333Y-135483333D01*
X64200000Y-136083333D02*
X64666666Y-136083333D01*
X63933333Y-135916666D02*
X64433333Y-135750000D01*
X64433333Y-136183333D01*
%TO.C,C5*%
X63550000Y-120783333D02*
X63583333Y-120750000D01*
X63616666Y-120650000D01*
X63616666Y-120583333D01*
X63583333Y-120483333D01*
X63516666Y-120416666D01*
X63450000Y-120383333D01*
X63316666Y-120350000D01*
X63216666Y-120350000D01*
X63083333Y-120383333D01*
X63016666Y-120416666D01*
X62950000Y-120483333D01*
X62916666Y-120583333D01*
X62916666Y-120650000D01*
X62950000Y-120750000D01*
X62983333Y-120783333D01*
X62916666Y-121416666D02*
X62916666Y-121083333D01*
X63250000Y-121050000D01*
X63216666Y-121083333D01*
X63183333Y-121150000D01*
X63183333Y-121316666D01*
X63216666Y-121383333D01*
X63250000Y-121416666D01*
X63316666Y-121450000D01*
X63483333Y-121450000D01*
X63550000Y-121416666D01*
X63583333Y-121383333D01*
X63616666Y-121316666D01*
X63616666Y-121150000D01*
X63583333Y-121083333D01*
X63550000Y-121050000D01*
%TO.C,C6*%
X62050000Y-120783333D02*
X62083333Y-120750000D01*
X62116666Y-120650000D01*
X62116666Y-120583333D01*
X62083333Y-120483333D01*
X62016666Y-120416666D01*
X61950000Y-120383333D01*
X61816666Y-120350000D01*
X61716666Y-120350000D01*
X61583333Y-120383333D01*
X61516666Y-120416666D01*
X61450000Y-120483333D01*
X61416666Y-120583333D01*
X61416666Y-120650000D01*
X61450000Y-120750000D01*
X61483333Y-120783333D01*
X61416666Y-121383333D02*
X61416666Y-121250000D01*
X61450000Y-121183333D01*
X61483333Y-121150000D01*
X61583333Y-121083333D01*
X61716666Y-121050000D01*
X61983333Y-121050000D01*
X62050000Y-121083333D01*
X62083333Y-121116666D01*
X62116666Y-121183333D01*
X62116666Y-121316666D01*
X62083333Y-121383333D01*
X62050000Y-121416666D01*
X61983333Y-121450000D01*
X61816666Y-121450000D01*
X61750000Y-121416666D01*
X61716666Y-121383333D01*
X61683333Y-121316666D01*
X61683333Y-121183333D01*
X61716666Y-121116666D01*
X61750000Y-121083333D01*
X61816666Y-121050000D01*
%TO.C,C7*%
X50366666Y-119850000D02*
X50400000Y-119883333D01*
X50500000Y-119916666D01*
X50566666Y-119916666D01*
X50666666Y-119883333D01*
X50733333Y-119816666D01*
X50766666Y-119750000D01*
X50800000Y-119616666D01*
X50800000Y-119516666D01*
X50766666Y-119383333D01*
X50733333Y-119316666D01*
X50666666Y-119250000D01*
X50566666Y-119216666D01*
X50500000Y-119216666D01*
X50400000Y-119250000D01*
X50366666Y-119283333D01*
X50133333Y-119216666D02*
X49666666Y-119216666D01*
X49966666Y-119916666D01*
%TO.C,C8*%
X53000000Y-107633333D02*
X53033333Y-107600000D01*
X53066666Y-107500000D01*
X53066666Y-107433333D01*
X53033333Y-107333333D01*
X52966666Y-107266666D01*
X52900000Y-107233333D01*
X52766666Y-107200000D01*
X52666666Y-107200000D01*
X52533333Y-107233333D01*
X52466666Y-107266666D01*
X52400000Y-107333333D01*
X52366666Y-107433333D01*
X52366666Y-107500000D01*
X52400000Y-107600000D01*
X52433333Y-107633333D01*
X52666666Y-108033333D02*
X52633333Y-107966666D01*
X52600000Y-107933333D01*
X52533333Y-107900000D01*
X52500000Y-107900000D01*
X52433333Y-107933333D01*
X52400000Y-107966666D01*
X52366666Y-108033333D01*
X52366666Y-108166666D01*
X52400000Y-108233333D01*
X52433333Y-108266666D01*
X52500000Y-108300000D01*
X52533333Y-108300000D01*
X52600000Y-108266666D01*
X52633333Y-108233333D01*
X52666666Y-108166666D01*
X52666666Y-108033333D01*
X52700000Y-107966666D01*
X52733333Y-107933333D01*
X52800000Y-107900000D01*
X52933333Y-107900000D01*
X53000000Y-107933333D01*
X53033333Y-107966666D01*
X53066666Y-108033333D01*
X53066666Y-108166666D01*
X53033333Y-108233333D01*
X53000000Y-108266666D01*
X52933333Y-108300000D01*
X52800000Y-108300000D01*
X52733333Y-108266666D01*
X52700000Y-108233333D01*
X52666666Y-108166666D01*
%TO.C,C9*%
X48750000Y-107633333D02*
X48783333Y-107600000D01*
X48816666Y-107500000D01*
X48816666Y-107433333D01*
X48783333Y-107333333D01*
X48716666Y-107266666D01*
X48650000Y-107233333D01*
X48516666Y-107200000D01*
X48416666Y-107200000D01*
X48283333Y-107233333D01*
X48216666Y-107266666D01*
X48150000Y-107333333D01*
X48116666Y-107433333D01*
X48116666Y-107500000D01*
X48150000Y-107600000D01*
X48183333Y-107633333D01*
X48816666Y-107966666D02*
X48816666Y-108100000D01*
X48783333Y-108166666D01*
X48750000Y-108200000D01*
X48650000Y-108266666D01*
X48516666Y-108300000D01*
X48250000Y-108300000D01*
X48183333Y-108266666D01*
X48150000Y-108233333D01*
X48116666Y-108166666D01*
X48116666Y-108033333D01*
X48150000Y-107966666D01*
X48183333Y-107933333D01*
X48250000Y-107900000D01*
X48416666Y-107900000D01*
X48483333Y-107933333D01*
X48516666Y-107966666D01*
X48550000Y-108033333D01*
X48550000Y-108166666D01*
X48516666Y-108233333D01*
X48483333Y-108266666D01*
X48416666Y-108300000D01*
%TO.C,C10*%
X54000000Y-129300000D02*
X54033333Y-129266666D01*
X54066666Y-129166666D01*
X54066666Y-129100000D01*
X54033333Y-129000000D01*
X53966666Y-128933333D01*
X53900000Y-128900000D01*
X53766666Y-128866666D01*
X53666666Y-128866666D01*
X53533333Y-128900000D01*
X53466666Y-128933333D01*
X53400000Y-129000000D01*
X53366666Y-129100000D01*
X53366666Y-129166666D01*
X53400000Y-129266666D01*
X53433333Y-129300000D01*
X54066666Y-129966666D02*
X54066666Y-129566666D01*
X54066666Y-129766666D02*
X53366666Y-129766666D01*
X53466666Y-129700000D01*
X53533333Y-129633333D01*
X53566666Y-129566666D01*
X53366666Y-130400000D02*
X53366666Y-130466666D01*
X53400000Y-130533333D01*
X53433333Y-130566666D01*
X53500000Y-130600000D01*
X53633333Y-130633333D01*
X53800000Y-130633333D01*
X53933333Y-130600000D01*
X54000000Y-130566666D01*
X54033333Y-130533333D01*
X54066666Y-130466666D01*
X54066666Y-130400000D01*
X54033333Y-130333333D01*
X54000000Y-130300000D01*
X53933333Y-130266666D01*
X53800000Y-130233333D01*
X53633333Y-130233333D01*
X53500000Y-130266666D01*
X53433333Y-130300000D01*
X53400000Y-130333333D01*
X53366666Y-130400000D01*
%TO.C,C11*%
X53050000Y-120150000D02*
X53083333Y-120116666D01*
X53116666Y-120016666D01*
X53116666Y-119950000D01*
X53083333Y-119850000D01*
X53016666Y-119783333D01*
X52950000Y-119750000D01*
X52816666Y-119716666D01*
X52716666Y-119716666D01*
X52583333Y-119750000D01*
X52516666Y-119783333D01*
X52450000Y-119850000D01*
X52416666Y-119950000D01*
X52416666Y-120016666D01*
X52450000Y-120116666D01*
X52483333Y-120150000D01*
X53116666Y-120816666D02*
X53116666Y-120416666D01*
X53116666Y-120616666D02*
X52416666Y-120616666D01*
X52516666Y-120550000D01*
X52583333Y-120483333D01*
X52616666Y-120416666D01*
X53116666Y-121483333D02*
X53116666Y-121083333D01*
X53116666Y-121283333D02*
X52416666Y-121283333D01*
X52516666Y-121216666D01*
X52583333Y-121150000D01*
X52616666Y-121083333D01*
%TO.C,C12*%
X50000000Y-107550000D02*
X50033333Y-107516666D01*
X50066666Y-107416666D01*
X50066666Y-107350000D01*
X50033333Y-107250000D01*
X49966666Y-107183333D01*
X49900000Y-107150000D01*
X49766666Y-107116666D01*
X49666666Y-107116666D01*
X49533333Y-107150000D01*
X49466666Y-107183333D01*
X49400000Y-107250000D01*
X49366666Y-107350000D01*
X49366666Y-107416666D01*
X49400000Y-107516666D01*
X49433333Y-107550000D01*
X50066666Y-108216666D02*
X50066666Y-107816666D01*
X50066666Y-108016666D02*
X49366666Y-108016666D01*
X49466666Y-107950000D01*
X49533333Y-107883333D01*
X49566666Y-107816666D01*
X49433333Y-108483333D02*
X49400000Y-108516666D01*
X49366666Y-108583333D01*
X49366666Y-108750000D01*
X49400000Y-108816666D01*
X49433333Y-108850000D01*
X49500000Y-108883333D01*
X49566666Y-108883333D01*
X49666666Y-108850000D01*
X50066666Y-108450000D01*
X50066666Y-108883333D01*
%TO.C,C13*%
X61250000Y-126550000D02*
X61283333Y-126516666D01*
X61316666Y-126416666D01*
X61316666Y-126350000D01*
X61283333Y-126250000D01*
X61216666Y-126183333D01*
X61150000Y-126150000D01*
X61016666Y-126116666D01*
X60916666Y-126116666D01*
X60783333Y-126150000D01*
X60716666Y-126183333D01*
X60650000Y-126250000D01*
X60616666Y-126350000D01*
X60616666Y-126416666D01*
X60650000Y-126516666D01*
X60683333Y-126550000D01*
X61316666Y-127216666D02*
X61316666Y-126816666D01*
X61316666Y-127016666D02*
X60616666Y-127016666D01*
X60716666Y-126950000D01*
X60783333Y-126883333D01*
X60816666Y-126816666D01*
X60616666Y-127450000D02*
X60616666Y-127883333D01*
X60883333Y-127650000D01*
X60883333Y-127750000D01*
X60916666Y-127816666D01*
X60950000Y-127850000D01*
X61016666Y-127883333D01*
X61183333Y-127883333D01*
X61250000Y-127850000D01*
X61283333Y-127816666D01*
X61316666Y-127750000D01*
X61316666Y-127550000D01*
X61283333Y-127483333D01*
X61250000Y-127450000D01*
%TO.C,C14*%
X60950000Y-117100000D02*
X60983333Y-117066666D01*
X61016666Y-116966666D01*
X61016666Y-116900000D01*
X60983333Y-116800000D01*
X60916666Y-116733333D01*
X60850000Y-116700000D01*
X60716666Y-116666666D01*
X60616666Y-116666666D01*
X60483333Y-116700000D01*
X60416666Y-116733333D01*
X60350000Y-116800000D01*
X60316666Y-116900000D01*
X60316666Y-116966666D01*
X60350000Y-117066666D01*
X60383333Y-117100000D01*
X61016666Y-117766666D02*
X61016666Y-117366666D01*
X61016666Y-117566666D02*
X60316666Y-117566666D01*
X60416666Y-117500000D01*
X60483333Y-117433333D01*
X60516666Y-117366666D01*
X60550000Y-118366666D02*
X61016666Y-118366666D01*
X60283333Y-118200000D02*
X60783333Y-118033333D01*
X60783333Y-118466666D01*
%TO.C,D2*%
X45116666Y-107983333D02*
X44416666Y-107983333D01*
X44416666Y-108150000D01*
X44450000Y-108250000D01*
X44516666Y-108316666D01*
X44583333Y-108350000D01*
X44716666Y-108383333D01*
X44816666Y-108383333D01*
X44950000Y-108350000D01*
X45016666Y-108316666D01*
X45083333Y-108250000D01*
X45116666Y-108150000D01*
X45116666Y-107983333D01*
X44483333Y-108650000D02*
X44450000Y-108683333D01*
X44416666Y-108750000D01*
X44416666Y-108916666D01*
X44450000Y-108983333D01*
X44483333Y-109016666D01*
X44550000Y-109050000D01*
X44616666Y-109050000D01*
X44716666Y-109016666D01*
X45116666Y-108616666D01*
X45116666Y-109050000D01*
%TO.C,FB1*%
X61280000Y-129216666D02*
X61280000Y-128983333D01*
X61646666Y-128983333D02*
X60946666Y-128983333D01*
X60946666Y-129316666D01*
X61280000Y-129816666D02*
X61313333Y-129916666D01*
X61346666Y-129950000D01*
X61413333Y-129983333D01*
X61513333Y-129983333D01*
X61580000Y-129950000D01*
X61613333Y-129916666D01*
X61646666Y-129850000D01*
X61646666Y-129583333D01*
X60946666Y-129583333D01*
X60946666Y-129816666D01*
X60980000Y-129883333D01*
X61013333Y-129916666D01*
X61080000Y-129950000D01*
X61146666Y-129950000D01*
X61213333Y-129916666D01*
X61246666Y-129883333D01*
X61280000Y-129816666D01*
X61280000Y-129583333D01*
X61646666Y-130650000D02*
X61646666Y-130250000D01*
X61646666Y-130450000D02*
X60946666Y-130450000D01*
X61046666Y-130383333D01*
X61113333Y-130316666D01*
X61146666Y-130250000D01*
%TO.C,JP1*%
X76416666Y-126416666D02*
X76916666Y-126416666D01*
X77016666Y-126383333D01*
X77083333Y-126316666D01*
X77116666Y-126216666D01*
X77116666Y-126150000D01*
X77116666Y-126750000D02*
X76416666Y-126750000D01*
X76416666Y-127016666D01*
X76450000Y-127083333D01*
X76483333Y-127116666D01*
X76550000Y-127150000D01*
X76650000Y-127150000D01*
X76716666Y-127116666D01*
X76750000Y-127083333D01*
X76783333Y-127016666D01*
X76783333Y-126750000D01*
X77116666Y-127816666D02*
X77116666Y-127416666D01*
X77116666Y-127616666D02*
X76416666Y-127616666D01*
X76516666Y-127550000D01*
X76583333Y-127483333D01*
X76616666Y-127416666D01*
%TO.C,L1*%
X45316666Y-115283333D02*
X45316666Y-114950000D01*
X44616666Y-114950000D01*
X45316666Y-115883333D02*
X45316666Y-115483333D01*
X45316666Y-115683333D02*
X44616666Y-115683333D01*
X44716666Y-115616666D01*
X44783333Y-115550000D01*
X44816666Y-115483333D01*
%TO.C,R2*%
X51916666Y-119383333D02*
X51583333Y-119150000D01*
X51916666Y-118983333D02*
X51216666Y-118983333D01*
X51216666Y-119250000D01*
X51250000Y-119316666D01*
X51283333Y-119350000D01*
X51350000Y-119383333D01*
X51450000Y-119383333D01*
X51516666Y-119350000D01*
X51550000Y-119316666D01*
X51583333Y-119250000D01*
X51583333Y-118983333D01*
X51283333Y-119650000D02*
X51250000Y-119683333D01*
X51216666Y-119750000D01*
X51216666Y-119916666D01*
X51250000Y-119983333D01*
X51283333Y-120016666D01*
X51350000Y-120050000D01*
X51416666Y-120050000D01*
X51516666Y-120016666D01*
X51916666Y-119616666D01*
X51916666Y-120050000D01*
%TO.C,R3*%
X51816666Y-107633333D02*
X51483333Y-107400000D01*
X51816666Y-107233333D02*
X51116666Y-107233333D01*
X51116666Y-107500000D01*
X51150000Y-107566666D01*
X51183333Y-107600000D01*
X51250000Y-107633333D01*
X51350000Y-107633333D01*
X51416666Y-107600000D01*
X51450000Y-107566666D01*
X51483333Y-107500000D01*
X51483333Y-107233333D01*
X51116666Y-107866666D02*
X51116666Y-108300000D01*
X51383333Y-108066666D01*
X51383333Y-108166666D01*
X51416666Y-108233333D01*
X51450000Y-108266666D01*
X51516666Y-108300000D01*
X51683333Y-108300000D01*
X51750000Y-108266666D01*
X51783333Y-108233333D01*
X51816666Y-108166666D01*
X51816666Y-107966666D01*
X51783333Y-107900000D01*
X51750000Y-107866666D01*
%TO.C,R4*%
X51316666Y-112883333D02*
X50983333Y-112650000D01*
X51316666Y-112483333D02*
X50616666Y-112483333D01*
X50616666Y-112750000D01*
X50650000Y-112816666D01*
X50683333Y-112850000D01*
X50750000Y-112883333D01*
X50850000Y-112883333D01*
X50916666Y-112850000D01*
X50950000Y-112816666D01*
X50983333Y-112750000D01*
X50983333Y-112483333D01*
X50850000Y-113483333D02*
X51316666Y-113483333D01*
X50583333Y-113316666D02*
X51083333Y-113150000D01*
X51083333Y-113583333D01*
%TO.C,R5*%
X56416666Y-131296666D02*
X56650000Y-130963333D01*
X56816666Y-131296666D02*
X56816666Y-130596666D01*
X56550000Y-130596666D01*
X56483333Y-130630000D01*
X56450000Y-130663333D01*
X56416666Y-130730000D01*
X56416666Y-130830000D01*
X56450000Y-130896666D01*
X56483333Y-130930000D01*
X56550000Y-130963333D01*
X56816666Y-130963333D01*
X55783333Y-130596666D02*
X56116666Y-130596666D01*
X56150000Y-130930000D01*
X56116666Y-130896666D01*
X56050000Y-130863333D01*
X55883333Y-130863333D01*
X55816666Y-130896666D01*
X55783333Y-130930000D01*
X55750000Y-130996666D01*
X55750000Y-131163333D01*
X55783333Y-131230000D01*
X55816666Y-131263333D01*
X55883333Y-131296666D01*
X56050000Y-131296666D01*
X56116666Y-131263333D01*
X56150000Y-131230000D01*
%TO.C,R6*%
X56616666Y-124896666D02*
X56850000Y-124563333D01*
X57016666Y-124896666D02*
X57016666Y-124196666D01*
X56750000Y-124196666D01*
X56683333Y-124230000D01*
X56650000Y-124263333D01*
X56616666Y-124330000D01*
X56616666Y-124430000D01*
X56650000Y-124496666D01*
X56683333Y-124530000D01*
X56750000Y-124563333D01*
X57016666Y-124563333D01*
X56016666Y-124196666D02*
X56150000Y-124196666D01*
X56216666Y-124230000D01*
X56250000Y-124263333D01*
X56316666Y-124363333D01*
X56350000Y-124496666D01*
X56350000Y-124763333D01*
X56316666Y-124830000D01*
X56283333Y-124863333D01*
X56216666Y-124896666D01*
X56083333Y-124896666D01*
X56016666Y-124863333D01*
X55983333Y-124830000D01*
X55950000Y-124763333D01*
X55950000Y-124596666D01*
X55983333Y-124530000D01*
X56016666Y-124496666D01*
X56083333Y-124463333D01*
X56216666Y-124463333D01*
X56283333Y-124496666D01*
X56316666Y-124530000D01*
X56350000Y-124596666D01*
%TO.C,U2*%
X59283333Y-124366666D02*
X59283333Y-124933333D01*
X59250000Y-125000000D01*
X59216666Y-125033333D01*
X59150000Y-125066666D01*
X59016666Y-125066666D01*
X58950000Y-125033333D01*
X58916666Y-125000000D01*
X58883333Y-124933333D01*
X58883333Y-124366666D01*
X58583333Y-124433333D02*
X58550000Y-124400000D01*
X58483333Y-124366666D01*
X58316666Y-124366666D01*
X58250000Y-124400000D01*
X58216666Y-124433333D01*
X58183333Y-124500000D01*
X58183333Y-124566666D01*
X58216666Y-124666666D01*
X58616666Y-125066666D01*
X58183333Y-125066666D01*
%TO.C,U3*%
X55533333Y-118366666D02*
X55533333Y-118933333D01*
X55500000Y-119000000D01*
X55466666Y-119033333D01*
X55400000Y-119066666D01*
X55266666Y-119066666D01*
X55200000Y-119033333D01*
X55166666Y-119000000D01*
X55133333Y-118933333D01*
X55133333Y-118366666D01*
X54866666Y-118366666D02*
X54433333Y-118366666D01*
X54666666Y-118633333D01*
X54566666Y-118633333D01*
X54500000Y-118666666D01*
X54466666Y-118700000D01*
X54433333Y-118766666D01*
X54433333Y-118933333D01*
X54466666Y-119000000D01*
X54500000Y-119033333D01*
X54566666Y-119066666D01*
X54766666Y-119066666D01*
X54833333Y-119033333D01*
X54866666Y-119000000D01*
%TO.C,D3*%
X48216666Y-124866666D02*
X48216666Y-124166666D01*
X48050000Y-124166666D01*
X47950000Y-124200000D01*
X47883333Y-124266666D01*
X47850000Y-124333333D01*
X47816666Y-124466666D01*
X47816666Y-124566666D01*
X47850000Y-124700000D01*
X47883333Y-124766666D01*
X47950000Y-124833333D01*
X48050000Y-124866666D01*
X48216666Y-124866666D01*
X47583333Y-124166666D02*
X47150000Y-124166666D01*
X47383333Y-124433333D01*
X47283333Y-124433333D01*
X47216666Y-124466666D01*
X47183333Y-124500000D01*
X47150000Y-124566666D01*
X47150000Y-124733333D01*
X47183333Y-124800000D01*
X47216666Y-124833333D01*
X47283333Y-124866666D01*
X47483333Y-124866666D01*
X47550000Y-124833333D01*
X47583333Y-124800000D01*
%TO.C,R11*%
X48850000Y-120116666D02*
X49083333Y-119783333D01*
X49250000Y-120116666D02*
X49250000Y-119416666D01*
X48983333Y-119416666D01*
X48916666Y-119450000D01*
X48883333Y-119483333D01*
X48850000Y-119550000D01*
X48850000Y-119650000D01*
X48883333Y-119716666D01*
X48916666Y-119750000D01*
X48983333Y-119783333D01*
X49250000Y-119783333D01*
X48183333Y-120116666D02*
X48583333Y-120116666D01*
X48383333Y-120116666D02*
X48383333Y-119416666D01*
X48450000Y-119516666D01*
X48516666Y-119583333D01*
X48583333Y-119616666D01*
X47516666Y-120116666D02*
X47916666Y-120116666D01*
X47716666Y-120116666D02*
X47716666Y-119416666D01*
X47783333Y-119516666D01*
X47850000Y-119583333D01*
X47916666Y-119616666D01*
%TO.C,U1*%
X47616666Y-112466666D02*
X48183333Y-112466666D01*
X48250000Y-112500000D01*
X48283333Y-112533333D01*
X48316666Y-112600000D01*
X48316666Y-112733333D01*
X48283333Y-112800000D01*
X48250000Y-112833333D01*
X48183333Y-112866666D01*
X47616666Y-112866666D01*
X48316666Y-113566666D02*
X48316666Y-113166666D01*
X48316666Y-113366666D02*
X47616666Y-113366666D01*
X47716666Y-113300000D01*
X47783333Y-113233333D01*
X47816666Y-113166666D01*
%TO.C,U4*%
X53866666Y-107216666D02*
X54433333Y-107216666D01*
X54500000Y-107250000D01*
X54533333Y-107283333D01*
X54566666Y-107350000D01*
X54566666Y-107483333D01*
X54533333Y-107550000D01*
X54500000Y-107583333D01*
X54433333Y-107616666D01*
X53866666Y-107616666D01*
X54100000Y-108250000D02*
X54566666Y-108250000D01*
X53833333Y-108083333D02*
X54333333Y-107916666D01*
X54333333Y-108350000D01*
%TO.C,R8*%
X59816666Y-112633333D02*
X59483333Y-112400000D01*
X59816666Y-112233333D02*
X59116666Y-112233333D01*
X59116666Y-112500000D01*
X59150000Y-112566666D01*
X59183333Y-112600000D01*
X59250000Y-112633333D01*
X59350000Y-112633333D01*
X59416666Y-112600000D01*
X59450000Y-112566666D01*
X59483333Y-112500000D01*
X59483333Y-112233333D01*
X59416666Y-113033333D02*
X59383333Y-112966666D01*
X59350000Y-112933333D01*
X59283333Y-112900000D01*
X59250000Y-112900000D01*
X59183333Y-112933333D01*
X59150000Y-112966666D01*
X59116666Y-113033333D01*
X59116666Y-113166666D01*
X59150000Y-113233333D01*
X59183333Y-113266666D01*
X59250000Y-113300000D01*
X59283333Y-113300000D01*
X59350000Y-113266666D01*
X59383333Y-113233333D01*
X59416666Y-113166666D01*
X59416666Y-113033333D01*
X59450000Y-112966666D01*
X59483333Y-112933333D01*
X59550000Y-112900000D01*
X59683333Y-112900000D01*
X59750000Y-112933333D01*
X59783333Y-112966666D01*
X59816666Y-113033333D01*
X59816666Y-113166666D01*
X59783333Y-113233333D01*
X59750000Y-113266666D01*
X59683333Y-113300000D01*
X59550000Y-113300000D01*
X59483333Y-113266666D01*
X59450000Y-113233333D01*
X59416666Y-113166666D01*
%TO.C,Q1*%
X64066666Y-114133333D02*
X64133333Y-114100000D01*
X64200000Y-114033333D01*
X64300000Y-113933333D01*
X64366666Y-113900000D01*
X64433333Y-113900000D01*
X64400000Y-114066666D02*
X64466666Y-114033333D01*
X64533333Y-113966666D01*
X64566666Y-113833333D01*
X64566666Y-113600000D01*
X64533333Y-113466666D01*
X64466666Y-113400000D01*
X64400000Y-113366666D01*
X64266666Y-113366666D01*
X64200000Y-113400000D01*
X64133333Y-113466666D01*
X64100000Y-113600000D01*
X64100000Y-113833333D01*
X64133333Y-113966666D01*
X64200000Y-114033333D01*
X64266666Y-114066666D01*
X64400000Y-114066666D01*
X63433333Y-114066666D02*
X63833333Y-114066666D01*
X63633333Y-114066666D02*
X63633333Y-113366666D01*
X63700000Y-113466666D01*
X63766666Y-113533333D01*
X63833333Y-113566666D01*
%TO.C,R7*%
X64616666Y-112566666D02*
X64850000Y-112233333D01*
X65016666Y-112566666D02*
X65016666Y-111866666D01*
X64750000Y-111866666D01*
X64683333Y-111900000D01*
X64650000Y-111933333D01*
X64616666Y-112000000D01*
X64616666Y-112100000D01*
X64650000Y-112166666D01*
X64683333Y-112200000D01*
X64750000Y-112233333D01*
X65016666Y-112233333D01*
X64383333Y-111866666D02*
X63916666Y-111866666D01*
X64216666Y-112566666D01*
%TO.C,R10*%
X59066666Y-117050000D02*
X58733333Y-116816666D01*
X59066666Y-116650000D02*
X58366666Y-116650000D01*
X58366666Y-116916666D01*
X58400000Y-116983333D01*
X58433333Y-117016666D01*
X58500000Y-117050000D01*
X58600000Y-117050000D01*
X58666666Y-117016666D01*
X58700000Y-116983333D01*
X58733333Y-116916666D01*
X58733333Y-116650000D01*
X59066666Y-117716666D02*
X59066666Y-117316666D01*
X59066666Y-117516666D02*
X58366666Y-117516666D01*
X58466666Y-117450000D01*
X58533333Y-117383333D01*
X58566666Y-117316666D01*
X58366666Y-118150000D02*
X58366666Y-118216666D01*
X58400000Y-118283333D01*
X58433333Y-118316666D01*
X58500000Y-118350000D01*
X58633333Y-118383333D01*
X58800000Y-118383333D01*
X58933333Y-118350000D01*
X59000000Y-118316666D01*
X59033333Y-118283333D01*
X59066666Y-118216666D01*
X59066666Y-118150000D01*
X59033333Y-118083333D01*
X59000000Y-118050000D01*
X58933333Y-118016666D01*
X58800000Y-117983333D01*
X58633333Y-117983333D01*
X58500000Y-118016666D01*
X58433333Y-118050000D01*
X58400000Y-118083333D01*
X58366666Y-118150000D01*
%TO.C,R9*%
X59916666Y-110483333D02*
X59583333Y-110250000D01*
X59916666Y-110083333D02*
X59216666Y-110083333D01*
X59216666Y-110350000D01*
X59250000Y-110416666D01*
X59283333Y-110450000D01*
X59350000Y-110483333D01*
X59450000Y-110483333D01*
X59516666Y-110450000D01*
X59550000Y-110416666D01*
X59583333Y-110350000D01*
X59583333Y-110083333D01*
X59916666Y-110816666D02*
X59916666Y-110950000D01*
X59883333Y-111016666D01*
X59850000Y-111050000D01*
X59750000Y-111116666D01*
X59616666Y-111150000D01*
X59350000Y-111150000D01*
X59283333Y-111116666D01*
X59250000Y-111083333D01*
X59216666Y-111016666D01*
X59216666Y-110883333D01*
X59250000Y-110816666D01*
X59283333Y-110783333D01*
X59350000Y-110750000D01*
X59516666Y-110750000D01*
X59583333Y-110783333D01*
X59616666Y-110816666D01*
X59650000Y-110883333D01*
X59650000Y-111016666D01*
X59616666Y-111083333D01*
X59583333Y-111116666D01*
X59516666Y-111150000D01*
%TO.C,FB3*%
X53450000Y-116154166D02*
X53450000Y-115920833D01*
X53816666Y-115920833D02*
X53116666Y-115920833D01*
X53116666Y-116254166D01*
X53450000Y-116754166D02*
X53483333Y-116854166D01*
X53516666Y-116887500D01*
X53583333Y-116920833D01*
X53683333Y-116920833D01*
X53750000Y-116887500D01*
X53783333Y-116854166D01*
X53816666Y-116787500D01*
X53816666Y-116520833D01*
X53116666Y-116520833D01*
X53116666Y-116754166D01*
X53150000Y-116820833D01*
X53183333Y-116854166D01*
X53250000Y-116887500D01*
X53316666Y-116887500D01*
X53383333Y-116854166D01*
X53416666Y-116820833D01*
X53450000Y-116754166D01*
X53450000Y-116520833D01*
X53116666Y-117154166D02*
X53116666Y-117587500D01*
X53383333Y-117354166D01*
X53383333Y-117454166D01*
X53416666Y-117520833D01*
X53450000Y-117554166D01*
X53516666Y-117587500D01*
X53683333Y-117587500D01*
X53750000Y-117554166D01*
X53783333Y-117520833D01*
X53816666Y-117454166D01*
X53816666Y-117254166D01*
X53783333Y-117187500D01*
X53750000Y-117154166D01*
%TO.C,C15*%
X58000000Y-117050000D02*
X58033333Y-117016666D01*
X58066666Y-116916666D01*
X58066666Y-116850000D01*
X58033333Y-116750000D01*
X57966666Y-116683333D01*
X57900000Y-116650000D01*
X57766666Y-116616666D01*
X57666666Y-116616666D01*
X57533333Y-116650000D01*
X57466666Y-116683333D01*
X57400000Y-116750000D01*
X57366666Y-116850000D01*
X57366666Y-116916666D01*
X57400000Y-117016666D01*
X57433333Y-117050000D01*
X58066666Y-117716666D02*
X58066666Y-117316666D01*
X58066666Y-117516666D02*
X57366666Y-117516666D01*
X57466666Y-117450000D01*
X57533333Y-117383333D01*
X57566666Y-117316666D01*
X57366666Y-118350000D02*
X57366666Y-118016666D01*
X57700000Y-117983333D01*
X57666666Y-118016666D01*
X57633333Y-118083333D01*
X57633333Y-118250000D01*
X57666666Y-118316666D01*
X57700000Y-118350000D01*
X57766666Y-118383333D01*
X57933333Y-118383333D01*
X58000000Y-118350000D01*
X58033333Y-118316666D01*
X58066666Y-118250000D01*
X58066666Y-118083333D01*
X58033333Y-118016666D01*
X58000000Y-117983333D01*
%TO.C,FB2*%
X58750000Y-122666666D02*
X58750000Y-122433333D01*
X59116666Y-122433333D02*
X58416666Y-122433333D01*
X58416666Y-122766666D01*
X58750000Y-123266666D02*
X58783333Y-123366666D01*
X58816666Y-123400000D01*
X58883333Y-123433333D01*
X58983333Y-123433333D01*
X59050000Y-123400000D01*
X59083333Y-123366666D01*
X59116666Y-123300000D01*
X59116666Y-123033333D01*
X58416666Y-123033333D01*
X58416666Y-123266666D01*
X58450000Y-123333333D01*
X58483333Y-123366666D01*
X58550000Y-123400000D01*
X58616666Y-123400000D01*
X58683333Y-123366666D01*
X58716666Y-123333333D01*
X58750000Y-123266666D01*
X58750000Y-123033333D01*
X58483333Y-123700000D02*
X58450000Y-123733333D01*
X58416666Y-123800000D01*
X58416666Y-123966666D01*
X58450000Y-124033333D01*
X58483333Y-124066666D01*
X58550000Y-124100000D01*
X58616666Y-124100000D01*
X58716666Y-124066666D01*
X59116666Y-123666666D01*
X59116666Y-124100000D01*
%TO.C,D4*%
X52966666Y-104266666D02*
X52966666Y-103566666D01*
X52800000Y-103566666D01*
X52700000Y-103600000D01*
X52633333Y-103666666D01*
X52600000Y-103733333D01*
X52566666Y-103866666D01*
X52566666Y-103966666D01*
X52600000Y-104100000D01*
X52633333Y-104166666D01*
X52700000Y-104233333D01*
X52800000Y-104266666D01*
X52966666Y-104266666D01*
X51966666Y-103800000D02*
X51966666Y-104266666D01*
X52133333Y-103533333D02*
X52300000Y-104033333D01*
X51866666Y-104033333D01*
%TO.C,FB4*%
X56400000Y-105166666D02*
X56400000Y-104933333D01*
X56766666Y-104933333D02*
X56066666Y-104933333D01*
X56066666Y-105266666D01*
X56400000Y-105766666D02*
X56433333Y-105866666D01*
X56466666Y-105900000D01*
X56533333Y-105933333D01*
X56633333Y-105933333D01*
X56700000Y-105900000D01*
X56733333Y-105866666D01*
X56766666Y-105800000D01*
X56766666Y-105533333D01*
X56066666Y-105533333D01*
X56066666Y-105766666D01*
X56100000Y-105833333D01*
X56133333Y-105866666D01*
X56200000Y-105900000D01*
X56266666Y-105900000D01*
X56333333Y-105866666D01*
X56366666Y-105833333D01*
X56400000Y-105766666D01*
X56400000Y-105533333D01*
X56300000Y-106533333D02*
X56766666Y-106533333D01*
X56033333Y-106366666D02*
X56533333Y-106200000D01*
X56533333Y-106633333D01*
%TO.C,Q2*%
X50883333Y-100133333D02*
X50850000Y-100066666D01*
X50783333Y-100000000D01*
X50683333Y-99900000D01*
X50650000Y-99833333D01*
X50650000Y-99766666D01*
X50816666Y-99800000D02*
X50783333Y-99733333D01*
X50716666Y-99666666D01*
X50583333Y-99633333D01*
X50350000Y-99633333D01*
X50216666Y-99666666D01*
X50150000Y-99733333D01*
X50116666Y-99800000D01*
X50116666Y-99933333D01*
X50150000Y-100000000D01*
X50216666Y-100066666D01*
X50350000Y-100100000D01*
X50583333Y-100100000D01*
X50716666Y-100066666D01*
X50783333Y-100000000D01*
X50816666Y-99933333D01*
X50816666Y-99800000D01*
X50183333Y-100366666D02*
X50150000Y-100400000D01*
X50116666Y-100466666D01*
X50116666Y-100633333D01*
X50150000Y-100700000D01*
X50183333Y-100733333D01*
X50250000Y-100766666D01*
X50316666Y-100766666D01*
X50416666Y-100733333D01*
X50816666Y-100333333D01*
X50816666Y-100766666D01*
%TO.C,R12*%
X48216666Y-96650000D02*
X47883333Y-96416666D01*
X48216666Y-96250000D02*
X47516666Y-96250000D01*
X47516666Y-96516666D01*
X47550000Y-96583333D01*
X47583333Y-96616666D01*
X47650000Y-96650000D01*
X47750000Y-96650000D01*
X47816666Y-96616666D01*
X47850000Y-96583333D01*
X47883333Y-96516666D01*
X47883333Y-96250000D01*
X48216666Y-97316666D02*
X48216666Y-96916666D01*
X48216666Y-97116666D02*
X47516666Y-97116666D01*
X47616666Y-97050000D01*
X47683333Y-96983333D01*
X47716666Y-96916666D01*
X47583333Y-97583333D02*
X47550000Y-97616666D01*
X47516666Y-97683333D01*
X47516666Y-97850000D01*
X47550000Y-97916666D01*
X47583333Y-97950000D01*
X47650000Y-97983333D01*
X47716666Y-97983333D01*
X47816666Y-97950000D01*
X48216666Y-97550000D01*
X48216666Y-97983333D01*
%TO.C,J5*%
X53233333Y-94616666D02*
X53233333Y-95116666D01*
X53266666Y-95216666D01*
X53333333Y-95283333D01*
X53433333Y-95316666D01*
X53500000Y-95316666D01*
X52566666Y-94616666D02*
X52900000Y-94616666D01*
X52933333Y-94950000D01*
X52900000Y-94916666D01*
X52833333Y-94883333D01*
X52666666Y-94883333D01*
X52600000Y-94916666D01*
X52566666Y-94950000D01*
X52533333Y-95016666D01*
X52533333Y-95183333D01*
X52566666Y-95250000D01*
X52600000Y-95283333D01*
X52666666Y-95316666D01*
X52833333Y-95316666D01*
X52900000Y-95283333D01*
X52933333Y-95250000D01*
%TO.C,TP1_5V1*%
X44416666Y-116483333D02*
X44416666Y-116883333D01*
X45116666Y-116683333D02*
X44416666Y-116683333D01*
X45116666Y-117116666D02*
X44416666Y-117116666D01*
X44416666Y-117383333D01*
X44450000Y-117450000D01*
X44483333Y-117483333D01*
X44550000Y-117516666D01*
X44650000Y-117516666D01*
X44716666Y-117483333D01*
X44750000Y-117450000D01*
X44783333Y-117383333D01*
X44783333Y-117116666D01*
X45116666Y-118183333D02*
X45116666Y-117783333D01*
X45116666Y-117983333D02*
X44416666Y-117983333D01*
X44516666Y-117916666D01*
X44583333Y-117850000D01*
X44616666Y-117783333D01*
X45183333Y-118316666D02*
X45183333Y-118850000D01*
X44416666Y-119350000D02*
X44416666Y-119016666D01*
X44750000Y-118983333D01*
X44716666Y-119016666D01*
X44683333Y-119083333D01*
X44683333Y-119250000D01*
X44716666Y-119316666D01*
X44750000Y-119350000D01*
X44816666Y-119383333D01*
X44983333Y-119383333D01*
X45050000Y-119350000D01*
X45083333Y-119316666D01*
X45116666Y-119250000D01*
X45116666Y-119083333D01*
X45083333Y-119016666D01*
X45050000Y-118983333D01*
X44416666Y-119583333D02*
X45116666Y-119816666D01*
X44416666Y-120050000D01*
X45116666Y-120650000D02*
X45116666Y-120250000D01*
X45116666Y-120450000D02*
X44416666Y-120450000D01*
X44516666Y-120383333D01*
X44583333Y-120316666D01*
X44616666Y-120250000D01*
%TO.C,TP2_12V1*%
X49650000Y-105416666D02*
X49250000Y-105416666D01*
X49450000Y-106116666D02*
X49450000Y-105416666D01*
X49016666Y-106116666D02*
X49016666Y-105416666D01*
X48750000Y-105416666D01*
X48683333Y-105450000D01*
X48650000Y-105483333D01*
X48616666Y-105550000D01*
X48616666Y-105650000D01*
X48650000Y-105716666D01*
X48683333Y-105750000D01*
X48750000Y-105783333D01*
X49016666Y-105783333D01*
X48350000Y-105483333D02*
X48316666Y-105450000D01*
X48250000Y-105416666D01*
X48083333Y-105416666D01*
X48016666Y-105450000D01*
X47983333Y-105483333D01*
X47950000Y-105550000D01*
X47950000Y-105616666D01*
X47983333Y-105716666D01*
X48383333Y-106116666D01*
X47950000Y-106116666D01*
X47816666Y-106183333D02*
X47283333Y-106183333D01*
X46750000Y-106116666D02*
X47150000Y-106116666D01*
X46950000Y-106116666D02*
X46950000Y-105416666D01*
X47016666Y-105516666D01*
X47083333Y-105583333D01*
X47150000Y-105616666D01*
X46483333Y-105483333D02*
X46450000Y-105450000D01*
X46383333Y-105416666D01*
X46216666Y-105416666D01*
X46150000Y-105450000D01*
X46116666Y-105483333D01*
X46083333Y-105550000D01*
X46083333Y-105616666D01*
X46116666Y-105716666D01*
X46516666Y-106116666D01*
X46083333Y-106116666D01*
X45883333Y-105416666D02*
X45650000Y-106116666D01*
X45416666Y-105416666D01*
X44816666Y-106116666D02*
X45216666Y-106116666D01*
X45016666Y-106116666D02*
X45016666Y-105416666D01*
X45083333Y-105516666D01*
X45150000Y-105583333D01*
X45216666Y-105616666D01*
%TO.C,TP3_3V3*%
X61516666Y-134016666D02*
X61116666Y-134016666D01*
X61316666Y-134716666D02*
X61316666Y-134016666D01*
X60883333Y-134716666D02*
X60883333Y-134016666D01*
X60616666Y-134016666D01*
X60550000Y-134050000D01*
X60516666Y-134083333D01*
X60483333Y-134150000D01*
X60483333Y-134250000D01*
X60516666Y-134316666D01*
X60550000Y-134350000D01*
X60616666Y-134383333D01*
X60883333Y-134383333D01*
X60250000Y-134016666D02*
X59816666Y-134016666D01*
X60050000Y-134283333D01*
X59950000Y-134283333D01*
X59883333Y-134316666D01*
X59850000Y-134350000D01*
X59816666Y-134416666D01*
X59816666Y-134583333D01*
X59850000Y-134650000D01*
X59883333Y-134683333D01*
X59950000Y-134716666D01*
X60150000Y-134716666D01*
X60216666Y-134683333D01*
X60250000Y-134650000D01*
X59683333Y-134783333D02*
X59150000Y-134783333D01*
X59050000Y-134016666D02*
X58616666Y-134016666D01*
X58850000Y-134283333D01*
X58750000Y-134283333D01*
X58683333Y-134316666D01*
X58650000Y-134350000D01*
X58616666Y-134416666D01*
X58616666Y-134583333D01*
X58650000Y-134650000D01*
X58683333Y-134683333D01*
X58750000Y-134716666D01*
X58950000Y-134716666D01*
X59016666Y-134683333D01*
X59050000Y-134650000D01*
X58416666Y-134016666D02*
X58183333Y-134716666D01*
X57950000Y-134016666D01*
X57783333Y-134016666D02*
X57350000Y-134016666D01*
X57583333Y-134283333D01*
X57483333Y-134283333D01*
X57416666Y-134316666D01*
X57383333Y-134350000D01*
X57350000Y-134416666D01*
X57350000Y-134583333D01*
X57383333Y-134650000D01*
X57416666Y-134683333D01*
X57483333Y-134716666D01*
X57683333Y-134716666D01*
X57750000Y-134683333D01*
X57783333Y-134650000D01*
%TO.C,TP4_2V5*%
X66116666Y-127714666D02*
X65716666Y-127714666D01*
X65916666Y-128414666D02*
X65916666Y-127714666D01*
X65483333Y-128414666D02*
X65483333Y-127714666D01*
X65216666Y-127714666D01*
X65150000Y-127748000D01*
X65116666Y-127781333D01*
X65083333Y-127848000D01*
X65083333Y-127948000D01*
X65116666Y-128014666D01*
X65150000Y-128048000D01*
X65216666Y-128081333D01*
X65483333Y-128081333D01*
X64483333Y-127948000D02*
X64483333Y-128414666D01*
X64650000Y-127681333D02*
X64816666Y-128181333D01*
X64383333Y-128181333D01*
X64283333Y-128481333D02*
X63750000Y-128481333D01*
X63616666Y-127781333D02*
X63583333Y-127748000D01*
X63516666Y-127714666D01*
X63350000Y-127714666D01*
X63283333Y-127748000D01*
X63250000Y-127781333D01*
X63216666Y-127848000D01*
X63216666Y-127914666D01*
X63250000Y-128014666D01*
X63650000Y-128414666D01*
X63216666Y-128414666D01*
X63016666Y-127714666D02*
X62783333Y-128414666D01*
X62550000Y-127714666D01*
X61983333Y-127714666D02*
X62316666Y-127714666D01*
X62350000Y-128048000D01*
X62316666Y-128014666D01*
X62250000Y-127981333D01*
X62083333Y-127981333D01*
X62016666Y-128014666D01*
X61983333Y-128048000D01*
X61950000Y-128114666D01*
X61950000Y-128281333D01*
X61983333Y-128348000D01*
X62016666Y-128381333D01*
X62083333Y-128414666D01*
X62250000Y-128414666D01*
X62316666Y-128381333D01*
X62350000Y-128348000D01*
%TO.C,TP5_VBIAS1*%
X68533333Y-115816666D02*
X68133333Y-115816666D01*
X68333333Y-116516666D02*
X68333333Y-115816666D01*
X67900000Y-116516666D02*
X67900000Y-115816666D01*
X67633333Y-115816666D01*
X67566666Y-115850000D01*
X67533333Y-115883333D01*
X67500000Y-115950000D01*
X67500000Y-116050000D01*
X67533333Y-116116666D01*
X67566666Y-116150000D01*
X67633333Y-116183333D01*
X67900000Y-116183333D01*
X66866666Y-115816666D02*
X67200000Y-115816666D01*
X67233333Y-116150000D01*
X67200000Y-116116666D01*
X67133333Y-116083333D01*
X66966666Y-116083333D01*
X66900000Y-116116666D01*
X66866666Y-116150000D01*
X66833333Y-116216666D01*
X66833333Y-116383333D01*
X66866666Y-116450000D01*
X66900000Y-116483333D01*
X66966666Y-116516666D01*
X67133333Y-116516666D01*
X67200000Y-116483333D01*
X67233333Y-116450000D01*
X66700000Y-116583333D02*
X66166666Y-116583333D01*
X66100000Y-115816666D02*
X65866666Y-116516666D01*
X65633333Y-115816666D01*
X65166666Y-116150000D02*
X65066666Y-116183333D01*
X65033333Y-116216666D01*
X65000000Y-116283333D01*
X65000000Y-116383333D01*
X65033333Y-116450000D01*
X65066666Y-116483333D01*
X65133333Y-116516666D01*
X65400000Y-116516666D01*
X65400000Y-115816666D01*
X65166666Y-115816666D01*
X65100000Y-115850000D01*
X65066666Y-115883333D01*
X65033333Y-115950000D01*
X65033333Y-116016666D01*
X65066666Y-116083333D01*
X65100000Y-116116666D01*
X65166666Y-116150000D01*
X65400000Y-116150000D01*
X64700000Y-116516666D02*
X64700000Y-115816666D01*
X64400000Y-116316666D02*
X64066666Y-116316666D01*
X64466666Y-116516666D02*
X64233333Y-115816666D01*
X64000000Y-116516666D01*
X63800000Y-116483333D02*
X63700000Y-116516666D01*
X63533333Y-116516666D01*
X63466666Y-116483333D01*
X63433333Y-116450000D01*
X63400000Y-116383333D01*
X63400000Y-116316666D01*
X63433333Y-116250000D01*
X63466666Y-116216666D01*
X63533333Y-116183333D01*
X63666666Y-116150000D01*
X63733333Y-116116666D01*
X63766666Y-116083333D01*
X63800000Y-116016666D01*
X63800000Y-115950000D01*
X63766666Y-115883333D01*
X63733333Y-115850000D01*
X63666666Y-115816666D01*
X63500000Y-115816666D01*
X63400000Y-115850000D01*
X62733333Y-116516666D02*
X63133333Y-116516666D01*
X62933333Y-116516666D02*
X62933333Y-115816666D01*
X63000000Y-115916666D01*
X63066666Y-115983333D01*
X63133333Y-116016666D01*
%TO.C,TP6_GND1*%
X54150000Y-134864666D02*
X53750000Y-134864666D01*
X53950000Y-135564666D02*
X53950000Y-134864666D01*
X53516666Y-135564666D02*
X53516666Y-134864666D01*
X53250000Y-134864666D01*
X53183333Y-134898000D01*
X53150000Y-134931333D01*
X53116666Y-134998000D01*
X53116666Y-135098000D01*
X53150000Y-135164666D01*
X53183333Y-135198000D01*
X53250000Y-135231333D01*
X53516666Y-135231333D01*
X52516666Y-134864666D02*
X52650000Y-134864666D01*
X52716666Y-134898000D01*
X52750000Y-134931333D01*
X52816666Y-135031333D01*
X52850000Y-135164666D01*
X52850000Y-135431333D01*
X52816666Y-135498000D01*
X52783333Y-135531333D01*
X52716666Y-135564666D01*
X52583333Y-135564666D01*
X52516666Y-135531333D01*
X52483333Y-135498000D01*
X52450000Y-135431333D01*
X52450000Y-135264666D01*
X52483333Y-135198000D01*
X52516666Y-135164666D01*
X52583333Y-135131333D01*
X52716666Y-135131333D01*
X52783333Y-135164666D01*
X52816666Y-135198000D01*
X52850000Y-135264666D01*
X52316666Y-135631333D02*
X51783333Y-135631333D01*
X51250000Y-134898000D02*
X51316666Y-134864666D01*
X51416666Y-134864666D01*
X51516666Y-134898000D01*
X51583333Y-134964666D01*
X51616666Y-135031333D01*
X51650000Y-135164666D01*
X51650000Y-135264666D01*
X51616666Y-135398000D01*
X51583333Y-135464666D01*
X51516666Y-135531333D01*
X51416666Y-135564666D01*
X51350000Y-135564666D01*
X51250000Y-135531333D01*
X51216666Y-135498000D01*
X51216666Y-135264666D01*
X51350000Y-135264666D01*
X50916666Y-135564666D02*
X50916666Y-134864666D01*
X50516666Y-135564666D01*
X50516666Y-134864666D01*
X50183333Y-135564666D02*
X50183333Y-134864666D01*
X50016666Y-134864666D01*
X49916666Y-134898000D01*
X49850000Y-134964666D01*
X49816666Y-135031333D01*
X49783333Y-135164666D01*
X49783333Y-135264666D01*
X49816666Y-135398000D01*
X49850000Y-135464666D01*
X49916666Y-135531333D01*
X50016666Y-135564666D01*
X50183333Y-135564666D01*
X49116666Y-135564666D02*
X49516666Y-135564666D01*
X49316666Y-135564666D02*
X49316666Y-134864666D01*
X49383333Y-134964666D01*
X49450000Y-135031333D01*
X49516666Y-135064666D01*
%TO.C,RN1*%
X65216666Y-109816666D02*
X64883333Y-109583333D01*
X65216666Y-109416666D02*
X64516666Y-109416666D01*
X64516666Y-109683333D01*
X64550000Y-109750000D01*
X64583333Y-109783333D01*
X64650000Y-109816666D01*
X64750000Y-109816666D01*
X64816666Y-109783333D01*
X64850000Y-109750000D01*
X64883333Y-109683333D01*
X64883333Y-109416666D01*
X65216666Y-110116666D02*
X64516666Y-110116666D01*
X65216666Y-110516666D01*
X64516666Y-110516666D01*
X65216666Y-111216666D02*
X65216666Y-110816666D01*
X65216666Y-111016666D02*
X64516666Y-111016666D01*
X64616666Y-110950000D01*
X64683333Y-110883333D01*
X64716666Y-110816666D01*
%TO.C,J1*%
X65766666Y-97747619D02*
X65766666Y-97033333D01*
X65719047Y-96890476D01*
X65623809Y-96795238D01*
X65480952Y-96747619D01*
X65385714Y-96747619D01*
X66766666Y-96747619D02*
X66195238Y-96747619D01*
X66480952Y-96747619D02*
X66480952Y-97747619D01*
X66385714Y-97604761D01*
X66290476Y-97509523D01*
X66195238Y-97461904D01*
D12*
%TO.C,U5*%
X66250000Y-105850000D02*
X66000000Y-105850000D01*
X66000000Y-105850000D02*
X66000000Y-106600000D01*
X68750000Y-108350000D02*
X69000000Y-108350000D01*
X69000000Y-105850000D02*
X68750000Y-105850000D01*
X69000000Y-108350000D02*
X69000000Y-107600000D01*
X66000000Y-107600000D02*
X66000000Y-108350000D01*
X69000000Y-106600000D02*
X69000000Y-105850000D01*
X66000000Y-108350000D02*
X66250000Y-108350000D01*
X65732956Y-106420000D02*
G75*
G03*
X65732956Y-106420000I-102956J0D01*
G01*
%TO.C,R13*%
X83500242Y-101772500D02*
X83974758Y-101772500D01*
X83500242Y-100727500D02*
X83974758Y-100727500D01*
%TO.C,R1*%
X78060000Y-102387258D02*
X78060000Y-101912742D01*
X77015000Y-102387258D02*
X77015000Y-101912742D01*
%TO.C,Q3*%
X80967500Y-101650000D02*
X80967500Y-100990000D01*
X80967500Y-103310000D02*
X80967500Y-102650000D01*
X80967500Y-103310000D02*
X78937500Y-103310000D01*
X79557500Y-100990000D02*
X80967500Y-100990000D01*
%TO.C,D1*%
X84537500Y-103585000D02*
X82252500Y-103585000D01*
X82252500Y-103585000D02*
X82252500Y-102115000D01*
X82252500Y-102115000D02*
X84537500Y-102115000D01*
%TO.C,C1*%
X70790000Y-133009420D02*
X70790000Y-133290580D01*
X71810000Y-133009420D02*
X71810000Y-133290580D01*
%TO.C,C2*%
X62290000Y-133209420D02*
X62290000Y-133490580D01*
X63310000Y-133209420D02*
X63310000Y-133490580D01*
%TO.C,C3*%
X69290000Y-133009420D02*
X69290000Y-133290580D01*
X70310000Y-133009420D02*
X70310000Y-133290580D01*
%TO.C,C4*%
X63790000Y-133209420D02*
X63790000Y-133490580D01*
X64810000Y-133209420D02*
X64810000Y-133490580D01*
%TO.C,C5*%
X63810000Y-123290580D02*
X63810000Y-123009420D01*
X62790000Y-123290580D02*
X62790000Y-123009420D01*
%TO.C,C6*%
X62310000Y-123290580D02*
X62310000Y-123009420D01*
X61290000Y-123290580D02*
X61290000Y-123009420D01*
%TO.C,C7*%
X49059420Y-118810000D02*
X49340580Y-118810000D01*
X49059420Y-117790000D02*
X49340580Y-117790000D01*
%TO.C,C8*%
X52290000Y-110309420D02*
X52290000Y-110590580D01*
X53310000Y-110309420D02*
X53310000Y-110590580D01*
%TO.C,C9*%
X47790000Y-110309420D02*
X47790000Y-110590580D01*
X48810000Y-110309420D02*
X48810000Y-110590580D01*
%TO.C,C10*%
X54410000Y-127290580D02*
X54410000Y-127009420D01*
X53390000Y-127290580D02*
X53390000Y-127009420D01*
%TO.C,C11*%
X54510000Y-120890580D02*
X54510000Y-120609420D01*
X53490000Y-120890580D02*
X53490000Y-120609420D01*
%TO.C,C12*%
X49290000Y-110309420D02*
X49290000Y-110590580D01*
X50310000Y-110309420D02*
X50310000Y-110590580D01*
%TO.C,C13*%
X60410000Y-126890580D02*
X60410000Y-126609420D01*
X59390000Y-126890580D02*
X59390000Y-126609420D01*
%TO.C,C14*%
X60510000Y-120290580D02*
X60510000Y-120009420D01*
X59490000Y-120290580D02*
X59490000Y-120009420D01*
%TO.C,D2*%
X45300000Y-109000000D02*
X47300000Y-109000000D01*
X47300000Y-109000000D02*
X47300000Y-112900000D01*
X45300000Y-109000000D02*
X45300000Y-112900000D01*
%TO.C,FB1*%
X60410000Y-129962779D02*
X60410000Y-129637221D01*
X59390000Y-129962779D02*
X59390000Y-129637221D01*
%TO.C,JP1*%
X73800000Y-128300000D02*
X73500000Y-128000000D01*
X73500000Y-128600000D02*
X73500000Y-128000000D01*
X73800000Y-128300000D02*
X73500000Y-128600000D01*
X74000000Y-129050000D02*
X76000000Y-129050000D01*
X74000000Y-124950000D02*
X74000000Y-129050000D01*
X76000000Y-124950000D02*
X74000000Y-124950000D01*
X76000000Y-129050000D02*
X76000000Y-124950000D01*
%TO.C,L1*%
X46960000Y-115849622D02*
X46960000Y-115050378D01*
X45840000Y-115849622D02*
X45840000Y-115050378D01*
%TO.C,R2*%
X51577500Y-117112742D02*
X51577500Y-117587258D01*
X52622500Y-117112742D02*
X52622500Y-117587258D01*
%TO.C,R3*%
X50777500Y-110212742D02*
X50777500Y-110687258D01*
X51822500Y-110212742D02*
X51822500Y-110687258D01*
%TO.C,R4*%
X51577500Y-114012742D02*
X51577500Y-114487258D01*
X52622500Y-114012742D02*
X52622500Y-114487258D01*
%TO.C,R5*%
X56062742Y-130072500D02*
X56537258Y-130072500D01*
X56062742Y-129027500D02*
X56537258Y-129027500D01*
%TO.C,R6*%
X56262742Y-123672500D02*
X56737258Y-123672500D01*
X56262742Y-122627500D02*
X56737258Y-122627500D01*
%TO.C,U2*%
X56900000Y-125190000D02*
X57700000Y-125190000D01*
X56900000Y-125190000D02*
X56100000Y-125190000D01*
X56900000Y-128310000D02*
X57700000Y-128310000D01*
X56900000Y-128310000D02*
X55100000Y-128310000D01*
%TO.C,U3*%
X57000000Y-118990000D02*
X57800000Y-118990000D01*
X57000000Y-118990000D02*
X56200000Y-118990000D01*
X57000000Y-122110000D02*
X57800000Y-122110000D01*
X57000000Y-122110000D02*
X55200000Y-122110000D01*
%TO.C,D3*%
X46900000Y-122265000D02*
X49185000Y-122265000D01*
X49185000Y-122265000D02*
X49185000Y-123735000D01*
X49185000Y-123735000D02*
X46900000Y-123735000D01*
%TO.C,R11*%
X47937258Y-120477500D02*
X47462742Y-120477500D01*
X47937258Y-121522500D02*
X47462742Y-121522500D01*
%TO.C,U1*%
X50930000Y-115460000D02*
X50930000Y-116260000D01*
X50930000Y-115460000D02*
X50930000Y-114660000D01*
X47810000Y-115460000D02*
X47810000Y-116260000D01*
X47810000Y-115460000D02*
X47810000Y-113660000D01*
%TO.C,U4*%
X57210000Y-111950000D02*
X57210000Y-113450000D01*
X57210000Y-111950000D02*
X57210000Y-110450000D01*
X53990000Y-111950000D02*
X53990000Y-113450000D01*
X53990000Y-111950000D02*
X53990000Y-109075000D01*
%TO.C,R8*%
X59277500Y-114712742D02*
X59277500Y-115187258D01*
X60322500Y-114712742D02*
X60322500Y-115187258D01*
%TO.C,Q1*%
X62400000Y-115480000D02*
X63060000Y-115480000D01*
X60740000Y-115480000D02*
X61400000Y-115480000D01*
X60740000Y-115480000D02*
X60740000Y-113450000D01*
X63060000Y-114070000D02*
X63060000Y-115480000D01*
%TO.C,R7*%
X61562742Y-112672500D02*
X62037258Y-112672500D01*
X61562742Y-111627500D02*
X62037258Y-111627500D01*
%TO.C,R10*%
X57677500Y-114712742D02*
X57677500Y-115187258D01*
X58722500Y-114712742D02*
X58722500Y-115187258D01*
%TO.C,R9*%
X57677500Y-110212742D02*
X57677500Y-110687258D01*
X58722500Y-110212742D02*
X58722500Y-110687258D01*
%TO.C,FB3*%
X55210000Y-116900279D02*
X55210000Y-116574721D01*
X54190000Y-116900279D02*
X54190000Y-116574721D01*
%TO.C,C15*%
X57110000Y-116865580D02*
X57110000Y-116584420D01*
X56090000Y-116865580D02*
X56090000Y-116584420D01*
%TO.C,FB2*%
X60510000Y-123312779D02*
X60510000Y-122987221D01*
X59490000Y-123312779D02*
X59490000Y-122987221D01*
%TO.C,D4*%
X55050000Y-101300000D02*
X55050000Y-103300000D01*
X55050000Y-103300000D02*
X51150000Y-103300000D01*
X55050000Y-101300000D02*
X51150000Y-101300000D01*
%TO.C,FB4*%
X55690000Y-102837221D02*
X55690000Y-103162779D01*
X56710000Y-102837221D02*
X56710000Y-103162779D01*
%TO.C,Q2*%
X49100000Y-102080000D02*
X49760000Y-102080000D01*
X47440000Y-102080000D02*
X48100000Y-102080000D01*
X47440000Y-102080000D02*
X47440000Y-100050000D01*
X49760000Y-100670000D02*
X49760000Y-102080000D01*
%TO.C,R12*%
X49722500Y-98237258D02*
X49722500Y-97762742D01*
X48677500Y-98237258D02*
X48677500Y-97762742D01*
%TO.C,J5*%
X55110000Y-98260000D02*
X55110000Y-99410000D01*
X55110000Y-99410000D02*
X54060000Y-99410000D01*
X54060000Y-99410000D02*
X54060000Y-100400000D01*
X50890000Y-98260000D02*
X50890000Y-99410000D01*
X50890000Y-99410000D02*
X51940000Y-99410000D01*
X53940000Y-96290000D02*
X52060000Y-96290000D01*
%TO.C,TP1_5V1*%
X47300000Y-118550000D02*
G75*
G03*
X47300000Y-118550000I-950000J0D01*
G01*
%TO.C,TP2_12V1*%
X47300000Y-107400000D02*
G75*
G03*
X47300000Y-107400000I-950000J0D01*
G01*
%TO.C,TP3_3V3*%
X61100000Y-132750000D02*
G75*
G03*
X61100000Y-132750000I-950000J0D01*
G01*
%TO.C,TP4_2V5*%
X63650000Y-126450000D02*
G75*
G03*
X63650000Y-126450000I-950000J0D01*
G01*
%TO.C,TP5_VBIAS1*%
X63200000Y-117800000D02*
G75*
G03*
X63200000Y-117800000I-950000J0D01*
G01*
%TO.C,TP6_GND1*%
X52550000Y-133600000D02*
G75*
G03*
X52550000Y-133600000I-950000J0D01*
G01*
%TO.C,RN1*%
X69020000Y-111700000D02*
X69020000Y-110900000D01*
X65580000Y-111700000D02*
X65580000Y-110900000D01*
%TO.C,J1*%
X72100000Y-98700000D02*
X71100000Y-98700000D01*
X61900000Y-100700000D02*
X60800000Y-100700000D01*
X60800000Y-98700000D02*
X61300000Y-98700000D01*
X72100000Y-100700000D02*
X71500000Y-100700000D01*
X61423607Y-97700000D02*
G75*
G03*
X61423607Y-97700000I-223607J0D01*
G01*
%TD*%
M02*
