%TF.GenerationSoftware,KiCad,Pcbnew,5.1.10-88a1d61d58~88~ubuntu20.04.1*%
%TF.CreationDate,2021-05-19T13:37:25+03:00*%
%TF.ProjectId,isc0901b0-breakout,69736330-3930-4316-9230-2d627265616b,rev2*%
%TF.SameCoordinates,Original*%
%TF.FileFunction,Legend,Top*%
%TF.FilePolarity,Positive*%
%FSLAX46Y46*%
G04 Gerber Fmt 4.6, Leading zero omitted, Abs format (unit mm)*
G04 Created by KiCad (PCBNEW 5.1.10-88a1d61d58~88~ubuntu20.04.1) date 2021-05-19 13:37:25*
%MOMM*%
%LPD*%
G01*
G04 APERTURE LIST*
%ADD10C,0.120000*%
%ADD11C,0.050000*%
%ADD12C,0.150000*%
G04 APERTURE END LIST*
D10*
%TO.C,RN3*%
X69280000Y-106000000D02*
X69280000Y-106800000D01*
X72720000Y-106000000D02*
X72720000Y-106800000D01*
%TO.C,RN2*%
X63530000Y-106000000D02*
X63530000Y-106800000D01*
X66970000Y-106000000D02*
X66970000Y-106800000D01*
%TO.C,RN1*%
X54180000Y-106000000D02*
X54180000Y-106800000D01*
X57620000Y-106000000D02*
X57620000Y-106800000D01*
D11*
%TO.C,J2*%
X73450000Y-125400000D02*
X71650000Y-125400000D01*
X73450000Y-130800000D02*
X71650000Y-130800000D01*
X73450000Y-125400000D02*
X73450000Y-130800000D01*
X59650000Y-125400000D02*
X61450000Y-125400000D01*
X59650000Y-130800000D02*
X59650000Y-125400000D01*
X61450000Y-130800000D02*
X59650000Y-130800000D01*
X71840139Y-131200000D02*
G75*
G03*
X71840139Y-131200000I-90139J0D01*
G01*
%TO.C,RN3*%
D12*
X68716666Y-106883333D02*
X68383333Y-107116666D01*
X68716666Y-107283333D02*
X68016666Y-107283333D01*
X68016666Y-107016666D01*
X68050000Y-106950000D01*
X68083333Y-106916666D01*
X68150000Y-106883333D01*
X68250000Y-106883333D01*
X68316666Y-106916666D01*
X68350000Y-106950000D01*
X68383333Y-107016666D01*
X68383333Y-107283333D01*
X68716666Y-106583333D02*
X68016666Y-106583333D01*
X68716666Y-106183333D01*
X68016666Y-106183333D01*
X68016666Y-105916666D02*
X68016666Y-105483333D01*
X68283333Y-105716666D01*
X68283333Y-105616666D01*
X68316666Y-105550000D01*
X68350000Y-105516666D01*
X68416666Y-105483333D01*
X68583333Y-105483333D01*
X68650000Y-105516666D01*
X68683333Y-105550000D01*
X68716666Y-105616666D01*
X68716666Y-105816666D01*
X68683333Y-105883333D01*
X68650000Y-105916666D01*
%TO.C,RN2*%
X62966666Y-106883333D02*
X62633333Y-107116666D01*
X62966666Y-107283333D02*
X62266666Y-107283333D01*
X62266666Y-107016666D01*
X62300000Y-106950000D01*
X62333333Y-106916666D01*
X62400000Y-106883333D01*
X62500000Y-106883333D01*
X62566666Y-106916666D01*
X62600000Y-106950000D01*
X62633333Y-107016666D01*
X62633333Y-107283333D01*
X62966666Y-106583333D02*
X62266666Y-106583333D01*
X62966666Y-106183333D01*
X62266666Y-106183333D01*
X62333333Y-105883333D02*
X62300000Y-105850000D01*
X62266666Y-105783333D01*
X62266666Y-105616666D01*
X62300000Y-105550000D01*
X62333333Y-105516666D01*
X62400000Y-105483333D01*
X62466666Y-105483333D01*
X62566666Y-105516666D01*
X62966666Y-105916666D01*
X62966666Y-105483333D01*
%TO.C,RN1*%
X53616666Y-106883333D02*
X53283333Y-107116666D01*
X53616666Y-107283333D02*
X52916666Y-107283333D01*
X52916666Y-107016666D01*
X52950000Y-106950000D01*
X52983333Y-106916666D01*
X53050000Y-106883333D01*
X53150000Y-106883333D01*
X53216666Y-106916666D01*
X53250000Y-106950000D01*
X53283333Y-107016666D01*
X53283333Y-107283333D01*
X53616666Y-106583333D02*
X52916666Y-106583333D01*
X53616666Y-106183333D01*
X52916666Y-106183333D01*
X53616666Y-105483333D02*
X53616666Y-105883333D01*
X53616666Y-105683333D02*
X52916666Y-105683333D01*
X53016666Y-105750000D01*
X53083333Y-105816666D01*
X53116666Y-105883333D01*
%TO.C,J2*%
X66241666Y-132316666D02*
X66241666Y-132816666D01*
X66208333Y-132916666D01*
X66141666Y-132983333D01*
X66041666Y-133016666D01*
X65975000Y-133016666D01*
X66541666Y-132383333D02*
X66575000Y-132350000D01*
X66641666Y-132316666D01*
X66808333Y-132316666D01*
X66875000Y-132350000D01*
X66908333Y-132383333D01*
X66941666Y-132450000D01*
X66941666Y-132516666D01*
X66908333Y-132616666D01*
X66508333Y-133016666D01*
X66941666Y-133016666D01*
%TD*%
M02*
