M48
; DRILL file {KiCad 5.1.10-88a1d61d58~88~ubuntu20.04.1} date Wed May 19 13:37:29 2021
; FORMAT={-:-/ absolute / inch / decimal}
; #@! TF.CreationDate,2021-05-19T13:37:29+03:00
; #@! TF.GenerationSoftware,Kicad,Pcbnew,5.1.10-88a1d61d58~88~ubuntu20.04.1
; #@! TF.FileFunction,Plated,1,2,PTH
FMAT,2
INCH
T1C0.0157
T2C0.0394
%
G90
G05
T1
X1.813Y-4.6949
X1.8484Y-4.126
X1.8642Y-4.0118
X1.872Y-4.9429
X1.9075Y-5.1831
X1.9203Y-4.4173
X1.9449Y-4.4685
X1.9606Y-4.4134
X1.9783Y-4.0866
X2.0157Y-4.9406
X2.0173Y-4.589
X2.0197Y-4.5433
X2.0453Y-5.0295
X2.0571Y-4.7047
X2.0945Y-3.7697
X2.0984Y-4.5374
X2.1004Y-4.4311
X2.1043Y-4.6516
X2.122Y-4.311
X2.126Y-4.685
X2.1299Y-5.0768
X2.1437Y-5.2165
X2.1565Y-4.7418
X2.1693Y-4.3898
X2.1693Y-4.4252
X2.1988Y-4.563
X2.2047Y-3.876
X2.2057Y-4.2608
X2.2126Y-4.3898
X2.2126Y-4.4252
X2.2485Y-4.4476
X2.2579Y-4.8976
X2.2638Y-5.1909
X2.2913Y-4.4094
X2.2913Y-4.5866
X2.3622Y-4.6654
X2.374Y-5.3307
X2.3917Y-4.372
X2.4252Y-3.7008
X2.4291Y-4.7756
X2.4494Y-4.9084
X2.4705Y-5.315
X2.4724Y-4.376
X2.4764Y-4.9075
X2.4803Y-4.7756
X2.4843Y-4.4547
X2.4921Y-4.7126
X2.4923Y-5.1758
X2.5315Y-5.3169
X2.5433Y-4.8957
X2.5551Y-4.7795
X2.5571Y-4.4587
X2.5846Y-5.2598
X2.5866Y-5.3799
X2.5906Y-4.378
X2.5974Y-4.8543
X2.6083Y-5.0453
X2.624Y-4.626
X2.6496Y-5.0492
X2.6545Y-4.8543
X2.6791Y-4.6693
X2.685Y-4.4134
X2.6929Y-5.0453
X2.7087Y-4.3031
X2.7106Y-4.8819
X2.7402Y-4.7047
X2.7461Y-5.3091
X2.7635Y-5.1786
X2.7898Y-5.1776
X2.7953Y-4.3484
X2.8051Y-4.7067
X2.8091Y-5.311
X2.8819Y-3.6969
X2.8898Y-4.9902
X2.8996Y-5.189
X2.9508Y-4.9469
X2.9705Y-5.3563
X3.0689Y-4.1319
X3.0689Y-4.437
X3.1339Y-3.7638
X3.1909Y-4.1673
X3.2047Y-4.0965
X3.2657Y-3.9803
X3.2717Y-3.813
X3.2992Y-4.0807
T2
X2.0157Y-4.8406
X2.0157Y-4.9406
X2.3228Y-3.8819
X2.3228Y-3.9819
X2.4228Y-3.8819
X2.4228Y-3.9819
X2.5228Y-3.8819
X2.5228Y-3.9819
X2.6228Y-3.8819
X2.6228Y-3.9819
X2.7228Y-3.8819
X2.7228Y-3.9819
X2.8228Y-3.8819
X2.8228Y-3.9819
X2.9228Y-3.8819
X2.9228Y-3.9819
T0
M30
