%TF.GenerationSoftware,KiCad,Pcbnew,5.1.10-88a1d61d58~88~ubuntu20.04.1*%
%TF.CreationDate,2021-05-19T13:37:25+03:00*%
%TF.ProjectId,isc0901b0-breakout,69736330-3930-4316-9230-2d627265616b,rev2*%
%TF.SameCoordinates,Original*%
%TF.FileFunction,Paste,Bot*%
%TF.FilePolarity,Positive*%
%FSLAX46Y46*%
G04 Gerber Fmt 4.6, Leading zero omitted, Abs format (unit mm)*
G04 Created by KiCad (PCBNEW 5.1.10-88a1d61d58~88~ubuntu20.04.1) date 2021-05-19 13:37:25*
%MOMM*%
%LPD*%
G01*
G04 APERTURE LIST*
%ADD10R,0.450000X0.700000*%
%ADD11R,1.200000X0.900000*%
%ADD12R,1.220000X0.650000*%
%ADD13R,0.650000X1.060000*%
G04 APERTURE END LIST*
%TO.C,J5*%
G36*
G01*
X86350001Y-110750000D02*
X85049999Y-110750000D01*
G75*
G02*
X84800000Y-110500001I0J249999D01*
G01*
X84800000Y-109799999D01*
G75*
G02*
X85049999Y-109550000I249999J0D01*
G01*
X86350001Y-109550000D01*
G75*
G02*
X86600000Y-109799999I0J-249999D01*
G01*
X86600000Y-110500001D01*
G75*
G02*
X86350001Y-110750000I-249999J0D01*
G01*
G37*
G36*
G01*
X86350001Y-114350000D02*
X85049999Y-114350000D01*
G75*
G02*
X84800000Y-114100001I0J249999D01*
G01*
X84800000Y-113399999D01*
G75*
G02*
X85049999Y-113150000I249999J0D01*
G01*
X86350001Y-113150000D01*
G75*
G02*
X86600000Y-113399999I0J-249999D01*
G01*
X86600000Y-114100001D01*
G75*
G02*
X86350001Y-114350000I-249999J0D01*
G01*
G37*
G36*
G01*
X83800000Y-111750000D02*
X82550000Y-111750000D01*
G75*
G02*
X82400000Y-111600000I0J150000D01*
G01*
X82400000Y-111300000D01*
G75*
G02*
X82550000Y-111150000I150000J0D01*
G01*
X83800000Y-111150000D01*
G75*
G02*
X83950000Y-111300000I0J-150000D01*
G01*
X83950000Y-111600000D01*
G75*
G02*
X83800000Y-111750000I-150000J0D01*
G01*
G37*
G36*
G01*
X83800000Y-112750000D02*
X82550000Y-112750000D01*
G75*
G02*
X82400000Y-112600000I0J150000D01*
G01*
X82400000Y-112300000D01*
G75*
G02*
X82550000Y-112150000I150000J0D01*
G01*
X83800000Y-112150000D01*
G75*
G02*
X83950000Y-112300000I0J-150000D01*
G01*
X83950000Y-112600000D01*
G75*
G02*
X83800000Y-112750000I-150000J0D01*
G01*
G37*
%TD*%
%TO.C,R12*%
G36*
G01*
X77925000Y-107925000D02*
X78475000Y-107925000D01*
G75*
G02*
X78675000Y-108125000I0J-200000D01*
G01*
X78675000Y-108525000D01*
G75*
G02*
X78475000Y-108725000I-200000J0D01*
G01*
X77925000Y-108725000D01*
G75*
G02*
X77725000Y-108525000I0J200000D01*
G01*
X77725000Y-108125000D01*
G75*
G02*
X77925000Y-107925000I200000J0D01*
G01*
G37*
G36*
G01*
X77925000Y-106275000D02*
X78475000Y-106275000D01*
G75*
G02*
X78675000Y-106475000I0J-200000D01*
G01*
X78675000Y-106875000D01*
G75*
G02*
X78475000Y-107075000I-200000J0D01*
G01*
X77925000Y-107075000D01*
G75*
G02*
X77725000Y-106875000I0J200000D01*
G01*
X77725000Y-106475000D01*
G75*
G02*
X77925000Y-106275000I200000J0D01*
G01*
G37*
%TD*%
D10*
%TO.C,Q2*%
X80400000Y-108650000D03*
X81050000Y-106650000D03*
X79750000Y-106650000D03*
%TD*%
%TO.C,FB4*%
G36*
G01*
X79700000Y-114993750D02*
X79700000Y-115506250D01*
G75*
G02*
X79481250Y-115725000I-218750J0D01*
G01*
X79043750Y-115725000D01*
G75*
G02*
X78825000Y-115506250I0J218750D01*
G01*
X78825000Y-114993750D01*
G75*
G02*
X79043750Y-114775000I218750J0D01*
G01*
X79481250Y-114775000D01*
G75*
G02*
X79700000Y-114993750I0J-218750D01*
G01*
G37*
G36*
G01*
X81275000Y-114993750D02*
X81275000Y-115506250D01*
G75*
G02*
X81056250Y-115725000I-218750J0D01*
G01*
X80618750Y-115725000D01*
G75*
G02*
X80400000Y-115506250I0J218750D01*
G01*
X80400000Y-114993750D01*
G75*
G02*
X80618750Y-114775000I218750J0D01*
G01*
X81056250Y-114775000D01*
G75*
G02*
X81275000Y-114993750I0J-218750D01*
G01*
G37*
%TD*%
D11*
%TO.C,D4*%
X80450000Y-110300000D03*
X80450000Y-113600000D03*
%TD*%
%TO.C,R11*%
G36*
G01*
X47275000Y-120725000D02*
X47275000Y-121275000D01*
G75*
G02*
X47075000Y-121475000I-200000J0D01*
G01*
X46675000Y-121475000D01*
G75*
G02*
X46475000Y-121275000I0J200000D01*
G01*
X46475000Y-120725000D01*
G75*
G02*
X46675000Y-120525000I200000J0D01*
G01*
X47075000Y-120525000D01*
G75*
G02*
X47275000Y-120725000I0J-200000D01*
G01*
G37*
G36*
G01*
X48925000Y-120725000D02*
X48925000Y-121275000D01*
G75*
G02*
X48725000Y-121475000I-200000J0D01*
G01*
X48325000Y-121475000D01*
G75*
G02*
X48125000Y-121275000I0J200000D01*
G01*
X48125000Y-120725000D01*
G75*
G02*
X48325000Y-120525000I200000J0D01*
G01*
X48725000Y-120525000D01*
G75*
G02*
X48925000Y-120725000I0J-200000D01*
G01*
G37*
%TD*%
%TO.C,D3*%
G36*
G01*
X47350000Y-122743750D02*
X47350000Y-123256250D01*
G75*
G02*
X47131250Y-123475000I-218750J0D01*
G01*
X46693750Y-123475000D01*
G75*
G02*
X46475000Y-123256250I0J218750D01*
G01*
X46475000Y-122743750D01*
G75*
G02*
X46693750Y-122525000I218750J0D01*
G01*
X47131250Y-122525000D01*
G75*
G02*
X47350000Y-122743750I0J-218750D01*
G01*
G37*
G36*
G01*
X48925000Y-122743750D02*
X48925000Y-123256250D01*
G75*
G02*
X48706250Y-123475000I-218750J0D01*
G01*
X48268750Y-123475000D01*
G75*
G02*
X48050000Y-123256250I0J218750D01*
G01*
X48050000Y-122743750D01*
G75*
G02*
X48268750Y-122525000I218750J0D01*
G01*
X48706250Y-122525000D01*
G75*
G02*
X48925000Y-122743750I0J-218750D01*
G01*
G37*
%TD*%
%TO.C,U4*%
G36*
G01*
X55860000Y-112030000D02*
X56280000Y-112030000D01*
G75*
G02*
X56450000Y-112200000I0J-170000D01*
G01*
X56450000Y-112540000D01*
G75*
G02*
X56280000Y-112710000I-170000J0D01*
G01*
X55860000Y-112710000D01*
G75*
G02*
X55690000Y-112540000I0J170000D01*
G01*
X55690000Y-112200000D01*
G75*
G02*
X55860000Y-112030000I170000J0D01*
G01*
G37*
G36*
G01*
X54920000Y-112030000D02*
X55340000Y-112030000D01*
G75*
G02*
X55510000Y-112200000I0J-170000D01*
G01*
X55510000Y-112540000D01*
G75*
G02*
X55340000Y-112710000I-170000J0D01*
G01*
X54920000Y-112710000D01*
G75*
G02*
X54750000Y-112540000I0J170000D01*
G01*
X54750000Y-112200000D01*
G75*
G02*
X54920000Y-112030000I170000J0D01*
G01*
G37*
G36*
G01*
X55860000Y-111190000D02*
X56280000Y-111190000D01*
G75*
G02*
X56450000Y-111360000I0J-170000D01*
G01*
X56450000Y-111700000D01*
G75*
G02*
X56280000Y-111870000I-170000J0D01*
G01*
X55860000Y-111870000D01*
G75*
G02*
X55690000Y-111700000I0J170000D01*
G01*
X55690000Y-111360000D01*
G75*
G02*
X55860000Y-111190000I170000J0D01*
G01*
G37*
G36*
G01*
X54920000Y-111190000D02*
X55340000Y-111190000D01*
G75*
G02*
X55510000Y-111360000I0J-170000D01*
G01*
X55510000Y-111700000D01*
G75*
G02*
X55340000Y-111870000I-170000J0D01*
G01*
X54920000Y-111870000D01*
G75*
G02*
X54750000Y-111700000I0J170000D01*
G01*
X54750000Y-111360000D01*
G75*
G02*
X54920000Y-111190000I170000J0D01*
G01*
G37*
G36*
G01*
X54525000Y-113375000D02*
X54675000Y-113375000D01*
G75*
G02*
X54750000Y-113450000I0J-75000D01*
G01*
X54750000Y-114750000D01*
G75*
G02*
X54675000Y-114825000I-75000J0D01*
G01*
X54525000Y-114825000D01*
G75*
G02*
X54450000Y-114750000I0J75000D01*
G01*
X54450000Y-113450000D01*
G75*
G02*
X54525000Y-113375000I75000J0D01*
G01*
G37*
G36*
G01*
X55025000Y-113375000D02*
X55175000Y-113375000D01*
G75*
G02*
X55250000Y-113450000I0J-75000D01*
G01*
X55250000Y-114750000D01*
G75*
G02*
X55175000Y-114825000I-75000J0D01*
G01*
X55025000Y-114825000D01*
G75*
G02*
X54950000Y-114750000I0J75000D01*
G01*
X54950000Y-113450000D01*
G75*
G02*
X55025000Y-113375000I75000J0D01*
G01*
G37*
G36*
G01*
X55525000Y-113375000D02*
X55675000Y-113375000D01*
G75*
G02*
X55750000Y-113450000I0J-75000D01*
G01*
X55750000Y-114750000D01*
G75*
G02*
X55675000Y-114825000I-75000J0D01*
G01*
X55525000Y-114825000D01*
G75*
G02*
X55450000Y-114750000I0J75000D01*
G01*
X55450000Y-113450000D01*
G75*
G02*
X55525000Y-113375000I75000J0D01*
G01*
G37*
G36*
G01*
X56025000Y-113375000D02*
X56175000Y-113375000D01*
G75*
G02*
X56250000Y-113450000I0J-75000D01*
G01*
X56250000Y-114750000D01*
G75*
G02*
X56175000Y-114825000I-75000J0D01*
G01*
X56025000Y-114825000D01*
G75*
G02*
X55950000Y-114750000I0J75000D01*
G01*
X55950000Y-113450000D01*
G75*
G02*
X56025000Y-113375000I75000J0D01*
G01*
G37*
G36*
G01*
X56525000Y-113375000D02*
X56675000Y-113375000D01*
G75*
G02*
X56750000Y-113450000I0J-75000D01*
G01*
X56750000Y-114750000D01*
G75*
G02*
X56675000Y-114825000I-75000J0D01*
G01*
X56525000Y-114825000D01*
G75*
G02*
X56450000Y-114750000I0J75000D01*
G01*
X56450000Y-113450000D01*
G75*
G02*
X56525000Y-113375000I75000J0D01*
G01*
G37*
G36*
G01*
X56525000Y-109075000D02*
X56675000Y-109075000D01*
G75*
G02*
X56750000Y-109150000I0J-75000D01*
G01*
X56750000Y-110450000D01*
G75*
G02*
X56675000Y-110525000I-75000J0D01*
G01*
X56525000Y-110525000D01*
G75*
G02*
X56450000Y-110450000I0J75000D01*
G01*
X56450000Y-109150000D01*
G75*
G02*
X56525000Y-109075000I75000J0D01*
G01*
G37*
G36*
G01*
X56025000Y-109075000D02*
X56175000Y-109075000D01*
G75*
G02*
X56250000Y-109150000I0J-75000D01*
G01*
X56250000Y-110450000D01*
G75*
G02*
X56175000Y-110525000I-75000J0D01*
G01*
X56025000Y-110525000D01*
G75*
G02*
X55950000Y-110450000I0J75000D01*
G01*
X55950000Y-109150000D01*
G75*
G02*
X56025000Y-109075000I75000J0D01*
G01*
G37*
G36*
G01*
X55525000Y-109075000D02*
X55675000Y-109075000D01*
G75*
G02*
X55750000Y-109150000I0J-75000D01*
G01*
X55750000Y-110450000D01*
G75*
G02*
X55675000Y-110525000I-75000J0D01*
G01*
X55525000Y-110525000D01*
G75*
G02*
X55450000Y-110450000I0J75000D01*
G01*
X55450000Y-109150000D01*
G75*
G02*
X55525000Y-109075000I75000J0D01*
G01*
G37*
G36*
G01*
X55025000Y-109075000D02*
X55175000Y-109075000D01*
G75*
G02*
X55250000Y-109150000I0J-75000D01*
G01*
X55250000Y-110450000D01*
G75*
G02*
X55175000Y-110525000I-75000J0D01*
G01*
X55025000Y-110525000D01*
G75*
G02*
X54950000Y-110450000I0J75000D01*
G01*
X54950000Y-109150000D01*
G75*
G02*
X55025000Y-109075000I75000J0D01*
G01*
G37*
G36*
G01*
X54525000Y-109075000D02*
X54675000Y-109075000D01*
G75*
G02*
X54750000Y-109150000I0J-75000D01*
G01*
X54750000Y-110450000D01*
G75*
G02*
X54675000Y-110525000I-75000J0D01*
G01*
X54525000Y-110525000D01*
G75*
G02*
X54450000Y-110450000I0J75000D01*
G01*
X54450000Y-109150000D01*
G75*
G02*
X54525000Y-109075000I75000J0D01*
G01*
G37*
%TD*%
D12*
%TO.C,U3*%
X58310000Y-121500000D03*
X58310000Y-119600000D03*
X55690000Y-119600000D03*
X55690000Y-120550000D03*
X55690000Y-121500000D03*
%TD*%
%TO.C,U2*%
X58210000Y-127700000D03*
X58210000Y-125800000D03*
X55590000Y-125800000D03*
X55590000Y-126750000D03*
X55590000Y-127700000D03*
%TD*%
D13*
%TO.C,U1*%
X48420000Y-116560000D03*
X50320000Y-116560000D03*
X50320000Y-114360000D03*
X49370000Y-114360000D03*
X48420000Y-114360000D03*
%TD*%
%TO.C,R10*%
G36*
G01*
X57925000Y-115375000D02*
X58475000Y-115375000D01*
G75*
G02*
X58675000Y-115575000I0J-200000D01*
G01*
X58675000Y-115975000D01*
G75*
G02*
X58475000Y-116175000I-200000J0D01*
G01*
X57925000Y-116175000D01*
G75*
G02*
X57725000Y-115975000I0J200000D01*
G01*
X57725000Y-115575000D01*
G75*
G02*
X57925000Y-115375000I200000J0D01*
G01*
G37*
G36*
G01*
X57925000Y-113725000D02*
X58475000Y-113725000D01*
G75*
G02*
X58675000Y-113925000I0J-200000D01*
G01*
X58675000Y-114325000D01*
G75*
G02*
X58475000Y-114525000I-200000J0D01*
G01*
X57925000Y-114525000D01*
G75*
G02*
X57725000Y-114325000I0J200000D01*
G01*
X57725000Y-113925000D01*
G75*
G02*
X57925000Y-113725000I200000J0D01*
G01*
G37*
%TD*%
%TO.C,R9*%
G36*
G01*
X57925000Y-110875000D02*
X58475000Y-110875000D01*
G75*
G02*
X58675000Y-111075000I0J-200000D01*
G01*
X58675000Y-111475000D01*
G75*
G02*
X58475000Y-111675000I-200000J0D01*
G01*
X57925000Y-111675000D01*
G75*
G02*
X57725000Y-111475000I0J200000D01*
G01*
X57725000Y-111075000D01*
G75*
G02*
X57925000Y-110875000I200000J0D01*
G01*
G37*
G36*
G01*
X57925000Y-109225000D02*
X58475000Y-109225000D01*
G75*
G02*
X58675000Y-109425000I0J-200000D01*
G01*
X58675000Y-109825000D01*
G75*
G02*
X58475000Y-110025000I-200000J0D01*
G01*
X57925000Y-110025000D01*
G75*
G02*
X57725000Y-109825000I0J200000D01*
G01*
X57725000Y-109425000D01*
G75*
G02*
X57925000Y-109225000I200000J0D01*
G01*
G37*
%TD*%
%TO.C,R8*%
G36*
G01*
X59525000Y-115375000D02*
X60075000Y-115375000D01*
G75*
G02*
X60275000Y-115575000I0J-200000D01*
G01*
X60275000Y-115975000D01*
G75*
G02*
X60075000Y-116175000I-200000J0D01*
G01*
X59525000Y-116175000D01*
G75*
G02*
X59325000Y-115975000I0J200000D01*
G01*
X59325000Y-115575000D01*
G75*
G02*
X59525000Y-115375000I200000J0D01*
G01*
G37*
G36*
G01*
X59525000Y-113725000D02*
X60075000Y-113725000D01*
G75*
G02*
X60275000Y-113925000I0J-200000D01*
G01*
X60275000Y-114325000D01*
G75*
G02*
X60075000Y-114525000I-200000J0D01*
G01*
X59525000Y-114525000D01*
G75*
G02*
X59325000Y-114325000I0J200000D01*
G01*
X59325000Y-113925000D01*
G75*
G02*
X59525000Y-113725000I200000J0D01*
G01*
G37*
%TD*%
%TO.C,R7*%
G36*
G01*
X62225000Y-112425000D02*
X62225000Y-111875000D01*
G75*
G02*
X62425000Y-111675000I200000J0D01*
G01*
X62825000Y-111675000D01*
G75*
G02*
X63025000Y-111875000I0J-200000D01*
G01*
X63025000Y-112425000D01*
G75*
G02*
X62825000Y-112625000I-200000J0D01*
G01*
X62425000Y-112625000D01*
G75*
G02*
X62225000Y-112425000I0J200000D01*
G01*
G37*
G36*
G01*
X60575000Y-112425000D02*
X60575000Y-111875000D01*
G75*
G02*
X60775000Y-111675000I200000J0D01*
G01*
X61175000Y-111675000D01*
G75*
G02*
X61375000Y-111875000I0J-200000D01*
G01*
X61375000Y-112425000D01*
G75*
G02*
X61175000Y-112625000I-200000J0D01*
G01*
X60775000Y-112625000D01*
G75*
G02*
X60575000Y-112425000I0J200000D01*
G01*
G37*
%TD*%
%TO.C,R6*%
G36*
G01*
X56925000Y-123425000D02*
X56925000Y-122875000D01*
G75*
G02*
X57125000Y-122675000I200000J0D01*
G01*
X57525000Y-122675000D01*
G75*
G02*
X57725000Y-122875000I0J-200000D01*
G01*
X57725000Y-123425000D01*
G75*
G02*
X57525000Y-123625000I-200000J0D01*
G01*
X57125000Y-123625000D01*
G75*
G02*
X56925000Y-123425000I0J200000D01*
G01*
G37*
G36*
G01*
X55275000Y-123425000D02*
X55275000Y-122875000D01*
G75*
G02*
X55475000Y-122675000I200000J0D01*
G01*
X55875000Y-122675000D01*
G75*
G02*
X56075000Y-122875000I0J-200000D01*
G01*
X56075000Y-123425000D01*
G75*
G02*
X55875000Y-123625000I-200000J0D01*
G01*
X55475000Y-123625000D01*
G75*
G02*
X55275000Y-123425000I0J200000D01*
G01*
G37*
%TD*%
%TO.C,R5*%
G36*
G01*
X56725000Y-129825000D02*
X56725000Y-129275000D01*
G75*
G02*
X56925000Y-129075000I200000J0D01*
G01*
X57325000Y-129075000D01*
G75*
G02*
X57525000Y-129275000I0J-200000D01*
G01*
X57525000Y-129825000D01*
G75*
G02*
X57325000Y-130025000I-200000J0D01*
G01*
X56925000Y-130025000D01*
G75*
G02*
X56725000Y-129825000I0J200000D01*
G01*
G37*
G36*
G01*
X55075000Y-129825000D02*
X55075000Y-129275000D01*
G75*
G02*
X55275000Y-129075000I200000J0D01*
G01*
X55675000Y-129075000D01*
G75*
G02*
X55875000Y-129275000I0J-200000D01*
G01*
X55875000Y-129825000D01*
G75*
G02*
X55675000Y-130025000I-200000J0D01*
G01*
X55275000Y-130025000D01*
G75*
G02*
X55075000Y-129825000I0J200000D01*
G01*
G37*
%TD*%
%TO.C,R4*%
G36*
G01*
X51825000Y-114675000D02*
X52375000Y-114675000D01*
G75*
G02*
X52575000Y-114875000I0J-200000D01*
G01*
X52575000Y-115275000D01*
G75*
G02*
X52375000Y-115475000I-200000J0D01*
G01*
X51825000Y-115475000D01*
G75*
G02*
X51625000Y-115275000I0J200000D01*
G01*
X51625000Y-114875000D01*
G75*
G02*
X51825000Y-114675000I200000J0D01*
G01*
G37*
G36*
G01*
X51825000Y-113025000D02*
X52375000Y-113025000D01*
G75*
G02*
X52575000Y-113225000I0J-200000D01*
G01*
X52575000Y-113625000D01*
G75*
G02*
X52375000Y-113825000I-200000J0D01*
G01*
X51825000Y-113825000D01*
G75*
G02*
X51625000Y-113625000I0J200000D01*
G01*
X51625000Y-113225000D01*
G75*
G02*
X51825000Y-113025000I200000J0D01*
G01*
G37*
%TD*%
%TO.C,R3*%
G36*
G01*
X51025000Y-110875000D02*
X51575000Y-110875000D01*
G75*
G02*
X51775000Y-111075000I0J-200000D01*
G01*
X51775000Y-111475000D01*
G75*
G02*
X51575000Y-111675000I-200000J0D01*
G01*
X51025000Y-111675000D01*
G75*
G02*
X50825000Y-111475000I0J200000D01*
G01*
X50825000Y-111075000D01*
G75*
G02*
X51025000Y-110875000I200000J0D01*
G01*
G37*
G36*
G01*
X51025000Y-109225000D02*
X51575000Y-109225000D01*
G75*
G02*
X51775000Y-109425000I0J-200000D01*
G01*
X51775000Y-109825000D01*
G75*
G02*
X51575000Y-110025000I-200000J0D01*
G01*
X51025000Y-110025000D01*
G75*
G02*
X50825000Y-109825000I0J200000D01*
G01*
X50825000Y-109425000D01*
G75*
G02*
X51025000Y-109225000I200000J0D01*
G01*
G37*
%TD*%
%TO.C,R2*%
G36*
G01*
X51825000Y-117775000D02*
X52375000Y-117775000D01*
G75*
G02*
X52575000Y-117975000I0J-200000D01*
G01*
X52575000Y-118375000D01*
G75*
G02*
X52375000Y-118575000I-200000J0D01*
G01*
X51825000Y-118575000D01*
G75*
G02*
X51625000Y-118375000I0J200000D01*
G01*
X51625000Y-117975000D01*
G75*
G02*
X51825000Y-117775000I200000J0D01*
G01*
G37*
G36*
G01*
X51825000Y-116125000D02*
X52375000Y-116125000D01*
G75*
G02*
X52575000Y-116325000I0J-200000D01*
G01*
X52575000Y-116725000D01*
G75*
G02*
X52375000Y-116925000I-200000J0D01*
G01*
X51825000Y-116925000D01*
G75*
G02*
X51625000Y-116725000I0J200000D01*
G01*
X51625000Y-116325000D01*
G75*
G02*
X51825000Y-116125000I200000J0D01*
G01*
G37*
%TD*%
%TO.C,R1*%
G36*
G01*
X85275000Y-102325000D02*
X84725000Y-102325000D01*
G75*
G02*
X84525000Y-102125000I0J200000D01*
G01*
X84525000Y-101725000D01*
G75*
G02*
X84725000Y-101525000I200000J0D01*
G01*
X85275000Y-101525000D01*
G75*
G02*
X85475000Y-101725000I0J-200000D01*
G01*
X85475000Y-102125000D01*
G75*
G02*
X85275000Y-102325000I-200000J0D01*
G01*
G37*
G36*
G01*
X85275000Y-103975000D02*
X84725000Y-103975000D01*
G75*
G02*
X84525000Y-103775000I0J200000D01*
G01*
X84525000Y-103375000D01*
G75*
G02*
X84725000Y-103175000I200000J0D01*
G01*
X85275000Y-103175000D01*
G75*
G02*
X85475000Y-103375000I0J-200000D01*
G01*
X85475000Y-103775000D01*
G75*
G02*
X85275000Y-103975000I-200000J0D01*
G01*
G37*
%TD*%
D10*
%TO.C,Q1*%
X61900000Y-115750000D03*
X62550000Y-113750000D03*
X61250000Y-113750000D03*
%TD*%
%TO.C,L1*%
G36*
G01*
X46781250Y-114825000D02*
X46018750Y-114825000D01*
G75*
G02*
X45800000Y-114606250I0J218750D01*
G01*
X45800000Y-114168750D01*
G75*
G02*
X46018750Y-113950000I218750J0D01*
G01*
X46781250Y-113950000D01*
G75*
G02*
X47000000Y-114168750I0J-218750D01*
G01*
X47000000Y-114606250D01*
G75*
G02*
X46781250Y-114825000I-218750J0D01*
G01*
G37*
G36*
G01*
X46781250Y-116950000D02*
X46018750Y-116950000D01*
G75*
G02*
X45800000Y-116731250I0J218750D01*
G01*
X45800000Y-116293750D01*
G75*
G02*
X46018750Y-116075000I218750J0D01*
G01*
X46781250Y-116075000D01*
G75*
G02*
X47000000Y-116293750I0J-218750D01*
G01*
X47000000Y-116731250D01*
G75*
G02*
X46781250Y-116950000I-218750J0D01*
G01*
G37*
%TD*%
%TO.C,FB3*%
G36*
G01*
X54956250Y-116387500D02*
X54443750Y-116387500D01*
G75*
G02*
X54225000Y-116168750I0J218750D01*
G01*
X54225000Y-115731250D01*
G75*
G02*
X54443750Y-115512500I218750J0D01*
G01*
X54956250Y-115512500D01*
G75*
G02*
X55175000Y-115731250I0J-218750D01*
G01*
X55175000Y-116168750D01*
G75*
G02*
X54956250Y-116387500I-218750J0D01*
G01*
G37*
G36*
G01*
X54956250Y-117962500D02*
X54443750Y-117962500D01*
G75*
G02*
X54225000Y-117743750I0J218750D01*
G01*
X54225000Y-117306250D01*
G75*
G02*
X54443750Y-117087500I218750J0D01*
G01*
X54956250Y-117087500D01*
G75*
G02*
X55175000Y-117306250I0J-218750D01*
G01*
X55175000Y-117743750D01*
G75*
G02*
X54956250Y-117962500I-218750J0D01*
G01*
G37*
%TD*%
%TO.C,FB2*%
G36*
G01*
X60256250Y-122800000D02*
X59743750Y-122800000D01*
G75*
G02*
X59525000Y-122581250I0J218750D01*
G01*
X59525000Y-122143750D01*
G75*
G02*
X59743750Y-121925000I218750J0D01*
G01*
X60256250Y-121925000D01*
G75*
G02*
X60475000Y-122143750I0J-218750D01*
G01*
X60475000Y-122581250D01*
G75*
G02*
X60256250Y-122800000I-218750J0D01*
G01*
G37*
G36*
G01*
X60256250Y-124375000D02*
X59743750Y-124375000D01*
G75*
G02*
X59525000Y-124156250I0J218750D01*
G01*
X59525000Y-123718750D01*
G75*
G02*
X59743750Y-123500000I218750J0D01*
G01*
X60256250Y-123500000D01*
G75*
G02*
X60475000Y-123718750I0J-218750D01*
G01*
X60475000Y-124156250D01*
G75*
G02*
X60256250Y-124375000I-218750J0D01*
G01*
G37*
%TD*%
%TO.C,FB1*%
G36*
G01*
X60156250Y-129450000D02*
X59643750Y-129450000D01*
G75*
G02*
X59425000Y-129231250I0J218750D01*
G01*
X59425000Y-128793750D01*
G75*
G02*
X59643750Y-128575000I218750J0D01*
G01*
X60156250Y-128575000D01*
G75*
G02*
X60375000Y-128793750I0J-218750D01*
G01*
X60375000Y-129231250D01*
G75*
G02*
X60156250Y-129450000I-218750J0D01*
G01*
G37*
G36*
G01*
X60156250Y-131025000D02*
X59643750Y-131025000D01*
G75*
G02*
X59425000Y-130806250I0J218750D01*
G01*
X59425000Y-130368750D01*
G75*
G02*
X59643750Y-130150000I218750J0D01*
G01*
X60156250Y-130150000D01*
G75*
G02*
X60375000Y-130368750I0J-218750D01*
G01*
X60375000Y-130806250D01*
G75*
G02*
X60156250Y-131025000I-218750J0D01*
G01*
G37*
%TD*%
D11*
%TO.C,D2*%
X46300000Y-112900000D03*
X46300000Y-109600000D03*
%TD*%
%TO.C,D1*%
G36*
G01*
X84743750Y-100100000D02*
X85256250Y-100100000D01*
G75*
G02*
X85475000Y-100318750I0J-218750D01*
G01*
X85475000Y-100756250D01*
G75*
G02*
X85256250Y-100975000I-218750J0D01*
G01*
X84743750Y-100975000D01*
G75*
G02*
X84525000Y-100756250I0J218750D01*
G01*
X84525000Y-100318750D01*
G75*
G02*
X84743750Y-100100000I218750J0D01*
G01*
G37*
G36*
G01*
X84743750Y-98525000D02*
X85256250Y-98525000D01*
G75*
G02*
X85475000Y-98743750I0J-218750D01*
G01*
X85475000Y-99181250D01*
G75*
G02*
X85256250Y-99400000I-218750J0D01*
G01*
X84743750Y-99400000D01*
G75*
G02*
X84525000Y-99181250I0J218750D01*
G01*
X84525000Y-98743750D01*
G75*
G02*
X84743750Y-98525000I218750J0D01*
G01*
G37*
%TD*%
%TO.C,C15*%
G36*
G01*
X56850000Y-116400000D02*
X56350000Y-116400000D01*
G75*
G02*
X56125000Y-116175000I0J225000D01*
G01*
X56125000Y-115725000D01*
G75*
G02*
X56350000Y-115500000I225000J0D01*
G01*
X56850000Y-115500000D01*
G75*
G02*
X57075000Y-115725000I0J-225000D01*
G01*
X57075000Y-116175000D01*
G75*
G02*
X56850000Y-116400000I-225000J0D01*
G01*
G37*
G36*
G01*
X56850000Y-117950000D02*
X56350000Y-117950000D01*
G75*
G02*
X56125000Y-117725000I0J225000D01*
G01*
X56125000Y-117275000D01*
G75*
G02*
X56350000Y-117050000I225000J0D01*
G01*
X56850000Y-117050000D01*
G75*
G02*
X57075000Y-117275000I0J-225000D01*
G01*
X57075000Y-117725000D01*
G75*
G02*
X56850000Y-117950000I-225000J0D01*
G01*
G37*
%TD*%
%TO.C,C14*%
G36*
G01*
X60250000Y-119825000D02*
X59750000Y-119825000D01*
G75*
G02*
X59525000Y-119600000I0J225000D01*
G01*
X59525000Y-119150000D01*
G75*
G02*
X59750000Y-118925000I225000J0D01*
G01*
X60250000Y-118925000D01*
G75*
G02*
X60475000Y-119150000I0J-225000D01*
G01*
X60475000Y-119600000D01*
G75*
G02*
X60250000Y-119825000I-225000J0D01*
G01*
G37*
G36*
G01*
X60250000Y-121375000D02*
X59750000Y-121375000D01*
G75*
G02*
X59525000Y-121150000I0J225000D01*
G01*
X59525000Y-120700000D01*
G75*
G02*
X59750000Y-120475000I225000J0D01*
G01*
X60250000Y-120475000D01*
G75*
G02*
X60475000Y-120700000I0J-225000D01*
G01*
X60475000Y-121150000D01*
G75*
G02*
X60250000Y-121375000I-225000J0D01*
G01*
G37*
%TD*%
%TO.C,C13*%
G36*
G01*
X60150000Y-126425000D02*
X59650000Y-126425000D01*
G75*
G02*
X59425000Y-126200000I0J225000D01*
G01*
X59425000Y-125750000D01*
G75*
G02*
X59650000Y-125525000I225000J0D01*
G01*
X60150000Y-125525000D01*
G75*
G02*
X60375000Y-125750000I0J-225000D01*
G01*
X60375000Y-126200000D01*
G75*
G02*
X60150000Y-126425000I-225000J0D01*
G01*
G37*
G36*
G01*
X60150000Y-127975000D02*
X59650000Y-127975000D01*
G75*
G02*
X59425000Y-127750000I0J225000D01*
G01*
X59425000Y-127300000D01*
G75*
G02*
X59650000Y-127075000I225000J0D01*
G01*
X60150000Y-127075000D01*
G75*
G02*
X60375000Y-127300000I0J-225000D01*
G01*
X60375000Y-127750000D01*
G75*
G02*
X60150000Y-127975000I-225000J0D01*
G01*
G37*
%TD*%
%TO.C,C12*%
G36*
G01*
X49550000Y-110775000D02*
X50050000Y-110775000D01*
G75*
G02*
X50275000Y-111000000I0J-225000D01*
G01*
X50275000Y-111450000D01*
G75*
G02*
X50050000Y-111675000I-225000J0D01*
G01*
X49550000Y-111675000D01*
G75*
G02*
X49325000Y-111450000I0J225000D01*
G01*
X49325000Y-111000000D01*
G75*
G02*
X49550000Y-110775000I225000J0D01*
G01*
G37*
G36*
G01*
X49550000Y-109225000D02*
X50050000Y-109225000D01*
G75*
G02*
X50275000Y-109450000I0J-225000D01*
G01*
X50275000Y-109900000D01*
G75*
G02*
X50050000Y-110125000I-225000J0D01*
G01*
X49550000Y-110125000D01*
G75*
G02*
X49325000Y-109900000I0J225000D01*
G01*
X49325000Y-109450000D01*
G75*
G02*
X49550000Y-109225000I225000J0D01*
G01*
G37*
%TD*%
%TO.C,C11*%
G36*
G01*
X54250000Y-120425000D02*
X53750000Y-120425000D01*
G75*
G02*
X53525000Y-120200000I0J225000D01*
G01*
X53525000Y-119750000D01*
G75*
G02*
X53750000Y-119525000I225000J0D01*
G01*
X54250000Y-119525000D01*
G75*
G02*
X54475000Y-119750000I0J-225000D01*
G01*
X54475000Y-120200000D01*
G75*
G02*
X54250000Y-120425000I-225000J0D01*
G01*
G37*
G36*
G01*
X54250000Y-121975000D02*
X53750000Y-121975000D01*
G75*
G02*
X53525000Y-121750000I0J225000D01*
G01*
X53525000Y-121300000D01*
G75*
G02*
X53750000Y-121075000I225000J0D01*
G01*
X54250000Y-121075000D01*
G75*
G02*
X54475000Y-121300000I0J-225000D01*
G01*
X54475000Y-121750000D01*
G75*
G02*
X54250000Y-121975000I-225000J0D01*
G01*
G37*
%TD*%
%TO.C,C10*%
G36*
G01*
X54150000Y-126825000D02*
X53650000Y-126825000D01*
G75*
G02*
X53425000Y-126600000I0J225000D01*
G01*
X53425000Y-126150000D01*
G75*
G02*
X53650000Y-125925000I225000J0D01*
G01*
X54150000Y-125925000D01*
G75*
G02*
X54375000Y-126150000I0J-225000D01*
G01*
X54375000Y-126600000D01*
G75*
G02*
X54150000Y-126825000I-225000J0D01*
G01*
G37*
G36*
G01*
X54150000Y-128375000D02*
X53650000Y-128375000D01*
G75*
G02*
X53425000Y-128150000I0J225000D01*
G01*
X53425000Y-127700000D01*
G75*
G02*
X53650000Y-127475000I225000J0D01*
G01*
X54150000Y-127475000D01*
G75*
G02*
X54375000Y-127700000I0J-225000D01*
G01*
X54375000Y-128150000D01*
G75*
G02*
X54150000Y-128375000I-225000J0D01*
G01*
G37*
%TD*%
%TO.C,C9*%
G36*
G01*
X48050000Y-110775000D02*
X48550000Y-110775000D01*
G75*
G02*
X48775000Y-111000000I0J-225000D01*
G01*
X48775000Y-111450000D01*
G75*
G02*
X48550000Y-111675000I-225000J0D01*
G01*
X48050000Y-111675000D01*
G75*
G02*
X47825000Y-111450000I0J225000D01*
G01*
X47825000Y-111000000D01*
G75*
G02*
X48050000Y-110775000I225000J0D01*
G01*
G37*
G36*
G01*
X48050000Y-109225000D02*
X48550000Y-109225000D01*
G75*
G02*
X48775000Y-109450000I0J-225000D01*
G01*
X48775000Y-109900000D01*
G75*
G02*
X48550000Y-110125000I-225000J0D01*
G01*
X48050000Y-110125000D01*
G75*
G02*
X47825000Y-109900000I0J225000D01*
G01*
X47825000Y-109450000D01*
G75*
G02*
X48050000Y-109225000I225000J0D01*
G01*
G37*
%TD*%
%TO.C,C8*%
G36*
G01*
X52550000Y-110775000D02*
X53050000Y-110775000D01*
G75*
G02*
X53275000Y-111000000I0J-225000D01*
G01*
X53275000Y-111450000D01*
G75*
G02*
X53050000Y-111675000I-225000J0D01*
G01*
X52550000Y-111675000D01*
G75*
G02*
X52325000Y-111450000I0J225000D01*
G01*
X52325000Y-111000000D01*
G75*
G02*
X52550000Y-110775000I225000J0D01*
G01*
G37*
G36*
G01*
X52550000Y-109225000D02*
X53050000Y-109225000D01*
G75*
G02*
X53275000Y-109450000I0J-225000D01*
G01*
X53275000Y-109900000D01*
G75*
G02*
X53050000Y-110125000I-225000J0D01*
G01*
X52550000Y-110125000D01*
G75*
G02*
X52325000Y-109900000I0J225000D01*
G01*
X52325000Y-109450000D01*
G75*
G02*
X52550000Y-109225000I225000J0D01*
G01*
G37*
%TD*%
%TO.C,C7*%
G36*
G01*
X49525000Y-118400000D02*
X49525000Y-117900000D01*
G75*
G02*
X49750000Y-117675000I225000J0D01*
G01*
X50200000Y-117675000D01*
G75*
G02*
X50425000Y-117900000I0J-225000D01*
G01*
X50425000Y-118400000D01*
G75*
G02*
X50200000Y-118625000I-225000J0D01*
G01*
X49750000Y-118625000D01*
G75*
G02*
X49525000Y-118400000I0J225000D01*
G01*
G37*
G36*
G01*
X47975000Y-118400000D02*
X47975000Y-117900000D01*
G75*
G02*
X48200000Y-117675000I225000J0D01*
G01*
X48650000Y-117675000D01*
G75*
G02*
X48875000Y-117900000I0J-225000D01*
G01*
X48875000Y-118400000D01*
G75*
G02*
X48650000Y-118625000I-225000J0D01*
G01*
X48200000Y-118625000D01*
G75*
G02*
X47975000Y-118400000I0J225000D01*
G01*
G37*
%TD*%
%TO.C,C6*%
G36*
G01*
X62050000Y-122825000D02*
X61550000Y-122825000D01*
G75*
G02*
X61325000Y-122600000I0J225000D01*
G01*
X61325000Y-122150000D01*
G75*
G02*
X61550000Y-121925000I225000J0D01*
G01*
X62050000Y-121925000D01*
G75*
G02*
X62275000Y-122150000I0J-225000D01*
G01*
X62275000Y-122600000D01*
G75*
G02*
X62050000Y-122825000I-225000J0D01*
G01*
G37*
G36*
G01*
X62050000Y-124375000D02*
X61550000Y-124375000D01*
G75*
G02*
X61325000Y-124150000I0J225000D01*
G01*
X61325000Y-123700000D01*
G75*
G02*
X61550000Y-123475000I225000J0D01*
G01*
X62050000Y-123475000D01*
G75*
G02*
X62275000Y-123700000I0J-225000D01*
G01*
X62275000Y-124150000D01*
G75*
G02*
X62050000Y-124375000I-225000J0D01*
G01*
G37*
%TD*%
%TO.C,C5*%
G36*
G01*
X63550000Y-122825000D02*
X63050000Y-122825000D01*
G75*
G02*
X62825000Y-122600000I0J225000D01*
G01*
X62825000Y-122150000D01*
G75*
G02*
X63050000Y-121925000I225000J0D01*
G01*
X63550000Y-121925000D01*
G75*
G02*
X63775000Y-122150000I0J-225000D01*
G01*
X63775000Y-122600000D01*
G75*
G02*
X63550000Y-122825000I-225000J0D01*
G01*
G37*
G36*
G01*
X63550000Y-124375000D02*
X63050000Y-124375000D01*
G75*
G02*
X62825000Y-124150000I0J225000D01*
G01*
X62825000Y-123700000D01*
G75*
G02*
X63050000Y-123475000I225000J0D01*
G01*
X63550000Y-123475000D01*
G75*
G02*
X63775000Y-123700000I0J-225000D01*
G01*
X63775000Y-124150000D01*
G75*
G02*
X63550000Y-124375000I-225000J0D01*
G01*
G37*
%TD*%
%TO.C,C4*%
G36*
G01*
X64050000Y-133675000D02*
X64550000Y-133675000D01*
G75*
G02*
X64775000Y-133900000I0J-225000D01*
G01*
X64775000Y-134350000D01*
G75*
G02*
X64550000Y-134575000I-225000J0D01*
G01*
X64050000Y-134575000D01*
G75*
G02*
X63825000Y-134350000I0J225000D01*
G01*
X63825000Y-133900000D01*
G75*
G02*
X64050000Y-133675000I225000J0D01*
G01*
G37*
G36*
G01*
X64050000Y-132125000D02*
X64550000Y-132125000D01*
G75*
G02*
X64775000Y-132350000I0J-225000D01*
G01*
X64775000Y-132800000D01*
G75*
G02*
X64550000Y-133025000I-225000J0D01*
G01*
X64050000Y-133025000D01*
G75*
G02*
X63825000Y-132800000I0J225000D01*
G01*
X63825000Y-132350000D01*
G75*
G02*
X64050000Y-132125000I225000J0D01*
G01*
G37*
%TD*%
%TO.C,C3*%
G36*
G01*
X69550000Y-133475000D02*
X70050000Y-133475000D01*
G75*
G02*
X70275000Y-133700000I0J-225000D01*
G01*
X70275000Y-134150000D01*
G75*
G02*
X70050000Y-134375000I-225000J0D01*
G01*
X69550000Y-134375000D01*
G75*
G02*
X69325000Y-134150000I0J225000D01*
G01*
X69325000Y-133700000D01*
G75*
G02*
X69550000Y-133475000I225000J0D01*
G01*
G37*
G36*
G01*
X69550000Y-131925000D02*
X70050000Y-131925000D01*
G75*
G02*
X70275000Y-132150000I0J-225000D01*
G01*
X70275000Y-132600000D01*
G75*
G02*
X70050000Y-132825000I-225000J0D01*
G01*
X69550000Y-132825000D01*
G75*
G02*
X69325000Y-132600000I0J225000D01*
G01*
X69325000Y-132150000D01*
G75*
G02*
X69550000Y-131925000I225000J0D01*
G01*
G37*
%TD*%
%TO.C,C2*%
G36*
G01*
X62550000Y-133675000D02*
X63050000Y-133675000D01*
G75*
G02*
X63275000Y-133900000I0J-225000D01*
G01*
X63275000Y-134350000D01*
G75*
G02*
X63050000Y-134575000I-225000J0D01*
G01*
X62550000Y-134575000D01*
G75*
G02*
X62325000Y-134350000I0J225000D01*
G01*
X62325000Y-133900000D01*
G75*
G02*
X62550000Y-133675000I225000J0D01*
G01*
G37*
G36*
G01*
X62550000Y-132125000D02*
X63050000Y-132125000D01*
G75*
G02*
X63275000Y-132350000I0J-225000D01*
G01*
X63275000Y-132800000D01*
G75*
G02*
X63050000Y-133025000I-225000J0D01*
G01*
X62550000Y-133025000D01*
G75*
G02*
X62325000Y-132800000I0J225000D01*
G01*
X62325000Y-132350000D01*
G75*
G02*
X62550000Y-132125000I225000J0D01*
G01*
G37*
%TD*%
%TO.C,C1*%
G36*
G01*
X71050000Y-133475000D02*
X71550000Y-133475000D01*
G75*
G02*
X71775000Y-133700000I0J-225000D01*
G01*
X71775000Y-134150000D01*
G75*
G02*
X71550000Y-134375000I-225000J0D01*
G01*
X71050000Y-134375000D01*
G75*
G02*
X70825000Y-134150000I0J225000D01*
G01*
X70825000Y-133700000D01*
G75*
G02*
X71050000Y-133475000I225000J0D01*
G01*
G37*
G36*
G01*
X71050000Y-131925000D02*
X71550000Y-131925000D01*
G75*
G02*
X71775000Y-132150000I0J-225000D01*
G01*
X71775000Y-132600000D01*
G75*
G02*
X71550000Y-132825000I-225000J0D01*
G01*
X71050000Y-132825000D01*
G75*
G02*
X70825000Y-132600000I0J225000D01*
G01*
X70825000Y-132150000D01*
G75*
G02*
X71050000Y-131925000I225000J0D01*
G01*
G37*
%TD*%
M02*
