%TF.GenerationSoftware,KiCad,Pcbnew,5.1.10-88a1d61d58~88~ubuntu20.04.1*%
%TF.CreationDate,2021-05-19T13:37:25+03:00*%
%TF.ProjectId,isc0901b0-breakout,69736330-3930-4316-9230-2d627265616b,rev2*%
%TF.SameCoordinates,Original*%
%TF.FileFunction,Paste,Top*%
%TF.FilePolarity,Positive*%
%FSLAX46Y46*%
G04 Gerber Fmt 4.6, Leading zero omitted, Abs format (unit mm)*
G04 Created by KiCad (PCBNEW 5.1.10-88a1d61d58~88~ubuntu20.04.1) date 2021-05-19 13:37:25*
%MOMM*%
%LPD*%
G01*
G04 APERTURE LIST*
%ADD10R,0.400000X0.900000*%
%ADD11R,0.250000X1.800000*%
G04 APERTURE END LIST*
D10*
%TO.C,RN3*%
X72200000Y-105550000D03*
X71400000Y-105550000D03*
X70600000Y-105550000D03*
X69800000Y-105550000D03*
X72200000Y-107250000D03*
X69800000Y-107250000D03*
X71400000Y-107250000D03*
X70600000Y-107250000D03*
%TD*%
%TO.C,RN2*%
X66450000Y-105550000D03*
X65650000Y-105550000D03*
X64850000Y-105550000D03*
X64050000Y-105550000D03*
X66450000Y-107250000D03*
X64050000Y-107250000D03*
X65650000Y-107250000D03*
X64850000Y-107250000D03*
%TD*%
%TO.C,RN1*%
X57100000Y-105550000D03*
X56300000Y-105550000D03*
X55500000Y-105550000D03*
X54700000Y-105550000D03*
X57100000Y-107250000D03*
X54700000Y-107250000D03*
X56300000Y-107250000D03*
X55500000Y-107250000D03*
%TD*%
D11*
%TO.C,J2*%
X71300000Y-126100000D03*
X70800000Y-126100000D03*
X70300000Y-126100000D03*
X69800000Y-126100000D03*
X69300000Y-126100000D03*
X68800000Y-126100000D03*
X68300000Y-126100000D03*
X67800000Y-126100000D03*
X67300000Y-126100000D03*
X66800000Y-126100000D03*
X66300000Y-126100000D03*
X65800000Y-126100000D03*
X65300000Y-126100000D03*
X64800000Y-126100000D03*
X64300000Y-126100000D03*
X63800000Y-126100000D03*
X63300000Y-126100000D03*
X62800000Y-126100000D03*
X62300000Y-126100000D03*
X61800000Y-126100000D03*
X61800000Y-130100000D03*
X62300000Y-130100000D03*
X62800000Y-130100000D03*
X63300000Y-130100000D03*
X63800000Y-130100000D03*
X64300000Y-130100000D03*
X64800000Y-130100000D03*
X65300000Y-130100000D03*
X65800000Y-130100000D03*
X66300000Y-130100000D03*
X66800000Y-130100000D03*
X67300000Y-130100000D03*
X67800000Y-130100000D03*
X68300000Y-130100000D03*
X68800000Y-130100000D03*
X69300000Y-130100000D03*
X69800000Y-130100000D03*
X70300000Y-130100000D03*
X70800000Y-130100000D03*
X71300000Y-130100000D03*
%TD*%
M02*
