%TF.GenerationSoftware,KiCad,Pcbnew,5.1.10-88a1d61d58~88~ubuntu20.04.1*%
%TF.CreationDate,2021-05-19T13:37:25+03:00*%
%TF.ProjectId,isc0901b0-breakout,69736330-3930-4316-9230-2d627265616b,rev2*%
%TF.SameCoordinates,Original*%
%TF.FileFunction,Legend,Bot*%
%TF.FilePolarity,Positive*%
%FSLAX46Y46*%
G04 Gerber Fmt 4.6, Leading zero omitted, Abs format (unit mm)*
G04 Created by KiCad (PCBNEW 5.1.10-88a1d61d58~88~ubuntu20.04.1) date 2021-05-19 13:37:25*
%MOMM*%
%LPD*%
G01*
G04 APERTURE LIST*
%ADD10C,0.200000*%
%ADD11C,0.150000*%
%ADD12C,0.120000*%
G04 APERTURE END LIST*
D10*
X55028571Y-123157142D02*
X54419047Y-123157142D01*
X54723809Y-123461904D02*
X54723809Y-122852380D01*
X53657142Y-122661904D02*
X54038095Y-122661904D01*
X54076190Y-123042857D01*
X54038095Y-123004761D01*
X53961904Y-122966666D01*
X53771428Y-122966666D01*
X53695238Y-123004761D01*
X53657142Y-123042857D01*
X53619047Y-123119047D01*
X53619047Y-123309523D01*
X53657142Y-123385714D01*
X53695238Y-123423809D01*
X53771428Y-123461904D01*
X53961904Y-123461904D01*
X54038095Y-123423809D01*
X54076190Y-123385714D01*
X53390476Y-122661904D02*
X53123809Y-123461904D01*
X52857142Y-122661904D01*
X54609523Y-124100000D02*
X54685714Y-124061904D01*
X54800000Y-124061904D01*
X54914285Y-124100000D01*
X54990476Y-124176190D01*
X55028571Y-124252380D01*
X55066666Y-124404761D01*
X55066666Y-124519047D01*
X55028571Y-124671428D01*
X54990476Y-124747619D01*
X54914285Y-124823809D01*
X54800000Y-124861904D01*
X54723809Y-124861904D01*
X54609523Y-124823809D01*
X54571428Y-124785714D01*
X54571428Y-124519047D01*
X54723809Y-124519047D01*
X54228571Y-124861904D02*
X54228571Y-124061904D01*
X53771428Y-124861904D01*
X53771428Y-124061904D01*
X53390476Y-124861904D02*
X53390476Y-124061904D01*
X53200000Y-124061904D01*
X53085714Y-124100000D01*
X53009523Y-124176190D01*
X52971428Y-124252380D01*
X52933333Y-124404761D01*
X52933333Y-124519047D01*
X52971428Y-124671428D01*
X53009523Y-124747619D01*
X53085714Y-124823809D01*
X53200000Y-124861904D01*
X53390476Y-124861904D01*
D11*
X72242115Y-94155719D02*
X72477817Y-93920016D01*
X71982842Y-93425042D01*
X71817851Y-94061438D02*
X71652859Y-94226429D01*
X71841421Y-94556412D02*
X72077123Y-94320710D01*
X71582148Y-93825735D01*
X71346446Y-94061438D01*
X71629289Y-94768544D02*
X71134314Y-94273570D01*
X71016463Y-94391421D01*
X70969322Y-94485702D01*
X70969322Y-94579983D01*
X70992893Y-94650693D01*
X71063603Y-94768544D01*
X71134314Y-94839255D01*
X71252165Y-94909966D01*
X71322876Y-94933536D01*
X71417157Y-94933536D01*
X71511438Y-94886396D01*
X71629289Y-94768544D01*
X73973223Y-93984661D02*
X74208925Y-93748959D01*
X74468198Y-93961091D01*
X74421057Y-93961091D01*
X74350346Y-93984661D01*
X74232495Y-94102512D01*
X74208925Y-94173223D01*
X74208925Y-94220363D01*
X74232495Y-94291074D01*
X74350346Y-94408925D01*
X74421057Y-94432495D01*
X74468198Y-94432495D01*
X74538908Y-94408925D01*
X74656759Y-94291074D01*
X74680330Y-94220363D01*
X74680330Y-94173223D01*
X73808231Y-94149653D02*
X74138214Y-94809619D01*
X73478248Y-94479636D01*
X74029636Y-105125389D02*
X74053206Y-105054678D01*
X74123917Y-104983967D01*
X74218198Y-104936827D01*
X74312478Y-104936827D01*
X74383189Y-104960397D01*
X74501040Y-105031108D01*
X74571751Y-105101818D01*
X74642462Y-105219669D01*
X74666032Y-105290380D01*
X74666032Y-105384661D01*
X74618891Y-105478942D01*
X74571751Y-105526082D01*
X74477470Y-105573223D01*
X74430330Y-105573223D01*
X74265338Y-105408231D01*
X74359619Y-105313950D01*
X74265338Y-105832495D02*
X73770363Y-105337521D01*
X73982495Y-106115338D01*
X73487521Y-105620363D01*
X73746793Y-106351040D02*
X73251818Y-105856066D01*
X73133967Y-105973917D01*
X73086827Y-106068198D01*
X73086827Y-106162478D01*
X73110397Y-106233189D01*
X73181108Y-106351040D01*
X73251818Y-106421751D01*
X73369669Y-106492462D01*
X73440380Y-106516032D01*
X73534661Y-106516032D01*
X73628942Y-106468891D01*
X73746793Y-106351040D01*
X72358841Y-105341852D02*
X72311700Y-105436133D01*
X72193849Y-105553984D01*
X72123139Y-105577554D01*
X72075998Y-105577554D01*
X72005287Y-105553984D01*
X71958147Y-105506844D01*
X71934577Y-105436133D01*
X71934577Y-105388992D01*
X71958147Y-105318282D01*
X72028858Y-105200431D01*
X72052428Y-105129720D01*
X72052428Y-105082579D01*
X72028858Y-105011869D01*
X71981717Y-104964728D01*
X71911007Y-104941158D01*
X71863866Y-104941158D01*
X71793155Y-104964728D01*
X71675304Y-105082579D01*
X71628164Y-105176860D01*
X71887436Y-105860397D02*
X71392462Y-105365422D01*
X71628164Y-105601124D02*
X71345321Y-105883967D01*
X71604594Y-106143240D02*
X71109619Y-105648265D01*
X70873917Y-105883967D02*
X71274610Y-106284661D01*
X71298181Y-106355372D01*
X71298181Y-106402512D01*
X71274610Y-106473223D01*
X71180330Y-106567504D01*
X71109619Y-106591074D01*
X71062478Y-106591074D01*
X70991768Y-106567504D01*
X70591074Y-106166810D01*
X70426082Y-106331801D02*
X70143240Y-106614644D01*
X70779636Y-106968198D02*
X70284661Y-106473223D01*
X70048959Y-106708925D02*
X69766116Y-106991768D01*
X70402512Y-107345321D02*
X69907537Y-106850346D01*
X69836827Y-107392462D02*
X69671835Y-107557453D01*
X69860397Y-107887436D02*
X70096099Y-107651734D01*
X69601124Y-107156759D01*
X69365422Y-107392462D01*
X69365422Y-108382411D02*
X69294712Y-107981717D01*
X69648265Y-108099568D02*
X69153290Y-107604594D01*
X68964728Y-107793155D01*
X68941158Y-107863866D01*
X68941158Y-107911007D01*
X68964728Y-107981717D01*
X69035439Y-108052428D01*
X69106150Y-108075998D01*
X69153290Y-108075998D01*
X69224001Y-108052428D01*
X69412563Y-107863866D01*
X69542115Y-105187174D02*
X69377123Y-105352165D01*
X69565685Y-105682148D02*
X69801387Y-105446446D01*
X69306412Y-104951471D01*
X69070710Y-105187174D01*
X69353553Y-105894280D02*
X68858578Y-105399306D01*
X69070710Y-106177123D01*
X68575735Y-105682148D01*
X68717157Y-106247834D02*
X68481455Y-106483536D01*
X68905719Y-106342115D02*
X68245752Y-106012132D01*
X68575735Y-106672098D01*
X70303900Y-93999653D02*
X70351040Y-93999653D01*
X70445321Y-93952512D01*
X70492462Y-93905372D01*
X70539602Y-93811091D01*
X70539602Y-93716810D01*
X70516032Y-93646099D01*
X70445321Y-93528248D01*
X70374610Y-93457537D01*
X70256759Y-93386827D01*
X70186049Y-93363256D01*
X70091768Y-93363256D01*
X69997487Y-93410397D01*
X69950346Y-93457537D01*
X69903206Y-93551818D01*
X69903206Y-93598959D01*
X70138908Y-94258925D02*
X69643933Y-93763950D01*
X69832495Y-94282495D01*
X69313950Y-94093933D01*
X69808925Y-94588908D01*
X69573223Y-94824610D02*
X69078248Y-94329636D01*
X68960397Y-94447487D01*
X68913256Y-94541768D01*
X68913256Y-94636049D01*
X68936827Y-94706759D01*
X69007537Y-94824610D01*
X69078248Y-94895321D01*
X69196099Y-94966032D01*
X69266810Y-94989602D01*
X69361091Y-94989602D01*
X69455372Y-94942462D01*
X69573223Y-94824610D01*
X67159188Y-105438645D02*
X66664213Y-104943671D01*
X66546362Y-105061522D01*
X66499221Y-105155803D01*
X66499221Y-105250084D01*
X66522792Y-105320794D01*
X66593502Y-105438645D01*
X66664213Y-105509356D01*
X66782064Y-105580067D01*
X66852775Y-105603637D01*
X66947056Y-105603637D01*
X67041337Y-105556497D01*
X67159188Y-105438645D01*
X66546362Y-105768629D02*
X66310660Y-106004331D01*
X66734924Y-105862910D02*
X66074957Y-105532926D01*
X66404941Y-106192893D01*
X65815685Y-105792199D02*
X65532842Y-106075042D01*
X66169238Y-106428595D02*
X65674264Y-105933620D01*
X65744974Y-106570016D02*
X65509272Y-106805719D01*
X65933536Y-106664297D02*
X65273570Y-106334314D01*
X65603553Y-106994280D01*
X65603553Y-107088561D02*
X65226429Y-107465685D01*
X64472182Y-107135702D02*
X64377901Y-107229983D01*
X64354331Y-107300693D01*
X64354331Y-107394974D01*
X64425042Y-107512825D01*
X64590033Y-107677817D01*
X64707884Y-107748528D01*
X64802165Y-107748528D01*
X64872876Y-107724957D01*
X64967157Y-107630677D01*
X64990727Y-107559966D01*
X64990727Y-107465685D01*
X64920016Y-107347834D01*
X64755025Y-107182842D01*
X64637174Y-107112132D01*
X64542893Y-107112132D01*
X64472182Y-107135702D01*
X64542893Y-108054941D02*
X64047918Y-107559966D01*
X63930067Y-107677817D01*
X63882926Y-107772098D01*
X63882926Y-107866379D01*
X63906497Y-107937089D01*
X63977207Y-108054941D01*
X64047918Y-108125651D01*
X64165769Y-108196362D01*
X64236480Y-108219932D01*
X64330761Y-108219932D01*
X64425042Y-108172792D01*
X64542893Y-108054941D01*
X64047918Y-108549915D02*
X63552943Y-108054941D01*
X63435092Y-108172792D01*
X63387952Y-108267073D01*
X63387952Y-108361354D01*
X63411522Y-108432064D01*
X63482233Y-108549915D01*
X63552943Y-108620626D01*
X63670794Y-108691337D01*
X63741505Y-108714907D01*
X63835786Y-108714907D01*
X63930067Y-108667766D01*
X64047918Y-108549915D01*
X69978858Y-92968976D02*
X69483883Y-92474001D01*
X69366032Y-92591852D01*
X69318891Y-92686133D01*
X69318891Y-92780414D01*
X69342462Y-92851124D01*
X69413172Y-92968976D01*
X69483883Y-93039686D01*
X69601734Y-93110397D01*
X69672445Y-93133967D01*
X69766726Y-93133967D01*
X69861007Y-93086827D01*
X69978858Y-92968976D01*
X69366032Y-93298959D02*
X69130330Y-93534661D01*
X69554594Y-93393240D02*
X68894627Y-93063256D01*
X69224610Y-93723223D01*
X68635355Y-93322529D02*
X68352512Y-93605372D01*
X68988908Y-93958925D02*
X68493933Y-93463950D01*
X68564644Y-94100346D02*
X68328942Y-94336049D01*
X68753206Y-94194627D02*
X68093240Y-93864644D01*
X68423223Y-94524610D01*
X68423223Y-94618891D02*
X68046099Y-94996015D01*
X67621835Y-94807453D02*
X67456844Y-94972445D01*
X67645405Y-95302428D02*
X67881108Y-95066726D01*
X67386133Y-94571751D01*
X67150431Y-94807453D01*
X64244974Y-105334314D02*
X64197834Y-105428595D01*
X64197834Y-105475735D01*
X64221404Y-105546446D01*
X64292115Y-105617157D01*
X64362825Y-105640727D01*
X64409966Y-105640727D01*
X64480677Y-105617157D01*
X64669238Y-105428595D01*
X64174264Y-104933620D01*
X64009272Y-105098612D01*
X63985702Y-105169322D01*
X63985702Y-105216463D01*
X64009272Y-105287174D01*
X64056412Y-105334314D01*
X64127123Y-105357884D01*
X64174264Y-105357884D01*
X64244974Y-105334314D01*
X64409966Y-105169322D01*
X64174264Y-105923570D02*
X63679289Y-105428595D01*
X63820710Y-105994280D02*
X63585008Y-106229983D01*
X64009272Y-106088561D02*
X63349306Y-105758578D01*
X63679289Y-106418544D01*
X63514297Y-106536396D02*
X63467157Y-106630677D01*
X63349306Y-106748528D01*
X63278595Y-106772098D01*
X63231455Y-106772098D01*
X63160744Y-106748528D01*
X63113603Y-106701387D01*
X63090033Y-106630677D01*
X63090033Y-106583536D01*
X63113603Y-106512825D01*
X63184314Y-106394974D01*
X63207884Y-106324264D01*
X63207884Y-106277123D01*
X63184314Y-106206412D01*
X63137174Y-106159272D01*
X63066463Y-106135702D01*
X63019322Y-106135702D01*
X62948612Y-106159272D01*
X62830761Y-106277123D01*
X62783620Y-106371404D01*
X64871404Y-94082148D02*
X64918544Y-94082148D01*
X65012825Y-94035008D01*
X65059966Y-93987867D01*
X65107106Y-93893587D01*
X65107106Y-93799306D01*
X65083536Y-93728595D01*
X65012825Y-93610744D01*
X64942115Y-93540033D01*
X64824264Y-93469322D01*
X64753553Y-93445752D01*
X64659272Y-93445752D01*
X64564991Y-93492893D01*
X64517851Y-93540033D01*
X64470710Y-93634314D01*
X64470710Y-93681455D01*
X64470710Y-94577123D02*
X64706412Y-94341421D01*
X64211438Y-93846446D01*
X64305719Y-94742115D02*
X63810744Y-94247140D01*
X64022876Y-95024957D02*
X63952165Y-94529983D01*
X63527901Y-94529983D02*
X64093587Y-94529983D01*
X62137783Y-105360050D02*
X62043502Y-105454331D01*
X61972792Y-105477901D01*
X61925651Y-105477901D01*
X61807800Y-105454331D01*
X61689949Y-105383620D01*
X61501387Y-105195058D01*
X61477817Y-105124348D01*
X61477817Y-105077207D01*
X61501387Y-105006497D01*
X61595668Y-104912216D01*
X61666379Y-104888645D01*
X61713519Y-104888645D01*
X61784230Y-104912216D01*
X61902081Y-105030067D01*
X61925651Y-105100778D01*
X61925651Y-105147918D01*
X61902081Y-105218629D01*
X61807800Y-105312910D01*
X61737089Y-105336480D01*
X61689949Y-105336480D01*
X61619238Y-105312910D01*
X61265685Y-105242199D02*
X61595668Y-105902165D01*
X60935702Y-105572182D01*
X60676429Y-105831455D02*
X60629289Y-105878595D01*
X60605719Y-105949306D01*
X60605719Y-105996446D01*
X60629289Y-106067157D01*
X60700000Y-106185008D01*
X60817851Y-106302859D01*
X60935702Y-106373570D01*
X61006412Y-106397140D01*
X61053553Y-106397140D01*
X61124264Y-106373570D01*
X61171404Y-106326429D01*
X61194974Y-106255719D01*
X61194974Y-106208578D01*
X61171404Y-106137867D01*
X61100693Y-106020016D01*
X60982842Y-105902165D01*
X60864991Y-105831455D01*
X60794280Y-105807884D01*
X60747140Y-105807884D01*
X60676429Y-105831455D01*
X60959272Y-106632842D02*
X60582148Y-107009966D01*
X60157884Y-106821404D02*
X59992893Y-106986396D01*
X60181455Y-107316379D02*
X60417157Y-107080677D01*
X59922182Y-106585702D01*
X59686480Y-106821404D01*
X59969322Y-107528511D02*
X59474348Y-107033536D01*
X59686480Y-107811354D01*
X59191505Y-107316379D01*
X62725304Y-92803984D02*
X62678164Y-92898265D01*
X62678164Y-92945405D01*
X62701734Y-93016116D01*
X62772445Y-93086827D01*
X62843155Y-93110397D01*
X62890296Y-93110397D01*
X62961007Y-93086827D01*
X63149568Y-92898265D01*
X62654594Y-92403290D01*
X62489602Y-92568282D01*
X62466032Y-92638992D01*
X62466032Y-92686133D01*
X62489602Y-92756844D01*
X62536743Y-92803984D01*
X62607453Y-92827554D01*
X62654594Y-92827554D01*
X62725304Y-92803984D01*
X62890296Y-92638992D01*
X62654594Y-93346099D02*
X62607453Y-93440380D01*
X62489602Y-93558231D01*
X62418891Y-93581801D01*
X62371751Y-93581801D01*
X62301040Y-93558231D01*
X62253900Y-93511091D01*
X62230330Y-93440380D01*
X62230330Y-93393240D01*
X62253900Y-93322529D01*
X62324610Y-93204678D01*
X62348181Y-93133967D01*
X62348181Y-93086827D01*
X62324610Y-93016116D01*
X62277470Y-92968976D01*
X62206759Y-92945405D01*
X62159619Y-92945405D01*
X62088908Y-92968976D01*
X61971057Y-93086827D01*
X61923917Y-93181108D01*
X61758925Y-93298959D02*
X61476082Y-93581801D01*
X62112478Y-93935355D02*
X61617504Y-93440380D01*
X61971057Y-94171057D02*
X61593933Y-94548181D01*
X61169669Y-94359619D02*
X61004678Y-94524610D01*
X61193240Y-94854594D02*
X61428942Y-94618891D01*
X60933967Y-94123917D01*
X60698265Y-94359619D01*
X60981108Y-95066726D02*
X60486133Y-94571751D01*
X60698265Y-95349568D01*
X60203290Y-94854594D01*
X59337089Y-104915075D02*
X59289949Y-104915075D01*
X59219238Y-104938645D01*
X59101387Y-105056497D01*
X59077817Y-105127207D01*
X59077817Y-105174348D01*
X59101387Y-105245058D01*
X59148528Y-105292199D01*
X59242809Y-105339339D01*
X59808494Y-105339339D01*
X59502081Y-105645752D01*
X58865685Y-105292199D02*
X59195668Y-105952165D01*
X58535702Y-105622182D01*
X58135008Y-106022876D02*
X58370710Y-105787174D01*
X58629983Y-105999306D01*
X58582842Y-105999306D01*
X58512132Y-106022876D01*
X58394280Y-106140727D01*
X58370710Y-106211438D01*
X58370710Y-106258578D01*
X58394280Y-106329289D01*
X58512132Y-106447140D01*
X58582842Y-106470710D01*
X58629983Y-106470710D01*
X58700693Y-106447140D01*
X58818544Y-106329289D01*
X58842115Y-106258578D01*
X58842115Y-106211438D01*
X58559272Y-106682842D02*
X58182148Y-107059966D01*
X57757884Y-106871404D02*
X57592893Y-107036396D01*
X57781455Y-107366379D02*
X58017157Y-107130677D01*
X57522182Y-106635702D01*
X57286480Y-106871404D01*
X57569322Y-107578511D02*
X57074348Y-107083536D01*
X57286480Y-107861354D01*
X56791505Y-107366379D01*
X58713519Y-92344365D02*
X58407106Y-92650778D01*
X58760660Y-92674348D01*
X58689949Y-92745058D01*
X58666379Y-92815769D01*
X58666379Y-92862910D01*
X58689949Y-92933620D01*
X58807800Y-93051471D01*
X58878511Y-93075042D01*
X58925651Y-93075042D01*
X58996362Y-93051471D01*
X59137783Y-92910050D01*
X59161354Y-92839339D01*
X59161354Y-92792199D01*
X58265685Y-92792199D02*
X58595668Y-93452165D01*
X57935702Y-93122182D01*
X57817851Y-93240033D02*
X57511438Y-93546446D01*
X57864991Y-93570016D01*
X57794280Y-93640727D01*
X57770710Y-93711438D01*
X57770710Y-93758578D01*
X57794280Y-93829289D01*
X57912132Y-93947140D01*
X57982842Y-93970710D01*
X58029983Y-93970710D01*
X58100693Y-93947140D01*
X58242115Y-93805719D01*
X58265685Y-93735008D01*
X58265685Y-93687867D01*
X57959272Y-94182842D02*
X57582148Y-94559966D01*
X57157884Y-94371404D02*
X56992893Y-94536396D01*
X57181455Y-94866379D02*
X57417157Y-94630677D01*
X56922182Y-94135702D01*
X56686480Y-94371404D01*
X56969322Y-95078511D02*
X56474348Y-94583536D01*
X56686480Y-95361354D01*
X56191505Y-94866379D01*
X87950000Y-117491666D02*
X87473809Y-117491666D01*
X88045238Y-117777380D02*
X87711904Y-116777380D01*
X87378571Y-117777380D01*
X86616666Y-117110714D02*
X86616666Y-117777380D01*
X87045238Y-117110714D02*
X87045238Y-117634523D01*
X86997619Y-117729761D01*
X86902380Y-117777380D01*
X86759523Y-117777380D01*
X86664285Y-117729761D01*
X86616666Y-117682142D01*
X86283333Y-117110714D02*
X85902380Y-117110714D01*
X86140476Y-116777380D02*
X86140476Y-117634523D01*
X86092857Y-117729761D01*
X85997619Y-117777380D01*
X85902380Y-117777380D01*
X85426190Y-117777380D02*
X85521428Y-117729761D01*
X85569047Y-117682142D01*
X85616666Y-117586904D01*
X85616666Y-117301190D01*
X85569047Y-117205952D01*
X85521428Y-117158333D01*
X85426190Y-117110714D01*
X85283333Y-117110714D01*
X85188095Y-117158333D01*
X85140476Y-117205952D01*
X85092857Y-117301190D01*
X85092857Y-117586904D01*
X85140476Y-117682142D01*
X85188095Y-117729761D01*
X85283333Y-117777380D01*
X85426190Y-117777380D01*
X84521428Y-117777380D02*
X84616666Y-117729761D01*
X84664285Y-117634523D01*
X84664285Y-116777380D01*
X84140476Y-117777380D02*
X84140476Y-117110714D01*
X84140476Y-116777380D02*
X84188095Y-116825000D01*
X84140476Y-116872619D01*
X84092857Y-116825000D01*
X84140476Y-116777380D01*
X84140476Y-116872619D01*
X83759523Y-117110714D02*
X83521428Y-117777380D01*
X83283333Y-117110714D01*
X82140476Y-117777380D02*
X82140476Y-116777380D01*
X81569047Y-117777380D01*
X81569047Y-116777380D01*
X81235714Y-116777380D02*
X80902380Y-117777380D01*
X80569047Y-116777380D01*
X80330952Y-116777380D02*
X79711904Y-116777380D01*
X80045238Y-117158333D01*
X79902380Y-117158333D01*
X79807142Y-117205952D01*
X79759523Y-117253571D01*
X79711904Y-117348809D01*
X79711904Y-117586904D01*
X79759523Y-117682142D01*
X79807142Y-117729761D01*
X79902380Y-117777380D01*
X80188095Y-117777380D01*
X80283333Y-117729761D01*
X80330952Y-117682142D01*
X77807142Y-116729761D02*
X78664285Y-118015476D01*
X76711904Y-117777380D02*
X76711904Y-116777380D01*
X76283333Y-117729761D02*
X76140476Y-117777380D01*
X75902380Y-117777380D01*
X75807142Y-117729761D01*
X75759523Y-117682142D01*
X75711904Y-117586904D01*
X75711904Y-117491666D01*
X75759523Y-117396428D01*
X75807142Y-117348809D01*
X75902380Y-117301190D01*
X76092857Y-117253571D01*
X76188095Y-117205952D01*
X76235714Y-117158333D01*
X76283333Y-117063095D01*
X76283333Y-116967857D01*
X76235714Y-116872619D01*
X76188095Y-116825000D01*
X76092857Y-116777380D01*
X75854761Y-116777380D01*
X75711904Y-116825000D01*
X74711904Y-117682142D02*
X74759523Y-117729761D01*
X74902380Y-117777380D01*
X74997619Y-117777380D01*
X75140476Y-117729761D01*
X75235714Y-117634523D01*
X75283333Y-117539285D01*
X75330952Y-117348809D01*
X75330952Y-117205952D01*
X75283333Y-117015476D01*
X75235714Y-116920238D01*
X75140476Y-116825000D01*
X74997619Y-116777380D01*
X74902380Y-116777380D01*
X74759523Y-116825000D01*
X74711904Y-116872619D01*
X74092857Y-116777380D02*
X73997619Y-116777380D01*
X73902380Y-116825000D01*
X73854761Y-116872619D01*
X73807142Y-116967857D01*
X73759523Y-117158333D01*
X73759523Y-117396428D01*
X73807142Y-117586904D01*
X73854761Y-117682142D01*
X73902380Y-117729761D01*
X73997619Y-117777380D01*
X74092857Y-117777380D01*
X74188095Y-117729761D01*
X74235714Y-117682142D01*
X74283333Y-117586904D01*
X74330952Y-117396428D01*
X74330952Y-117158333D01*
X74283333Y-116967857D01*
X74235714Y-116872619D01*
X74188095Y-116825000D01*
X74092857Y-116777380D01*
X73283333Y-117777380D02*
X73092857Y-117777380D01*
X72997619Y-117729761D01*
X72950000Y-117682142D01*
X72854761Y-117539285D01*
X72807142Y-117348809D01*
X72807142Y-116967857D01*
X72854761Y-116872619D01*
X72902380Y-116825000D01*
X72997619Y-116777380D01*
X73188095Y-116777380D01*
X73283333Y-116825000D01*
X73330952Y-116872619D01*
X73378571Y-116967857D01*
X73378571Y-117205952D01*
X73330952Y-117301190D01*
X73283333Y-117348809D01*
X73188095Y-117396428D01*
X72997619Y-117396428D01*
X72902380Y-117348809D01*
X72854761Y-117301190D01*
X72807142Y-117205952D01*
X72188095Y-116777380D02*
X72092857Y-116777380D01*
X71997619Y-116825000D01*
X71950000Y-116872619D01*
X71902380Y-116967857D01*
X71854761Y-117158333D01*
X71854761Y-117396428D01*
X71902380Y-117586904D01*
X71950000Y-117682142D01*
X71997619Y-117729761D01*
X72092857Y-117777380D01*
X72188095Y-117777380D01*
X72283333Y-117729761D01*
X72330952Y-117682142D01*
X72378571Y-117586904D01*
X72426190Y-117396428D01*
X72426190Y-117158333D01*
X72378571Y-116967857D01*
X72330952Y-116872619D01*
X72283333Y-116825000D01*
X72188095Y-116777380D01*
X70902380Y-117777380D02*
X71473809Y-117777380D01*
X71188095Y-117777380D02*
X71188095Y-116777380D01*
X71283333Y-116920238D01*
X71378571Y-117015476D01*
X71473809Y-117063095D01*
X70140476Y-117253571D02*
X69997619Y-117301190D01*
X69950000Y-117348809D01*
X69902380Y-117444047D01*
X69902380Y-117586904D01*
X69950000Y-117682142D01*
X69997619Y-117729761D01*
X70092857Y-117777380D01*
X70473809Y-117777380D01*
X70473809Y-116777380D01*
X70140476Y-116777380D01*
X70045238Y-116825000D01*
X69997619Y-116872619D01*
X69950000Y-116967857D01*
X69950000Y-117063095D01*
X69997619Y-117158333D01*
X70045238Y-117205952D01*
X70140476Y-117253571D01*
X70473809Y-117253571D01*
X69283333Y-116777380D02*
X69188095Y-116777380D01*
X69092857Y-116825000D01*
X69045238Y-116872619D01*
X68997619Y-116967857D01*
X68950000Y-117158333D01*
X68950000Y-117396428D01*
X68997619Y-117586904D01*
X69045238Y-117682142D01*
X69092857Y-117729761D01*
X69188095Y-117777380D01*
X69283333Y-117777380D01*
X69378571Y-117729761D01*
X69426190Y-117682142D01*
X69473809Y-117586904D01*
X69521428Y-117396428D01*
X69521428Y-117158333D01*
X69473809Y-116967857D01*
X69426190Y-116872619D01*
X69378571Y-116825000D01*
X69283333Y-116777380D01*
X83807142Y-119427380D02*
X83807142Y-118427380D01*
X83807142Y-118808333D02*
X83711904Y-118760714D01*
X83521428Y-118760714D01*
X83426190Y-118808333D01*
X83378571Y-118855952D01*
X83330952Y-118951190D01*
X83330952Y-119236904D01*
X83378571Y-119332142D01*
X83426190Y-119379761D01*
X83521428Y-119427380D01*
X83711904Y-119427380D01*
X83807142Y-119379761D01*
X82902380Y-119427380D02*
X82902380Y-118760714D01*
X82902380Y-118951190D02*
X82854761Y-118855952D01*
X82807142Y-118808333D01*
X82711904Y-118760714D01*
X82616666Y-118760714D01*
X81902380Y-119379761D02*
X81997619Y-119427380D01*
X82188095Y-119427380D01*
X82283333Y-119379761D01*
X82330952Y-119284523D01*
X82330952Y-118903571D01*
X82283333Y-118808333D01*
X82188095Y-118760714D01*
X81997619Y-118760714D01*
X81902380Y-118808333D01*
X81854761Y-118903571D01*
X81854761Y-118998809D01*
X82330952Y-119094047D01*
X80997619Y-119427380D02*
X80997619Y-118903571D01*
X81045238Y-118808333D01*
X81140476Y-118760714D01*
X81330952Y-118760714D01*
X81426190Y-118808333D01*
X80997619Y-119379761D02*
X81092857Y-119427380D01*
X81330952Y-119427380D01*
X81426190Y-119379761D01*
X81473809Y-119284523D01*
X81473809Y-119189285D01*
X81426190Y-119094047D01*
X81330952Y-119046428D01*
X81092857Y-119046428D01*
X80997619Y-118998809D01*
X80521428Y-119427380D02*
X80521428Y-118427380D01*
X80426190Y-119046428D02*
X80140476Y-119427380D01*
X80140476Y-118760714D02*
X80521428Y-119141666D01*
X79569047Y-119427380D02*
X79664285Y-119379761D01*
X79711904Y-119332142D01*
X79759523Y-119236904D01*
X79759523Y-118951190D01*
X79711904Y-118855952D01*
X79664285Y-118808333D01*
X79569047Y-118760714D01*
X79426190Y-118760714D01*
X79330952Y-118808333D01*
X79283333Y-118855952D01*
X79235714Y-118951190D01*
X79235714Y-119236904D01*
X79283333Y-119332142D01*
X79330952Y-119379761D01*
X79426190Y-119427380D01*
X79569047Y-119427380D01*
X78378571Y-118760714D02*
X78378571Y-119427380D01*
X78807142Y-118760714D02*
X78807142Y-119284523D01*
X78759523Y-119379761D01*
X78664285Y-119427380D01*
X78521428Y-119427380D01*
X78426190Y-119379761D01*
X78378571Y-119332142D01*
X78045238Y-118760714D02*
X77664285Y-118760714D01*
X77902380Y-118427380D02*
X77902380Y-119284523D01*
X77854761Y-119379761D01*
X77759523Y-119427380D01*
X77664285Y-119427380D01*
X76569047Y-119427380D02*
X76569047Y-118760714D01*
X76569047Y-118951190D02*
X76521428Y-118855952D01*
X76473809Y-118808333D01*
X76378571Y-118760714D01*
X76283333Y-118760714D01*
X75569047Y-119379761D02*
X75664285Y-119427380D01*
X75854761Y-119427380D01*
X75950000Y-119379761D01*
X75997619Y-119284523D01*
X75997619Y-118903571D01*
X75950000Y-118808333D01*
X75854761Y-118760714D01*
X75664285Y-118760714D01*
X75569047Y-118808333D01*
X75521428Y-118903571D01*
X75521428Y-118998809D01*
X75997619Y-119094047D01*
X75188095Y-118760714D02*
X74950000Y-119427380D01*
X74711904Y-118760714D01*
X73616666Y-118522619D02*
X73569047Y-118475000D01*
X73473809Y-118427380D01*
X73235714Y-118427380D01*
X73140476Y-118475000D01*
X73092857Y-118522619D01*
X73045238Y-118617857D01*
X73045238Y-118713095D01*
X73092857Y-118855952D01*
X73664285Y-119427380D01*
X73045238Y-119427380D01*
D12*
%TO.C,TP6_GND1*%
X52550000Y-133600000D02*
G75*
G03*
X52550000Y-133600000I-950000J0D01*
G01*
%TO.C,TP5_VBIAS1*%
X63200000Y-117800000D02*
G75*
G03*
X63200000Y-117800000I-950000J0D01*
G01*
%TO.C,TP4_2V5*%
X63650000Y-126450000D02*
G75*
G03*
X63650000Y-126450000I-950000J0D01*
G01*
%TO.C,TP3_3V3*%
X61100000Y-132750000D02*
G75*
G03*
X61100000Y-132750000I-950000J0D01*
G01*
%TO.C,TP2_12V1*%
X47300000Y-107400000D02*
G75*
G03*
X47300000Y-107400000I-950000J0D01*
G01*
%TO.C,TP1_5V1*%
X47300000Y-118550000D02*
G75*
G03*
X47300000Y-118550000I-950000J0D01*
G01*
%TO.C,J5*%
X84540000Y-114060000D02*
X83390000Y-114060000D01*
X83390000Y-114060000D02*
X83390000Y-113010000D01*
X83390000Y-113010000D02*
X82400000Y-113010000D01*
X84540000Y-109840000D02*
X83390000Y-109840000D01*
X83390000Y-109840000D02*
X83390000Y-110890000D01*
X86510000Y-112890000D02*
X86510000Y-111010000D01*
%TO.C,R12*%
X77677500Y-107262742D02*
X77677500Y-107737258D01*
X78722500Y-107262742D02*
X78722500Y-107737258D01*
%TO.C,Q2*%
X80900000Y-108380000D02*
X81560000Y-108380000D01*
X79240000Y-108380000D02*
X79900000Y-108380000D01*
X79240000Y-108380000D02*
X79240000Y-106350000D01*
X81560000Y-106970000D02*
X81560000Y-108380000D01*
%TO.C,J4*%
X53790000Y-95310000D02*
X53790000Y-104430000D01*
X53790000Y-104430000D02*
X79450000Y-104430000D01*
X79450000Y-104430000D02*
X79450000Y-95310000D01*
X79450000Y-95310000D02*
X53790000Y-95310000D01*
X64570000Y-95310000D02*
X64570000Y-96620000D01*
X64570000Y-96620000D02*
X55090000Y-96620000D01*
X55090000Y-96620000D02*
X55090000Y-103120000D01*
X55090000Y-103120000D02*
X78150000Y-103120000D01*
X78150000Y-103120000D02*
X78150000Y-96620000D01*
X78150000Y-96620000D02*
X68670000Y-96620000D01*
X68670000Y-96620000D02*
X68670000Y-96620000D01*
X68670000Y-96620000D02*
X68670000Y-95310000D01*
X59000000Y-94920000D02*
X58500000Y-93920000D01*
X58500000Y-93920000D02*
X59500000Y-93920000D01*
X59500000Y-93920000D02*
X59000000Y-94920000D01*
%TO.C,FB4*%
X80212779Y-114740000D02*
X79887221Y-114740000D01*
X80212779Y-115760000D02*
X79887221Y-115760000D01*
%TO.C,D4*%
X81450000Y-114200000D02*
X79450000Y-114200000D01*
X79450000Y-114200000D02*
X79450000Y-110300000D01*
X81450000Y-114200000D02*
X81450000Y-110300000D01*
%TO.C,R11*%
X47937258Y-121522500D02*
X47462742Y-121522500D01*
X47937258Y-120477500D02*
X47462742Y-120477500D01*
%TO.C,D3*%
X49185000Y-123735000D02*
X46900000Y-123735000D01*
X49185000Y-122265000D02*
X49185000Y-123735000D01*
X46900000Y-122265000D02*
X49185000Y-122265000D01*
%TO.C,U4*%
X53990000Y-111950000D02*
X53990000Y-109075000D01*
X53990000Y-111950000D02*
X53990000Y-113450000D01*
X57210000Y-111950000D02*
X57210000Y-110450000D01*
X57210000Y-111950000D02*
X57210000Y-113450000D01*
%TO.C,U3*%
X57880000Y-122060000D02*
X55450000Y-122060000D01*
X56120000Y-118990000D02*
X57880000Y-118990000D01*
%TO.C,U2*%
X57780000Y-128260000D02*
X55350000Y-128260000D01*
X56020000Y-125190000D02*
X57780000Y-125190000D01*
%TO.C,U1*%
X47760000Y-116360000D02*
X47760000Y-113910000D01*
X50980000Y-114560000D02*
X50980000Y-116360000D01*
%TO.C,R10*%
X58722500Y-114712742D02*
X58722500Y-115187258D01*
X57677500Y-114712742D02*
X57677500Y-115187258D01*
%TO.C,R9*%
X58722500Y-110212742D02*
X58722500Y-110687258D01*
X57677500Y-110212742D02*
X57677500Y-110687258D01*
%TO.C,R8*%
X60322500Y-114712742D02*
X60322500Y-115187258D01*
X59277500Y-114712742D02*
X59277500Y-115187258D01*
%TO.C,R7*%
X61562742Y-111627500D02*
X62037258Y-111627500D01*
X61562742Y-112672500D02*
X62037258Y-112672500D01*
%TO.C,R6*%
X56262742Y-122627500D02*
X56737258Y-122627500D01*
X56262742Y-123672500D02*
X56737258Y-123672500D01*
%TO.C,R5*%
X56062742Y-129027500D02*
X56537258Y-129027500D01*
X56062742Y-130072500D02*
X56537258Y-130072500D01*
%TO.C,R4*%
X52622500Y-114012742D02*
X52622500Y-114487258D01*
X51577500Y-114012742D02*
X51577500Y-114487258D01*
%TO.C,R3*%
X51822500Y-110212742D02*
X51822500Y-110687258D01*
X50777500Y-110212742D02*
X50777500Y-110687258D01*
%TO.C,R2*%
X52622500Y-117112742D02*
X52622500Y-117587258D01*
X51577500Y-117112742D02*
X51577500Y-117587258D01*
%TO.C,R1*%
X84477500Y-102987258D02*
X84477500Y-102512742D01*
X85522500Y-102987258D02*
X85522500Y-102512742D01*
%TO.C,Q1*%
X63060000Y-114070000D02*
X63060000Y-115480000D01*
X60740000Y-115480000D02*
X60740000Y-113450000D01*
X60740000Y-115480000D02*
X61400000Y-115480000D01*
X62400000Y-115480000D02*
X63060000Y-115480000D01*
%TO.C,L1*%
X45840000Y-115849622D02*
X45840000Y-115050378D01*
X46960000Y-115849622D02*
X46960000Y-115050378D01*
%TO.C,JP1*%
X76000000Y-129050000D02*
X76000000Y-124950000D01*
X76000000Y-124950000D02*
X74000000Y-124950000D01*
X74000000Y-124950000D02*
X74000000Y-129050000D01*
X74000000Y-129050000D02*
X76000000Y-129050000D01*
X73800000Y-128300000D02*
X73500000Y-128600000D01*
X73500000Y-128600000D02*
X73500000Y-128000000D01*
X73800000Y-128300000D02*
X73500000Y-128000000D01*
%TO.C,J3*%
X52530000Y-121620000D02*
X51200000Y-121620000D01*
X52530000Y-122950000D02*
X52530000Y-121620000D01*
X52530000Y-124220000D02*
X49870000Y-124220000D01*
X49870000Y-124220000D02*
X49870000Y-126820000D01*
X52530000Y-124220000D02*
X52530000Y-126820000D01*
X52530000Y-126820000D02*
X49870000Y-126820000D01*
%TO.C,FB3*%
X54190000Y-116900279D02*
X54190000Y-116574721D01*
X55210000Y-116900279D02*
X55210000Y-116574721D01*
%TO.C,FB2*%
X59490000Y-123312779D02*
X59490000Y-122987221D01*
X60510000Y-123312779D02*
X60510000Y-122987221D01*
%TO.C,FB1*%
X59390000Y-129962779D02*
X59390000Y-129637221D01*
X60410000Y-129962779D02*
X60410000Y-129637221D01*
%TO.C,D2*%
X45300000Y-109000000D02*
X45300000Y-112900000D01*
X47300000Y-109000000D02*
X47300000Y-112900000D01*
X45300000Y-109000000D02*
X47300000Y-109000000D01*
%TO.C,D1*%
X85735000Y-98265000D02*
X85735000Y-100550000D01*
X84265000Y-98265000D02*
X85735000Y-98265000D01*
X84265000Y-100550000D02*
X84265000Y-98265000D01*
%TO.C,C15*%
X56090000Y-116865580D02*
X56090000Y-116584420D01*
X57110000Y-116865580D02*
X57110000Y-116584420D01*
%TO.C,C14*%
X59490000Y-120290580D02*
X59490000Y-120009420D01*
X60510000Y-120290580D02*
X60510000Y-120009420D01*
%TO.C,C13*%
X59390000Y-126890580D02*
X59390000Y-126609420D01*
X60410000Y-126890580D02*
X60410000Y-126609420D01*
%TO.C,C12*%
X50310000Y-110309420D02*
X50310000Y-110590580D01*
X49290000Y-110309420D02*
X49290000Y-110590580D01*
%TO.C,C11*%
X53490000Y-120890580D02*
X53490000Y-120609420D01*
X54510000Y-120890580D02*
X54510000Y-120609420D01*
%TO.C,C10*%
X53390000Y-127290580D02*
X53390000Y-127009420D01*
X54410000Y-127290580D02*
X54410000Y-127009420D01*
%TO.C,C9*%
X48810000Y-110309420D02*
X48810000Y-110590580D01*
X47790000Y-110309420D02*
X47790000Y-110590580D01*
%TO.C,C8*%
X53310000Y-110309420D02*
X53310000Y-110590580D01*
X52290000Y-110309420D02*
X52290000Y-110590580D01*
%TO.C,C7*%
X49059420Y-117640000D02*
X49340580Y-117640000D01*
X49059420Y-118660000D02*
X49340580Y-118660000D01*
%TO.C,C6*%
X61290000Y-123290580D02*
X61290000Y-123009420D01*
X62310000Y-123290580D02*
X62310000Y-123009420D01*
%TO.C,C5*%
X62790000Y-123290580D02*
X62790000Y-123009420D01*
X63810000Y-123290580D02*
X63810000Y-123009420D01*
%TO.C,C4*%
X64810000Y-133209420D02*
X64810000Y-133490580D01*
X63790000Y-133209420D02*
X63790000Y-133490580D01*
%TO.C,C3*%
X70310000Y-133009420D02*
X70310000Y-133290580D01*
X69290000Y-133009420D02*
X69290000Y-133290580D01*
%TO.C,C2*%
X63310000Y-133209420D02*
X63310000Y-133490580D01*
X62290000Y-133209420D02*
X62290000Y-133490580D01*
%TO.C,C1*%
X71810000Y-133009420D02*
X71810000Y-133290580D01*
X70790000Y-133009420D02*
X70790000Y-133290580D01*
%TO.C,TP6_GND1*%
D11*
X54150000Y-134864666D02*
X53750000Y-134864666D01*
X53950000Y-135564666D02*
X53950000Y-134864666D01*
X53516666Y-135564666D02*
X53516666Y-134864666D01*
X53250000Y-134864666D01*
X53183333Y-134898000D01*
X53150000Y-134931333D01*
X53116666Y-134998000D01*
X53116666Y-135098000D01*
X53150000Y-135164666D01*
X53183333Y-135198000D01*
X53250000Y-135231333D01*
X53516666Y-135231333D01*
X52516666Y-134864666D02*
X52650000Y-134864666D01*
X52716666Y-134898000D01*
X52750000Y-134931333D01*
X52816666Y-135031333D01*
X52850000Y-135164666D01*
X52850000Y-135431333D01*
X52816666Y-135498000D01*
X52783333Y-135531333D01*
X52716666Y-135564666D01*
X52583333Y-135564666D01*
X52516666Y-135531333D01*
X52483333Y-135498000D01*
X52450000Y-135431333D01*
X52450000Y-135264666D01*
X52483333Y-135198000D01*
X52516666Y-135164666D01*
X52583333Y-135131333D01*
X52716666Y-135131333D01*
X52783333Y-135164666D01*
X52816666Y-135198000D01*
X52850000Y-135264666D01*
X52316666Y-135631333D02*
X51783333Y-135631333D01*
X51250000Y-134898000D02*
X51316666Y-134864666D01*
X51416666Y-134864666D01*
X51516666Y-134898000D01*
X51583333Y-134964666D01*
X51616666Y-135031333D01*
X51650000Y-135164666D01*
X51650000Y-135264666D01*
X51616666Y-135398000D01*
X51583333Y-135464666D01*
X51516666Y-135531333D01*
X51416666Y-135564666D01*
X51350000Y-135564666D01*
X51250000Y-135531333D01*
X51216666Y-135498000D01*
X51216666Y-135264666D01*
X51350000Y-135264666D01*
X50916666Y-135564666D02*
X50916666Y-134864666D01*
X50516666Y-135564666D01*
X50516666Y-134864666D01*
X50183333Y-135564666D02*
X50183333Y-134864666D01*
X50016666Y-134864666D01*
X49916666Y-134898000D01*
X49850000Y-134964666D01*
X49816666Y-135031333D01*
X49783333Y-135164666D01*
X49783333Y-135264666D01*
X49816666Y-135398000D01*
X49850000Y-135464666D01*
X49916666Y-135531333D01*
X50016666Y-135564666D01*
X50183333Y-135564666D01*
X49116666Y-135564666D02*
X49516666Y-135564666D01*
X49316666Y-135564666D02*
X49316666Y-134864666D01*
X49383333Y-134964666D01*
X49450000Y-135031333D01*
X49516666Y-135064666D01*
%TO.C,TP5_VBIAS1*%
X68533333Y-115816666D02*
X68133333Y-115816666D01*
X68333333Y-116516666D02*
X68333333Y-115816666D01*
X67900000Y-116516666D02*
X67900000Y-115816666D01*
X67633333Y-115816666D01*
X67566666Y-115850000D01*
X67533333Y-115883333D01*
X67500000Y-115950000D01*
X67500000Y-116050000D01*
X67533333Y-116116666D01*
X67566666Y-116150000D01*
X67633333Y-116183333D01*
X67900000Y-116183333D01*
X66866666Y-115816666D02*
X67200000Y-115816666D01*
X67233333Y-116150000D01*
X67200000Y-116116666D01*
X67133333Y-116083333D01*
X66966666Y-116083333D01*
X66900000Y-116116666D01*
X66866666Y-116150000D01*
X66833333Y-116216666D01*
X66833333Y-116383333D01*
X66866666Y-116450000D01*
X66900000Y-116483333D01*
X66966666Y-116516666D01*
X67133333Y-116516666D01*
X67200000Y-116483333D01*
X67233333Y-116450000D01*
X66700000Y-116583333D02*
X66166666Y-116583333D01*
X66100000Y-115816666D02*
X65866666Y-116516666D01*
X65633333Y-115816666D01*
X65166666Y-116150000D02*
X65066666Y-116183333D01*
X65033333Y-116216666D01*
X65000000Y-116283333D01*
X65000000Y-116383333D01*
X65033333Y-116450000D01*
X65066666Y-116483333D01*
X65133333Y-116516666D01*
X65400000Y-116516666D01*
X65400000Y-115816666D01*
X65166666Y-115816666D01*
X65100000Y-115850000D01*
X65066666Y-115883333D01*
X65033333Y-115950000D01*
X65033333Y-116016666D01*
X65066666Y-116083333D01*
X65100000Y-116116666D01*
X65166666Y-116150000D01*
X65400000Y-116150000D01*
X64700000Y-116516666D02*
X64700000Y-115816666D01*
X64400000Y-116316666D02*
X64066666Y-116316666D01*
X64466666Y-116516666D02*
X64233333Y-115816666D01*
X64000000Y-116516666D01*
X63800000Y-116483333D02*
X63700000Y-116516666D01*
X63533333Y-116516666D01*
X63466666Y-116483333D01*
X63433333Y-116450000D01*
X63400000Y-116383333D01*
X63400000Y-116316666D01*
X63433333Y-116250000D01*
X63466666Y-116216666D01*
X63533333Y-116183333D01*
X63666666Y-116150000D01*
X63733333Y-116116666D01*
X63766666Y-116083333D01*
X63800000Y-116016666D01*
X63800000Y-115950000D01*
X63766666Y-115883333D01*
X63733333Y-115850000D01*
X63666666Y-115816666D01*
X63500000Y-115816666D01*
X63400000Y-115850000D01*
X62733333Y-116516666D02*
X63133333Y-116516666D01*
X62933333Y-116516666D02*
X62933333Y-115816666D01*
X63000000Y-115916666D01*
X63066666Y-115983333D01*
X63133333Y-116016666D01*
%TO.C,TP4_2V5*%
X66116666Y-127714666D02*
X65716666Y-127714666D01*
X65916666Y-128414666D02*
X65916666Y-127714666D01*
X65483333Y-128414666D02*
X65483333Y-127714666D01*
X65216666Y-127714666D01*
X65150000Y-127748000D01*
X65116666Y-127781333D01*
X65083333Y-127848000D01*
X65083333Y-127948000D01*
X65116666Y-128014666D01*
X65150000Y-128048000D01*
X65216666Y-128081333D01*
X65483333Y-128081333D01*
X64483333Y-127948000D02*
X64483333Y-128414666D01*
X64650000Y-127681333D02*
X64816666Y-128181333D01*
X64383333Y-128181333D01*
X64283333Y-128481333D02*
X63750000Y-128481333D01*
X63616666Y-127781333D02*
X63583333Y-127748000D01*
X63516666Y-127714666D01*
X63350000Y-127714666D01*
X63283333Y-127748000D01*
X63250000Y-127781333D01*
X63216666Y-127848000D01*
X63216666Y-127914666D01*
X63250000Y-128014666D01*
X63650000Y-128414666D01*
X63216666Y-128414666D01*
X63016666Y-127714666D02*
X62783333Y-128414666D01*
X62550000Y-127714666D01*
X61983333Y-127714666D02*
X62316666Y-127714666D01*
X62350000Y-128048000D01*
X62316666Y-128014666D01*
X62250000Y-127981333D01*
X62083333Y-127981333D01*
X62016666Y-128014666D01*
X61983333Y-128048000D01*
X61950000Y-128114666D01*
X61950000Y-128281333D01*
X61983333Y-128348000D01*
X62016666Y-128381333D01*
X62083333Y-128414666D01*
X62250000Y-128414666D01*
X62316666Y-128381333D01*
X62350000Y-128348000D01*
%TO.C,TP3_3V3*%
X61516666Y-134016666D02*
X61116666Y-134016666D01*
X61316666Y-134716666D02*
X61316666Y-134016666D01*
X60883333Y-134716666D02*
X60883333Y-134016666D01*
X60616666Y-134016666D01*
X60550000Y-134050000D01*
X60516666Y-134083333D01*
X60483333Y-134150000D01*
X60483333Y-134250000D01*
X60516666Y-134316666D01*
X60550000Y-134350000D01*
X60616666Y-134383333D01*
X60883333Y-134383333D01*
X60250000Y-134016666D02*
X59816666Y-134016666D01*
X60050000Y-134283333D01*
X59950000Y-134283333D01*
X59883333Y-134316666D01*
X59850000Y-134350000D01*
X59816666Y-134416666D01*
X59816666Y-134583333D01*
X59850000Y-134650000D01*
X59883333Y-134683333D01*
X59950000Y-134716666D01*
X60150000Y-134716666D01*
X60216666Y-134683333D01*
X60250000Y-134650000D01*
X59683333Y-134783333D02*
X59150000Y-134783333D01*
X59050000Y-134016666D02*
X58616666Y-134016666D01*
X58850000Y-134283333D01*
X58750000Y-134283333D01*
X58683333Y-134316666D01*
X58650000Y-134350000D01*
X58616666Y-134416666D01*
X58616666Y-134583333D01*
X58650000Y-134650000D01*
X58683333Y-134683333D01*
X58750000Y-134716666D01*
X58950000Y-134716666D01*
X59016666Y-134683333D01*
X59050000Y-134650000D01*
X58416666Y-134016666D02*
X58183333Y-134716666D01*
X57950000Y-134016666D01*
X57783333Y-134016666D02*
X57350000Y-134016666D01*
X57583333Y-134283333D01*
X57483333Y-134283333D01*
X57416666Y-134316666D01*
X57383333Y-134350000D01*
X57350000Y-134416666D01*
X57350000Y-134583333D01*
X57383333Y-134650000D01*
X57416666Y-134683333D01*
X57483333Y-134716666D01*
X57683333Y-134716666D01*
X57750000Y-134683333D01*
X57783333Y-134650000D01*
%TO.C,TP2_12V1*%
X49650000Y-105416666D02*
X49250000Y-105416666D01*
X49450000Y-106116666D02*
X49450000Y-105416666D01*
X49016666Y-106116666D02*
X49016666Y-105416666D01*
X48750000Y-105416666D01*
X48683333Y-105450000D01*
X48650000Y-105483333D01*
X48616666Y-105550000D01*
X48616666Y-105650000D01*
X48650000Y-105716666D01*
X48683333Y-105750000D01*
X48750000Y-105783333D01*
X49016666Y-105783333D01*
X48350000Y-105483333D02*
X48316666Y-105450000D01*
X48250000Y-105416666D01*
X48083333Y-105416666D01*
X48016666Y-105450000D01*
X47983333Y-105483333D01*
X47950000Y-105550000D01*
X47950000Y-105616666D01*
X47983333Y-105716666D01*
X48383333Y-106116666D01*
X47950000Y-106116666D01*
X47816666Y-106183333D02*
X47283333Y-106183333D01*
X46750000Y-106116666D02*
X47150000Y-106116666D01*
X46950000Y-106116666D02*
X46950000Y-105416666D01*
X47016666Y-105516666D01*
X47083333Y-105583333D01*
X47150000Y-105616666D01*
X46483333Y-105483333D02*
X46450000Y-105450000D01*
X46383333Y-105416666D01*
X46216666Y-105416666D01*
X46150000Y-105450000D01*
X46116666Y-105483333D01*
X46083333Y-105550000D01*
X46083333Y-105616666D01*
X46116666Y-105716666D01*
X46516666Y-106116666D01*
X46083333Y-106116666D01*
X45883333Y-105416666D02*
X45650000Y-106116666D01*
X45416666Y-105416666D01*
X44816666Y-106116666D02*
X45216666Y-106116666D01*
X45016666Y-106116666D02*
X45016666Y-105416666D01*
X45083333Y-105516666D01*
X45150000Y-105583333D01*
X45216666Y-105616666D01*
%TO.C,TP1_5V1*%
X44416666Y-116483333D02*
X44416666Y-116883333D01*
X45116666Y-116683333D02*
X44416666Y-116683333D01*
X45116666Y-117116666D02*
X44416666Y-117116666D01*
X44416666Y-117383333D01*
X44450000Y-117450000D01*
X44483333Y-117483333D01*
X44550000Y-117516666D01*
X44650000Y-117516666D01*
X44716666Y-117483333D01*
X44750000Y-117450000D01*
X44783333Y-117383333D01*
X44783333Y-117116666D01*
X45116666Y-118183333D02*
X45116666Y-117783333D01*
X45116666Y-117983333D02*
X44416666Y-117983333D01*
X44516666Y-117916666D01*
X44583333Y-117850000D01*
X44616666Y-117783333D01*
X45183333Y-118316666D02*
X45183333Y-118850000D01*
X44416666Y-119350000D02*
X44416666Y-119016666D01*
X44750000Y-118983333D01*
X44716666Y-119016666D01*
X44683333Y-119083333D01*
X44683333Y-119250000D01*
X44716666Y-119316666D01*
X44750000Y-119350000D01*
X44816666Y-119383333D01*
X44983333Y-119383333D01*
X45050000Y-119350000D01*
X45083333Y-119316666D01*
X45116666Y-119250000D01*
X45116666Y-119083333D01*
X45083333Y-119016666D01*
X45050000Y-118983333D01*
X44416666Y-119583333D02*
X45116666Y-119816666D01*
X44416666Y-120050000D01*
X45116666Y-120650000D02*
X45116666Y-120250000D01*
X45116666Y-120450000D02*
X44416666Y-120450000D01*
X44516666Y-120383333D01*
X44583333Y-120316666D01*
X44616666Y-120250000D01*
%TO.C,J5*%
X87416666Y-111716666D02*
X87916666Y-111716666D01*
X88016666Y-111683333D01*
X88083333Y-111616666D01*
X88116666Y-111516666D01*
X88116666Y-111450000D01*
X87416666Y-112383333D02*
X87416666Y-112050000D01*
X87750000Y-112016666D01*
X87716666Y-112050000D01*
X87683333Y-112116666D01*
X87683333Y-112283333D01*
X87716666Y-112350000D01*
X87750000Y-112383333D01*
X87816666Y-112416666D01*
X87983333Y-112416666D01*
X88050000Y-112383333D01*
X88083333Y-112350000D01*
X88116666Y-112283333D01*
X88116666Y-112116666D01*
X88083333Y-112050000D01*
X88050000Y-112016666D01*
%TO.C,R12*%
X77086666Y-107050000D02*
X76753333Y-106816666D01*
X77086666Y-106650000D02*
X76386666Y-106650000D01*
X76386666Y-106916666D01*
X76420000Y-106983333D01*
X76453333Y-107016666D01*
X76520000Y-107050000D01*
X76620000Y-107050000D01*
X76686666Y-107016666D01*
X76720000Y-106983333D01*
X76753333Y-106916666D01*
X76753333Y-106650000D01*
X77086666Y-107716666D02*
X77086666Y-107316666D01*
X77086666Y-107516666D02*
X76386666Y-107516666D01*
X76486666Y-107450000D01*
X76553333Y-107383333D01*
X76586666Y-107316666D01*
X76453333Y-107983333D02*
X76420000Y-108016666D01*
X76386666Y-108083333D01*
X76386666Y-108250000D01*
X76420000Y-108316666D01*
X76453333Y-108350000D01*
X76520000Y-108383333D01*
X76586666Y-108383333D01*
X76686666Y-108350000D01*
X77086666Y-107950000D01*
X77086666Y-108383333D01*
%TO.C,Q2*%
X82583333Y-107183333D02*
X82550000Y-107116666D01*
X82483333Y-107050000D01*
X82383333Y-106950000D01*
X82350000Y-106883333D01*
X82350000Y-106816666D01*
X82516666Y-106850000D02*
X82483333Y-106783333D01*
X82416666Y-106716666D01*
X82283333Y-106683333D01*
X82050000Y-106683333D01*
X81916666Y-106716666D01*
X81850000Y-106783333D01*
X81816666Y-106850000D01*
X81816666Y-106983333D01*
X81850000Y-107050000D01*
X81916666Y-107116666D01*
X82050000Y-107150000D01*
X82283333Y-107150000D01*
X82416666Y-107116666D01*
X82483333Y-107050000D01*
X82516666Y-106983333D01*
X82516666Y-106850000D01*
X81883333Y-107416666D02*
X81850000Y-107450000D01*
X81816666Y-107516666D01*
X81816666Y-107683333D01*
X81850000Y-107750000D01*
X81883333Y-107783333D01*
X81950000Y-107816666D01*
X82016666Y-107816666D01*
X82116666Y-107783333D01*
X82516666Y-107383333D01*
X82516666Y-107816666D01*
%TO.C,J4*%
X52516666Y-99636666D02*
X53016666Y-99636666D01*
X53116666Y-99603333D01*
X53183333Y-99536666D01*
X53216666Y-99436666D01*
X53216666Y-99370000D01*
X52750000Y-100270000D02*
X53216666Y-100270000D01*
X52483333Y-100103333D02*
X52983333Y-99936666D01*
X52983333Y-100370000D01*
%TO.C,FB4*%
X77883333Y-115450000D02*
X78116666Y-115450000D01*
X78116666Y-115816666D02*
X78116666Y-115116666D01*
X77783333Y-115116666D01*
X77283333Y-115450000D02*
X77183333Y-115483333D01*
X77150000Y-115516666D01*
X77116666Y-115583333D01*
X77116666Y-115683333D01*
X77150000Y-115750000D01*
X77183333Y-115783333D01*
X77250000Y-115816666D01*
X77516666Y-115816666D01*
X77516666Y-115116666D01*
X77283333Y-115116666D01*
X77216666Y-115150000D01*
X77183333Y-115183333D01*
X77150000Y-115250000D01*
X77150000Y-115316666D01*
X77183333Y-115383333D01*
X77216666Y-115416666D01*
X77283333Y-115450000D01*
X77516666Y-115450000D01*
X76516666Y-115350000D02*
X76516666Y-115816666D01*
X76683333Y-115083333D02*
X76850000Y-115583333D01*
X76416666Y-115583333D01*
%TO.C,D4*%
X79116666Y-111083333D02*
X78416666Y-111083333D01*
X78416666Y-111250000D01*
X78450000Y-111350000D01*
X78516666Y-111416666D01*
X78583333Y-111450000D01*
X78716666Y-111483333D01*
X78816666Y-111483333D01*
X78950000Y-111450000D01*
X79016666Y-111416666D01*
X79083333Y-111350000D01*
X79116666Y-111250000D01*
X79116666Y-111083333D01*
X78650000Y-112083333D02*
X79116666Y-112083333D01*
X78383333Y-111916666D02*
X78883333Y-111750000D01*
X78883333Y-112183333D01*
%TO.C,R11*%
X48850000Y-120116666D02*
X49083333Y-119783333D01*
X49250000Y-120116666D02*
X49250000Y-119416666D01*
X48983333Y-119416666D01*
X48916666Y-119450000D01*
X48883333Y-119483333D01*
X48850000Y-119550000D01*
X48850000Y-119650000D01*
X48883333Y-119716666D01*
X48916666Y-119750000D01*
X48983333Y-119783333D01*
X49250000Y-119783333D01*
X48183333Y-120116666D02*
X48583333Y-120116666D01*
X48383333Y-120116666D02*
X48383333Y-119416666D01*
X48450000Y-119516666D01*
X48516666Y-119583333D01*
X48583333Y-119616666D01*
X47516666Y-120116666D02*
X47916666Y-120116666D01*
X47716666Y-120116666D02*
X47716666Y-119416666D01*
X47783333Y-119516666D01*
X47850000Y-119583333D01*
X47916666Y-119616666D01*
%TO.C,D3*%
X48216666Y-124866666D02*
X48216666Y-124166666D01*
X48050000Y-124166666D01*
X47950000Y-124200000D01*
X47883333Y-124266666D01*
X47850000Y-124333333D01*
X47816666Y-124466666D01*
X47816666Y-124566666D01*
X47850000Y-124700000D01*
X47883333Y-124766666D01*
X47950000Y-124833333D01*
X48050000Y-124866666D01*
X48216666Y-124866666D01*
X47583333Y-124166666D02*
X47150000Y-124166666D01*
X47383333Y-124433333D01*
X47283333Y-124433333D01*
X47216666Y-124466666D01*
X47183333Y-124500000D01*
X47150000Y-124566666D01*
X47150000Y-124733333D01*
X47183333Y-124800000D01*
X47216666Y-124833333D01*
X47283333Y-124866666D01*
X47483333Y-124866666D01*
X47550000Y-124833333D01*
X47583333Y-124800000D01*
%TO.C,U4*%
X53866666Y-107216666D02*
X54433333Y-107216666D01*
X54500000Y-107250000D01*
X54533333Y-107283333D01*
X54566666Y-107350000D01*
X54566666Y-107483333D01*
X54533333Y-107550000D01*
X54500000Y-107583333D01*
X54433333Y-107616666D01*
X53866666Y-107616666D01*
X54100000Y-108250000D02*
X54566666Y-108250000D01*
X53833333Y-108083333D02*
X54333333Y-107916666D01*
X54333333Y-108350000D01*
%TO.C,U3*%
X55533333Y-118366666D02*
X55533333Y-118933333D01*
X55500000Y-119000000D01*
X55466666Y-119033333D01*
X55400000Y-119066666D01*
X55266666Y-119066666D01*
X55200000Y-119033333D01*
X55166666Y-119000000D01*
X55133333Y-118933333D01*
X55133333Y-118366666D01*
X54866666Y-118366666D02*
X54433333Y-118366666D01*
X54666666Y-118633333D01*
X54566666Y-118633333D01*
X54500000Y-118666666D01*
X54466666Y-118700000D01*
X54433333Y-118766666D01*
X54433333Y-118933333D01*
X54466666Y-119000000D01*
X54500000Y-119033333D01*
X54566666Y-119066666D01*
X54766666Y-119066666D01*
X54833333Y-119033333D01*
X54866666Y-119000000D01*
%TO.C,U2*%
X59283333Y-124366666D02*
X59283333Y-124933333D01*
X59250000Y-125000000D01*
X59216666Y-125033333D01*
X59150000Y-125066666D01*
X59016666Y-125066666D01*
X58950000Y-125033333D01*
X58916666Y-125000000D01*
X58883333Y-124933333D01*
X58883333Y-124366666D01*
X58583333Y-124433333D02*
X58550000Y-124400000D01*
X58483333Y-124366666D01*
X58316666Y-124366666D01*
X58250000Y-124400000D01*
X58216666Y-124433333D01*
X58183333Y-124500000D01*
X58183333Y-124566666D01*
X58216666Y-124666666D01*
X58616666Y-125066666D01*
X58183333Y-125066666D01*
%TO.C,U1*%
X47616666Y-112466666D02*
X48183333Y-112466666D01*
X48250000Y-112500000D01*
X48283333Y-112533333D01*
X48316666Y-112600000D01*
X48316666Y-112733333D01*
X48283333Y-112800000D01*
X48250000Y-112833333D01*
X48183333Y-112866666D01*
X47616666Y-112866666D01*
X48316666Y-113566666D02*
X48316666Y-113166666D01*
X48316666Y-113366666D02*
X47616666Y-113366666D01*
X47716666Y-113300000D01*
X47783333Y-113233333D01*
X47816666Y-113166666D01*
%TO.C,R10*%
X59066666Y-117050000D02*
X58733333Y-116816666D01*
X59066666Y-116650000D02*
X58366666Y-116650000D01*
X58366666Y-116916666D01*
X58400000Y-116983333D01*
X58433333Y-117016666D01*
X58500000Y-117050000D01*
X58600000Y-117050000D01*
X58666666Y-117016666D01*
X58700000Y-116983333D01*
X58733333Y-116916666D01*
X58733333Y-116650000D01*
X59066666Y-117716666D02*
X59066666Y-117316666D01*
X59066666Y-117516666D02*
X58366666Y-117516666D01*
X58466666Y-117450000D01*
X58533333Y-117383333D01*
X58566666Y-117316666D01*
X58366666Y-118150000D02*
X58366666Y-118216666D01*
X58400000Y-118283333D01*
X58433333Y-118316666D01*
X58500000Y-118350000D01*
X58633333Y-118383333D01*
X58800000Y-118383333D01*
X58933333Y-118350000D01*
X59000000Y-118316666D01*
X59033333Y-118283333D01*
X59066666Y-118216666D01*
X59066666Y-118150000D01*
X59033333Y-118083333D01*
X59000000Y-118050000D01*
X58933333Y-118016666D01*
X58800000Y-117983333D01*
X58633333Y-117983333D01*
X58500000Y-118016666D01*
X58433333Y-118050000D01*
X58400000Y-118083333D01*
X58366666Y-118150000D01*
%TO.C,R9*%
X59916666Y-110483333D02*
X59583333Y-110250000D01*
X59916666Y-110083333D02*
X59216666Y-110083333D01*
X59216666Y-110350000D01*
X59250000Y-110416666D01*
X59283333Y-110450000D01*
X59350000Y-110483333D01*
X59450000Y-110483333D01*
X59516666Y-110450000D01*
X59550000Y-110416666D01*
X59583333Y-110350000D01*
X59583333Y-110083333D01*
X59916666Y-110816666D02*
X59916666Y-110950000D01*
X59883333Y-111016666D01*
X59850000Y-111050000D01*
X59750000Y-111116666D01*
X59616666Y-111150000D01*
X59350000Y-111150000D01*
X59283333Y-111116666D01*
X59250000Y-111083333D01*
X59216666Y-111016666D01*
X59216666Y-110883333D01*
X59250000Y-110816666D01*
X59283333Y-110783333D01*
X59350000Y-110750000D01*
X59516666Y-110750000D01*
X59583333Y-110783333D01*
X59616666Y-110816666D01*
X59650000Y-110883333D01*
X59650000Y-111016666D01*
X59616666Y-111083333D01*
X59583333Y-111116666D01*
X59516666Y-111150000D01*
%TO.C,R8*%
X59816666Y-112633333D02*
X59483333Y-112400000D01*
X59816666Y-112233333D02*
X59116666Y-112233333D01*
X59116666Y-112500000D01*
X59150000Y-112566666D01*
X59183333Y-112600000D01*
X59250000Y-112633333D01*
X59350000Y-112633333D01*
X59416666Y-112600000D01*
X59450000Y-112566666D01*
X59483333Y-112500000D01*
X59483333Y-112233333D01*
X59416666Y-113033333D02*
X59383333Y-112966666D01*
X59350000Y-112933333D01*
X59283333Y-112900000D01*
X59250000Y-112900000D01*
X59183333Y-112933333D01*
X59150000Y-112966666D01*
X59116666Y-113033333D01*
X59116666Y-113166666D01*
X59150000Y-113233333D01*
X59183333Y-113266666D01*
X59250000Y-113300000D01*
X59283333Y-113300000D01*
X59350000Y-113266666D01*
X59383333Y-113233333D01*
X59416666Y-113166666D01*
X59416666Y-113033333D01*
X59450000Y-112966666D01*
X59483333Y-112933333D01*
X59550000Y-112900000D01*
X59683333Y-112900000D01*
X59750000Y-112933333D01*
X59783333Y-112966666D01*
X59816666Y-113033333D01*
X59816666Y-113166666D01*
X59783333Y-113233333D01*
X59750000Y-113266666D01*
X59683333Y-113300000D01*
X59550000Y-113300000D01*
X59483333Y-113266666D01*
X59450000Y-113233333D01*
X59416666Y-113166666D01*
%TO.C,R7*%
X64616666Y-112566666D02*
X64850000Y-112233333D01*
X65016666Y-112566666D02*
X65016666Y-111866666D01*
X64750000Y-111866666D01*
X64683333Y-111900000D01*
X64650000Y-111933333D01*
X64616666Y-112000000D01*
X64616666Y-112100000D01*
X64650000Y-112166666D01*
X64683333Y-112200000D01*
X64750000Y-112233333D01*
X65016666Y-112233333D01*
X64383333Y-111866666D02*
X63916666Y-111866666D01*
X64216666Y-112566666D01*
%TO.C,R6*%
X56616666Y-124896666D02*
X56850000Y-124563333D01*
X57016666Y-124896666D02*
X57016666Y-124196666D01*
X56750000Y-124196666D01*
X56683333Y-124230000D01*
X56650000Y-124263333D01*
X56616666Y-124330000D01*
X56616666Y-124430000D01*
X56650000Y-124496666D01*
X56683333Y-124530000D01*
X56750000Y-124563333D01*
X57016666Y-124563333D01*
X56016666Y-124196666D02*
X56150000Y-124196666D01*
X56216666Y-124230000D01*
X56250000Y-124263333D01*
X56316666Y-124363333D01*
X56350000Y-124496666D01*
X56350000Y-124763333D01*
X56316666Y-124830000D01*
X56283333Y-124863333D01*
X56216666Y-124896666D01*
X56083333Y-124896666D01*
X56016666Y-124863333D01*
X55983333Y-124830000D01*
X55950000Y-124763333D01*
X55950000Y-124596666D01*
X55983333Y-124530000D01*
X56016666Y-124496666D01*
X56083333Y-124463333D01*
X56216666Y-124463333D01*
X56283333Y-124496666D01*
X56316666Y-124530000D01*
X56350000Y-124596666D01*
%TO.C,R5*%
X56416666Y-131296666D02*
X56650000Y-130963333D01*
X56816666Y-131296666D02*
X56816666Y-130596666D01*
X56550000Y-130596666D01*
X56483333Y-130630000D01*
X56450000Y-130663333D01*
X56416666Y-130730000D01*
X56416666Y-130830000D01*
X56450000Y-130896666D01*
X56483333Y-130930000D01*
X56550000Y-130963333D01*
X56816666Y-130963333D01*
X55783333Y-130596666D02*
X56116666Y-130596666D01*
X56150000Y-130930000D01*
X56116666Y-130896666D01*
X56050000Y-130863333D01*
X55883333Y-130863333D01*
X55816666Y-130896666D01*
X55783333Y-130930000D01*
X55750000Y-130996666D01*
X55750000Y-131163333D01*
X55783333Y-131230000D01*
X55816666Y-131263333D01*
X55883333Y-131296666D01*
X56050000Y-131296666D01*
X56116666Y-131263333D01*
X56150000Y-131230000D01*
%TO.C,R4*%
X51316666Y-112883333D02*
X50983333Y-112650000D01*
X51316666Y-112483333D02*
X50616666Y-112483333D01*
X50616666Y-112750000D01*
X50650000Y-112816666D01*
X50683333Y-112850000D01*
X50750000Y-112883333D01*
X50850000Y-112883333D01*
X50916666Y-112850000D01*
X50950000Y-112816666D01*
X50983333Y-112750000D01*
X50983333Y-112483333D01*
X50850000Y-113483333D02*
X51316666Y-113483333D01*
X50583333Y-113316666D02*
X51083333Y-113150000D01*
X51083333Y-113583333D01*
%TO.C,R3*%
X51816666Y-107633333D02*
X51483333Y-107400000D01*
X51816666Y-107233333D02*
X51116666Y-107233333D01*
X51116666Y-107500000D01*
X51150000Y-107566666D01*
X51183333Y-107600000D01*
X51250000Y-107633333D01*
X51350000Y-107633333D01*
X51416666Y-107600000D01*
X51450000Y-107566666D01*
X51483333Y-107500000D01*
X51483333Y-107233333D01*
X51116666Y-107866666D02*
X51116666Y-108300000D01*
X51383333Y-108066666D01*
X51383333Y-108166666D01*
X51416666Y-108233333D01*
X51450000Y-108266666D01*
X51516666Y-108300000D01*
X51683333Y-108300000D01*
X51750000Y-108266666D01*
X51783333Y-108233333D01*
X51816666Y-108166666D01*
X51816666Y-107966666D01*
X51783333Y-107900000D01*
X51750000Y-107866666D01*
%TO.C,R2*%
X51916666Y-119383333D02*
X51583333Y-119150000D01*
X51916666Y-118983333D02*
X51216666Y-118983333D01*
X51216666Y-119250000D01*
X51250000Y-119316666D01*
X51283333Y-119350000D01*
X51350000Y-119383333D01*
X51450000Y-119383333D01*
X51516666Y-119350000D01*
X51550000Y-119316666D01*
X51583333Y-119250000D01*
X51583333Y-118983333D01*
X51283333Y-119650000D02*
X51250000Y-119683333D01*
X51216666Y-119750000D01*
X51216666Y-119916666D01*
X51250000Y-119983333D01*
X51283333Y-120016666D01*
X51350000Y-120050000D01*
X51416666Y-120050000D01*
X51516666Y-120016666D01*
X51916666Y-119616666D01*
X51916666Y-120050000D01*
%TO.C,R1*%
X84066666Y-102633333D02*
X83733333Y-102400000D01*
X84066666Y-102233333D02*
X83366666Y-102233333D01*
X83366666Y-102500000D01*
X83400000Y-102566666D01*
X83433333Y-102600000D01*
X83500000Y-102633333D01*
X83600000Y-102633333D01*
X83666666Y-102600000D01*
X83700000Y-102566666D01*
X83733333Y-102500000D01*
X83733333Y-102233333D01*
X84066666Y-103300000D02*
X84066666Y-102900000D01*
X84066666Y-103100000D02*
X83366666Y-103100000D01*
X83466666Y-103033333D01*
X83533333Y-102966666D01*
X83566666Y-102900000D01*
%TO.C,Q1*%
X64066666Y-114133333D02*
X64133333Y-114100000D01*
X64200000Y-114033333D01*
X64300000Y-113933333D01*
X64366666Y-113900000D01*
X64433333Y-113900000D01*
X64400000Y-114066666D02*
X64466666Y-114033333D01*
X64533333Y-113966666D01*
X64566666Y-113833333D01*
X64566666Y-113600000D01*
X64533333Y-113466666D01*
X64466666Y-113400000D01*
X64400000Y-113366666D01*
X64266666Y-113366666D01*
X64200000Y-113400000D01*
X64133333Y-113466666D01*
X64100000Y-113600000D01*
X64100000Y-113833333D01*
X64133333Y-113966666D01*
X64200000Y-114033333D01*
X64266666Y-114066666D01*
X64400000Y-114066666D01*
X63433333Y-114066666D02*
X63833333Y-114066666D01*
X63633333Y-114066666D02*
X63633333Y-113366666D01*
X63700000Y-113466666D01*
X63766666Y-113533333D01*
X63833333Y-113566666D01*
%TO.C,L1*%
X45316666Y-115283333D02*
X45316666Y-114950000D01*
X44616666Y-114950000D01*
X45316666Y-115883333D02*
X45316666Y-115483333D01*
X45316666Y-115683333D02*
X44616666Y-115683333D01*
X44716666Y-115616666D01*
X44783333Y-115550000D01*
X44816666Y-115483333D01*
%TO.C,JP1*%
X76416666Y-126416666D02*
X76916666Y-126416666D01*
X77016666Y-126383333D01*
X77083333Y-126316666D01*
X77116666Y-126216666D01*
X77116666Y-126150000D01*
X77116666Y-126750000D02*
X76416666Y-126750000D01*
X76416666Y-127016666D01*
X76450000Y-127083333D01*
X76483333Y-127116666D01*
X76550000Y-127150000D01*
X76650000Y-127150000D01*
X76716666Y-127116666D01*
X76750000Y-127083333D01*
X76783333Y-127016666D01*
X76783333Y-126750000D01*
X77116666Y-127816666D02*
X77116666Y-127416666D01*
X77116666Y-127616666D02*
X76416666Y-127616666D01*
X76516666Y-127550000D01*
X76583333Y-127483333D01*
X76616666Y-127416666D01*
%TO.C,J3*%
X50233333Y-120416666D02*
X50233333Y-120916666D01*
X50266666Y-121016666D01*
X50333333Y-121083333D01*
X50433333Y-121116666D01*
X50500000Y-121116666D01*
X49966666Y-120416666D02*
X49533333Y-120416666D01*
X49766666Y-120683333D01*
X49666666Y-120683333D01*
X49600000Y-120716666D01*
X49566666Y-120750000D01*
X49533333Y-120816666D01*
X49533333Y-120983333D01*
X49566666Y-121050000D01*
X49600000Y-121083333D01*
X49666666Y-121116666D01*
X49866666Y-121116666D01*
X49933333Y-121083333D01*
X49966666Y-121050000D01*
%TO.C,FB3*%
X53450000Y-116154166D02*
X53450000Y-115920833D01*
X53816666Y-115920833D02*
X53116666Y-115920833D01*
X53116666Y-116254166D01*
X53450000Y-116754166D02*
X53483333Y-116854166D01*
X53516666Y-116887500D01*
X53583333Y-116920833D01*
X53683333Y-116920833D01*
X53750000Y-116887500D01*
X53783333Y-116854166D01*
X53816666Y-116787500D01*
X53816666Y-116520833D01*
X53116666Y-116520833D01*
X53116666Y-116754166D01*
X53150000Y-116820833D01*
X53183333Y-116854166D01*
X53250000Y-116887500D01*
X53316666Y-116887500D01*
X53383333Y-116854166D01*
X53416666Y-116820833D01*
X53450000Y-116754166D01*
X53450000Y-116520833D01*
X53116666Y-117154166D02*
X53116666Y-117587500D01*
X53383333Y-117354166D01*
X53383333Y-117454166D01*
X53416666Y-117520833D01*
X53450000Y-117554166D01*
X53516666Y-117587500D01*
X53683333Y-117587500D01*
X53750000Y-117554166D01*
X53783333Y-117520833D01*
X53816666Y-117454166D01*
X53816666Y-117254166D01*
X53783333Y-117187500D01*
X53750000Y-117154166D01*
%TO.C,FB2*%
X58750000Y-122666666D02*
X58750000Y-122433333D01*
X59116666Y-122433333D02*
X58416666Y-122433333D01*
X58416666Y-122766666D01*
X58750000Y-123266666D02*
X58783333Y-123366666D01*
X58816666Y-123400000D01*
X58883333Y-123433333D01*
X58983333Y-123433333D01*
X59050000Y-123400000D01*
X59083333Y-123366666D01*
X59116666Y-123300000D01*
X59116666Y-123033333D01*
X58416666Y-123033333D01*
X58416666Y-123266666D01*
X58450000Y-123333333D01*
X58483333Y-123366666D01*
X58550000Y-123400000D01*
X58616666Y-123400000D01*
X58683333Y-123366666D01*
X58716666Y-123333333D01*
X58750000Y-123266666D01*
X58750000Y-123033333D01*
X58483333Y-123700000D02*
X58450000Y-123733333D01*
X58416666Y-123800000D01*
X58416666Y-123966666D01*
X58450000Y-124033333D01*
X58483333Y-124066666D01*
X58550000Y-124100000D01*
X58616666Y-124100000D01*
X58716666Y-124066666D01*
X59116666Y-123666666D01*
X59116666Y-124100000D01*
%TO.C,FB1*%
X61280000Y-129216666D02*
X61280000Y-128983333D01*
X61646666Y-128983333D02*
X60946666Y-128983333D01*
X60946666Y-129316666D01*
X61280000Y-129816666D02*
X61313333Y-129916666D01*
X61346666Y-129950000D01*
X61413333Y-129983333D01*
X61513333Y-129983333D01*
X61580000Y-129950000D01*
X61613333Y-129916666D01*
X61646666Y-129850000D01*
X61646666Y-129583333D01*
X60946666Y-129583333D01*
X60946666Y-129816666D01*
X60980000Y-129883333D01*
X61013333Y-129916666D01*
X61080000Y-129950000D01*
X61146666Y-129950000D01*
X61213333Y-129916666D01*
X61246666Y-129883333D01*
X61280000Y-129816666D01*
X61280000Y-129583333D01*
X61646666Y-130650000D02*
X61646666Y-130250000D01*
X61646666Y-130450000D02*
X60946666Y-130450000D01*
X61046666Y-130383333D01*
X61113333Y-130316666D01*
X61146666Y-130250000D01*
%TO.C,D2*%
X45116666Y-107983333D02*
X44416666Y-107983333D01*
X44416666Y-108150000D01*
X44450000Y-108250000D01*
X44516666Y-108316666D01*
X44583333Y-108350000D01*
X44716666Y-108383333D01*
X44816666Y-108383333D01*
X44950000Y-108350000D01*
X45016666Y-108316666D01*
X45083333Y-108250000D01*
X45116666Y-108150000D01*
X45116666Y-107983333D01*
X44483333Y-108650000D02*
X44450000Y-108683333D01*
X44416666Y-108750000D01*
X44416666Y-108916666D01*
X44450000Y-108983333D01*
X44483333Y-109016666D01*
X44550000Y-109050000D01*
X44616666Y-109050000D01*
X44716666Y-109016666D01*
X45116666Y-108616666D01*
X45116666Y-109050000D01*
%TO.C,D1*%
X83886666Y-99233333D02*
X83186666Y-99233333D01*
X83186666Y-99400000D01*
X83220000Y-99500000D01*
X83286666Y-99566666D01*
X83353333Y-99600000D01*
X83486666Y-99633333D01*
X83586666Y-99633333D01*
X83720000Y-99600000D01*
X83786666Y-99566666D01*
X83853333Y-99500000D01*
X83886666Y-99400000D01*
X83886666Y-99233333D01*
X83886666Y-100300000D02*
X83886666Y-99900000D01*
X83886666Y-100100000D02*
X83186666Y-100100000D01*
X83286666Y-100033333D01*
X83353333Y-99966666D01*
X83386666Y-99900000D01*
%TO.C,C15*%
X58000000Y-117050000D02*
X58033333Y-117016666D01*
X58066666Y-116916666D01*
X58066666Y-116850000D01*
X58033333Y-116750000D01*
X57966666Y-116683333D01*
X57900000Y-116650000D01*
X57766666Y-116616666D01*
X57666666Y-116616666D01*
X57533333Y-116650000D01*
X57466666Y-116683333D01*
X57400000Y-116750000D01*
X57366666Y-116850000D01*
X57366666Y-116916666D01*
X57400000Y-117016666D01*
X57433333Y-117050000D01*
X58066666Y-117716666D02*
X58066666Y-117316666D01*
X58066666Y-117516666D02*
X57366666Y-117516666D01*
X57466666Y-117450000D01*
X57533333Y-117383333D01*
X57566666Y-117316666D01*
X57366666Y-118350000D02*
X57366666Y-118016666D01*
X57700000Y-117983333D01*
X57666666Y-118016666D01*
X57633333Y-118083333D01*
X57633333Y-118250000D01*
X57666666Y-118316666D01*
X57700000Y-118350000D01*
X57766666Y-118383333D01*
X57933333Y-118383333D01*
X58000000Y-118350000D01*
X58033333Y-118316666D01*
X58066666Y-118250000D01*
X58066666Y-118083333D01*
X58033333Y-118016666D01*
X58000000Y-117983333D01*
%TO.C,C14*%
X60950000Y-117100000D02*
X60983333Y-117066666D01*
X61016666Y-116966666D01*
X61016666Y-116900000D01*
X60983333Y-116800000D01*
X60916666Y-116733333D01*
X60850000Y-116700000D01*
X60716666Y-116666666D01*
X60616666Y-116666666D01*
X60483333Y-116700000D01*
X60416666Y-116733333D01*
X60350000Y-116800000D01*
X60316666Y-116900000D01*
X60316666Y-116966666D01*
X60350000Y-117066666D01*
X60383333Y-117100000D01*
X61016666Y-117766666D02*
X61016666Y-117366666D01*
X61016666Y-117566666D02*
X60316666Y-117566666D01*
X60416666Y-117500000D01*
X60483333Y-117433333D01*
X60516666Y-117366666D01*
X60550000Y-118366666D02*
X61016666Y-118366666D01*
X60283333Y-118200000D02*
X60783333Y-118033333D01*
X60783333Y-118466666D01*
%TO.C,C13*%
X61250000Y-126550000D02*
X61283333Y-126516666D01*
X61316666Y-126416666D01*
X61316666Y-126350000D01*
X61283333Y-126250000D01*
X61216666Y-126183333D01*
X61150000Y-126150000D01*
X61016666Y-126116666D01*
X60916666Y-126116666D01*
X60783333Y-126150000D01*
X60716666Y-126183333D01*
X60650000Y-126250000D01*
X60616666Y-126350000D01*
X60616666Y-126416666D01*
X60650000Y-126516666D01*
X60683333Y-126550000D01*
X61316666Y-127216666D02*
X61316666Y-126816666D01*
X61316666Y-127016666D02*
X60616666Y-127016666D01*
X60716666Y-126950000D01*
X60783333Y-126883333D01*
X60816666Y-126816666D01*
X60616666Y-127450000D02*
X60616666Y-127883333D01*
X60883333Y-127650000D01*
X60883333Y-127750000D01*
X60916666Y-127816666D01*
X60950000Y-127850000D01*
X61016666Y-127883333D01*
X61183333Y-127883333D01*
X61250000Y-127850000D01*
X61283333Y-127816666D01*
X61316666Y-127750000D01*
X61316666Y-127550000D01*
X61283333Y-127483333D01*
X61250000Y-127450000D01*
%TO.C,C12*%
X50000000Y-107550000D02*
X50033333Y-107516666D01*
X50066666Y-107416666D01*
X50066666Y-107350000D01*
X50033333Y-107250000D01*
X49966666Y-107183333D01*
X49900000Y-107150000D01*
X49766666Y-107116666D01*
X49666666Y-107116666D01*
X49533333Y-107150000D01*
X49466666Y-107183333D01*
X49400000Y-107250000D01*
X49366666Y-107350000D01*
X49366666Y-107416666D01*
X49400000Y-107516666D01*
X49433333Y-107550000D01*
X50066666Y-108216666D02*
X50066666Y-107816666D01*
X50066666Y-108016666D02*
X49366666Y-108016666D01*
X49466666Y-107950000D01*
X49533333Y-107883333D01*
X49566666Y-107816666D01*
X49433333Y-108483333D02*
X49400000Y-108516666D01*
X49366666Y-108583333D01*
X49366666Y-108750000D01*
X49400000Y-108816666D01*
X49433333Y-108850000D01*
X49500000Y-108883333D01*
X49566666Y-108883333D01*
X49666666Y-108850000D01*
X50066666Y-108450000D01*
X50066666Y-108883333D01*
%TO.C,C11*%
X53050000Y-120150000D02*
X53083333Y-120116666D01*
X53116666Y-120016666D01*
X53116666Y-119950000D01*
X53083333Y-119850000D01*
X53016666Y-119783333D01*
X52950000Y-119750000D01*
X52816666Y-119716666D01*
X52716666Y-119716666D01*
X52583333Y-119750000D01*
X52516666Y-119783333D01*
X52450000Y-119850000D01*
X52416666Y-119950000D01*
X52416666Y-120016666D01*
X52450000Y-120116666D01*
X52483333Y-120150000D01*
X53116666Y-120816666D02*
X53116666Y-120416666D01*
X53116666Y-120616666D02*
X52416666Y-120616666D01*
X52516666Y-120550000D01*
X52583333Y-120483333D01*
X52616666Y-120416666D01*
X53116666Y-121483333D02*
X53116666Y-121083333D01*
X53116666Y-121283333D02*
X52416666Y-121283333D01*
X52516666Y-121216666D01*
X52583333Y-121150000D01*
X52616666Y-121083333D01*
%TO.C,C10*%
X54000000Y-129300000D02*
X54033333Y-129266666D01*
X54066666Y-129166666D01*
X54066666Y-129100000D01*
X54033333Y-129000000D01*
X53966666Y-128933333D01*
X53900000Y-128900000D01*
X53766666Y-128866666D01*
X53666666Y-128866666D01*
X53533333Y-128900000D01*
X53466666Y-128933333D01*
X53400000Y-129000000D01*
X53366666Y-129100000D01*
X53366666Y-129166666D01*
X53400000Y-129266666D01*
X53433333Y-129300000D01*
X54066666Y-129966666D02*
X54066666Y-129566666D01*
X54066666Y-129766666D02*
X53366666Y-129766666D01*
X53466666Y-129700000D01*
X53533333Y-129633333D01*
X53566666Y-129566666D01*
X53366666Y-130400000D02*
X53366666Y-130466666D01*
X53400000Y-130533333D01*
X53433333Y-130566666D01*
X53500000Y-130600000D01*
X53633333Y-130633333D01*
X53800000Y-130633333D01*
X53933333Y-130600000D01*
X54000000Y-130566666D01*
X54033333Y-130533333D01*
X54066666Y-130466666D01*
X54066666Y-130400000D01*
X54033333Y-130333333D01*
X54000000Y-130300000D01*
X53933333Y-130266666D01*
X53800000Y-130233333D01*
X53633333Y-130233333D01*
X53500000Y-130266666D01*
X53433333Y-130300000D01*
X53400000Y-130333333D01*
X53366666Y-130400000D01*
%TO.C,C9*%
X48750000Y-107633333D02*
X48783333Y-107600000D01*
X48816666Y-107500000D01*
X48816666Y-107433333D01*
X48783333Y-107333333D01*
X48716666Y-107266666D01*
X48650000Y-107233333D01*
X48516666Y-107200000D01*
X48416666Y-107200000D01*
X48283333Y-107233333D01*
X48216666Y-107266666D01*
X48150000Y-107333333D01*
X48116666Y-107433333D01*
X48116666Y-107500000D01*
X48150000Y-107600000D01*
X48183333Y-107633333D01*
X48816666Y-107966666D02*
X48816666Y-108100000D01*
X48783333Y-108166666D01*
X48750000Y-108200000D01*
X48650000Y-108266666D01*
X48516666Y-108300000D01*
X48250000Y-108300000D01*
X48183333Y-108266666D01*
X48150000Y-108233333D01*
X48116666Y-108166666D01*
X48116666Y-108033333D01*
X48150000Y-107966666D01*
X48183333Y-107933333D01*
X48250000Y-107900000D01*
X48416666Y-107900000D01*
X48483333Y-107933333D01*
X48516666Y-107966666D01*
X48550000Y-108033333D01*
X48550000Y-108166666D01*
X48516666Y-108233333D01*
X48483333Y-108266666D01*
X48416666Y-108300000D01*
%TO.C,C8*%
X53000000Y-107633333D02*
X53033333Y-107600000D01*
X53066666Y-107500000D01*
X53066666Y-107433333D01*
X53033333Y-107333333D01*
X52966666Y-107266666D01*
X52900000Y-107233333D01*
X52766666Y-107200000D01*
X52666666Y-107200000D01*
X52533333Y-107233333D01*
X52466666Y-107266666D01*
X52400000Y-107333333D01*
X52366666Y-107433333D01*
X52366666Y-107500000D01*
X52400000Y-107600000D01*
X52433333Y-107633333D01*
X52666666Y-108033333D02*
X52633333Y-107966666D01*
X52600000Y-107933333D01*
X52533333Y-107900000D01*
X52500000Y-107900000D01*
X52433333Y-107933333D01*
X52400000Y-107966666D01*
X52366666Y-108033333D01*
X52366666Y-108166666D01*
X52400000Y-108233333D01*
X52433333Y-108266666D01*
X52500000Y-108300000D01*
X52533333Y-108300000D01*
X52600000Y-108266666D01*
X52633333Y-108233333D01*
X52666666Y-108166666D01*
X52666666Y-108033333D01*
X52700000Y-107966666D01*
X52733333Y-107933333D01*
X52800000Y-107900000D01*
X52933333Y-107900000D01*
X53000000Y-107933333D01*
X53033333Y-107966666D01*
X53066666Y-108033333D01*
X53066666Y-108166666D01*
X53033333Y-108233333D01*
X53000000Y-108266666D01*
X52933333Y-108300000D01*
X52800000Y-108300000D01*
X52733333Y-108266666D01*
X52700000Y-108233333D01*
X52666666Y-108166666D01*
%TO.C,C7*%
X50366666Y-119700000D02*
X50400000Y-119733333D01*
X50500000Y-119766666D01*
X50566666Y-119766666D01*
X50666666Y-119733333D01*
X50733333Y-119666666D01*
X50766666Y-119600000D01*
X50800000Y-119466666D01*
X50800000Y-119366666D01*
X50766666Y-119233333D01*
X50733333Y-119166666D01*
X50666666Y-119100000D01*
X50566666Y-119066666D01*
X50500000Y-119066666D01*
X50400000Y-119100000D01*
X50366666Y-119133333D01*
X50133333Y-119066666D02*
X49666666Y-119066666D01*
X49966666Y-119766666D01*
%TO.C,C6*%
X62050000Y-120783333D02*
X62083333Y-120750000D01*
X62116666Y-120650000D01*
X62116666Y-120583333D01*
X62083333Y-120483333D01*
X62016666Y-120416666D01*
X61950000Y-120383333D01*
X61816666Y-120350000D01*
X61716666Y-120350000D01*
X61583333Y-120383333D01*
X61516666Y-120416666D01*
X61450000Y-120483333D01*
X61416666Y-120583333D01*
X61416666Y-120650000D01*
X61450000Y-120750000D01*
X61483333Y-120783333D01*
X61416666Y-121383333D02*
X61416666Y-121250000D01*
X61450000Y-121183333D01*
X61483333Y-121150000D01*
X61583333Y-121083333D01*
X61716666Y-121050000D01*
X61983333Y-121050000D01*
X62050000Y-121083333D01*
X62083333Y-121116666D01*
X62116666Y-121183333D01*
X62116666Y-121316666D01*
X62083333Y-121383333D01*
X62050000Y-121416666D01*
X61983333Y-121450000D01*
X61816666Y-121450000D01*
X61750000Y-121416666D01*
X61716666Y-121383333D01*
X61683333Y-121316666D01*
X61683333Y-121183333D01*
X61716666Y-121116666D01*
X61750000Y-121083333D01*
X61816666Y-121050000D01*
%TO.C,C5*%
X63550000Y-120783333D02*
X63583333Y-120750000D01*
X63616666Y-120650000D01*
X63616666Y-120583333D01*
X63583333Y-120483333D01*
X63516666Y-120416666D01*
X63450000Y-120383333D01*
X63316666Y-120350000D01*
X63216666Y-120350000D01*
X63083333Y-120383333D01*
X63016666Y-120416666D01*
X62950000Y-120483333D01*
X62916666Y-120583333D01*
X62916666Y-120650000D01*
X62950000Y-120750000D01*
X62983333Y-120783333D01*
X62916666Y-121416666D02*
X62916666Y-121083333D01*
X63250000Y-121050000D01*
X63216666Y-121083333D01*
X63183333Y-121150000D01*
X63183333Y-121316666D01*
X63216666Y-121383333D01*
X63250000Y-121416666D01*
X63316666Y-121450000D01*
X63483333Y-121450000D01*
X63550000Y-121416666D01*
X63583333Y-121383333D01*
X63616666Y-121316666D01*
X63616666Y-121150000D01*
X63583333Y-121083333D01*
X63550000Y-121050000D01*
%TO.C,C4*%
X64600000Y-135483333D02*
X64633333Y-135450000D01*
X64666666Y-135350000D01*
X64666666Y-135283333D01*
X64633333Y-135183333D01*
X64566666Y-135116666D01*
X64500000Y-135083333D01*
X64366666Y-135050000D01*
X64266666Y-135050000D01*
X64133333Y-135083333D01*
X64066666Y-135116666D01*
X64000000Y-135183333D01*
X63966666Y-135283333D01*
X63966666Y-135350000D01*
X64000000Y-135450000D01*
X64033333Y-135483333D01*
X64200000Y-136083333D02*
X64666666Y-136083333D01*
X63933333Y-135916666D02*
X64433333Y-135750000D01*
X64433333Y-136183333D01*
%TO.C,C3*%
X68750000Y-133033333D02*
X68783333Y-133000000D01*
X68816666Y-132900000D01*
X68816666Y-132833333D01*
X68783333Y-132733333D01*
X68716666Y-132666666D01*
X68650000Y-132633333D01*
X68516666Y-132600000D01*
X68416666Y-132600000D01*
X68283333Y-132633333D01*
X68216666Y-132666666D01*
X68150000Y-132733333D01*
X68116666Y-132833333D01*
X68116666Y-132900000D01*
X68150000Y-133000000D01*
X68183333Y-133033333D01*
X68116666Y-133266666D02*
X68116666Y-133700000D01*
X68383333Y-133466666D01*
X68383333Y-133566666D01*
X68416666Y-133633333D01*
X68450000Y-133666666D01*
X68516666Y-133700000D01*
X68683333Y-133700000D01*
X68750000Y-133666666D01*
X68783333Y-133633333D01*
X68816666Y-133566666D01*
X68816666Y-133366666D01*
X68783333Y-133300000D01*
X68750000Y-133266666D01*
%TO.C,C2*%
X63100000Y-135483333D02*
X63133333Y-135450000D01*
X63166666Y-135350000D01*
X63166666Y-135283333D01*
X63133333Y-135183333D01*
X63066666Y-135116666D01*
X63000000Y-135083333D01*
X62866666Y-135050000D01*
X62766666Y-135050000D01*
X62633333Y-135083333D01*
X62566666Y-135116666D01*
X62500000Y-135183333D01*
X62466666Y-135283333D01*
X62466666Y-135350000D01*
X62500000Y-135450000D01*
X62533333Y-135483333D01*
X62533333Y-135750000D02*
X62500000Y-135783333D01*
X62466666Y-135850000D01*
X62466666Y-136016666D01*
X62500000Y-136083333D01*
X62533333Y-136116666D01*
X62600000Y-136150000D01*
X62666666Y-136150000D01*
X62766666Y-136116666D01*
X63166666Y-135716666D01*
X63166666Y-136150000D01*
%TO.C,C1*%
X72750000Y-133033333D02*
X72783333Y-133000000D01*
X72816666Y-132900000D01*
X72816666Y-132833333D01*
X72783333Y-132733333D01*
X72716666Y-132666666D01*
X72650000Y-132633333D01*
X72516666Y-132600000D01*
X72416666Y-132600000D01*
X72283333Y-132633333D01*
X72216666Y-132666666D01*
X72150000Y-132733333D01*
X72116666Y-132833333D01*
X72116666Y-132900000D01*
X72150000Y-133000000D01*
X72183333Y-133033333D01*
X72816666Y-133700000D02*
X72816666Y-133300000D01*
X72816666Y-133500000D02*
X72116666Y-133500000D01*
X72216666Y-133433333D01*
X72283333Y-133366666D01*
X72316666Y-133300000D01*
%TD*%
M02*
